<svg width="29" height="17" viewBox="0 0 29 17" fill="none" xmlns="http://www.w3.org/2000/svg">
<path d="M8.35552 6.17408C8.35552 6.52392 8.39277 6.80756 8.45795 7.01557C8.53245 7.22358 8.62558 7.4505 8.75595 7.69633C8.80252 7.77197 8.82114 7.84761 8.82114 7.91379C8.82114 8.00834 8.76527 8.10289 8.64421 8.19744L8.05752 8.59455C7.97371 8.65128 7.88989 8.67964 7.81539 8.67964C7.72227 8.67964 7.62914 8.63237 7.53602 8.54728C7.40564 8.40545 7.29389 8.25417 7.20077 8.10289C7.10764 7.94216 7.01452 7.76251 6.91208 7.54505C6.1857 8.41491 5.27308 8.84983 4.1742 8.84983C3.39195 8.84983 2.76801 8.62291 2.3117 8.16908C1.85539 7.71524 1.62258 7.11012 1.62258 6.35373C1.62258 5.55006 1.90195 4.89766 2.47001 4.40601C3.03808 3.91435 3.79239 3.66852 4.75158 3.66852C5.0682 3.66852 5.39414 3.69689 5.7387 3.74416C6.08327 3.79144 6.43714 3.86707 6.80964 3.95217V3.26196C6.80964 2.54338 6.66064 2.04227 6.37195 1.74917C6.07395 1.45606 5.57108 1.31424 4.85402 1.31424C4.52808 1.31424 4.19283 1.35206 3.84826 1.43715C3.5037 1.52225 3.16845 1.62625 2.84251 1.75862C2.69351 1.82481 2.58176 1.86263 2.51658 1.88154C2.45139 1.90044 2.40483 1.9099 2.36758 1.9099C2.2372 1.9099 2.17201 1.81535 2.17201 1.6168V1.1535C2.17201 1.00222 2.19064 0.888765 2.2372 0.822581C2.28376 0.756396 2.36758 0.690211 2.49795 0.624027C2.82389 0.453838 3.21501 0.312013 3.67133 0.198554C4.12764 0.0756396 4.61189 0.0189099 5.12408 0.0189099C6.23227 0.0189099 7.04245 0.274193 7.56395 0.784761C8.07614 1.29533 8.33689 2.07063 8.33689 3.11068V6.17408H8.35552ZM4.57464 7.61124C4.88195 7.61124 5.19858 7.5545 5.53383 7.44105C5.86908 7.32759 6.16708 7.11958 6.41852 6.83593C6.56752 6.65629 6.67927 6.45773 6.73514 6.23081C6.79102 6.00389 6.82827 5.7297 6.82827 5.40823V5.01112C6.5582 4.94494 6.26952 4.88821 5.97152 4.85039C5.67352 4.81257 5.38483 4.79366 5.09614 4.79366C4.4722 4.79366 4.01589 4.91657 3.70858 5.17186C3.40126 5.42714 3.25226 5.78643 3.25226 6.25918C3.25226 6.70356 3.36401 7.03448 3.59683 7.2614C3.82033 7.49778 4.14626 7.61124 4.57464 7.61124ZM12.0526 8.63237C11.885 8.63237 11.7732 8.604 11.6987 8.53782C11.6242 8.48109 11.559 8.34872 11.5031 8.16908L9.3147 0.8604C9.25883 0.671302 9.23089 0.548387 9.23089 0.482202C9.23089 0.330923 9.30539 0.245829 9.45439 0.245829H10.367C10.544 0.245829 10.665 0.274194 10.7302 0.340378C10.8047 0.397108 10.8606 0.529477 10.9165 0.709121L12.481 6.9683L13.9337 0.709121C13.9803 0.520022 14.0361 0.397108 14.1106 0.340378C14.1851 0.283649 14.3155 0.245829 14.4831 0.245829H15.2281C15.4051 0.245829 15.5261 0.274194 15.6006 0.340378C15.6751 0.397108 15.7403 0.529477 15.7776 0.709121L17.249 7.04394L18.86 0.709121C18.9159 0.520022 18.9811 0.397108 19.0463 0.340378C19.1208 0.283649 19.2418 0.245829 19.4095 0.245829H20.2755C20.4245 0.245829 20.5083 0.321468 20.5083 0.482202C20.5083 0.529477 20.499 0.576752 20.4897 0.633482C20.4804 0.690211 20.4618 0.765851 20.4245 0.869855L18.1802 8.17853C18.1243 8.36763 18.0591 8.49055 17.9846 8.54728C17.9101 8.604 17.7891 8.64182 17.6308 8.64182H16.8299C16.653 8.64182 16.5319 8.61346 16.4574 8.54728C16.3829 8.48109 16.3177 8.35818 16.2805 8.16908L14.837 2.07063L13.4029 8.15962C13.3563 8.34872 13.3005 8.47164 13.226 8.53782C13.1515 8.604 13.0211 8.63237 12.8535 8.63237H12.0526ZM24.0192 8.88765C23.5349 8.88765 23.0506 8.83092 22.585 8.71746C22.1194 8.604 21.7562 8.48109 21.5141 8.33927C21.3651 8.25417 21.2626 8.15962 21.2254 8.07453C21.1882 7.98943 21.1695 7.89488 21.1695 7.80979V7.32759C21.1695 7.12903 21.244 7.03448 21.3837 7.03448C21.4396 7.03448 21.4955 7.04394 21.5513 7.06285C21.6072 7.08176 21.691 7.11958 21.7842 7.1574C22.1008 7.29922 22.4453 7.41268 22.8085 7.48832C23.181 7.56396 23.5442 7.60178 23.9167 7.60178C24.5034 7.60178 24.9597 7.49778 25.2763 7.28977C25.593 7.08176 25.7606 6.7792 25.7606 6.39155C25.7606 6.12681 25.6768 5.90934 25.5092 5.7297C25.3415 5.55006 25.0249 5.38932 24.5686 5.23804L23.2183 4.81257C22.5385 4.59511 22.0356 4.27364 21.7283 3.84817C21.421 3.43215 21.2627 2.96885 21.2627 2.4772C21.2627 2.08009 21.3465 1.73026 21.5141 1.4277C21.6817 1.12514 21.9052 0.8604 22.1846 0.652392C22.464 0.434928 22.7806 0.274194 23.1531 0.160734C23.5256 0.0472747 23.9167 0 24.3265 0C24.5313 0 24.7455 0.00945495 24.9504 0.0378198C25.1646 0.0661847 25.3602 0.104004 25.5557 0.141824C25.742 0.189099 25.9189 0.236374 26.0865 0.293103C26.2542 0.349833 26.3845 0.406563 26.4777 0.463293C26.608 0.538932 26.7012 0.614572 26.757 0.699666C26.8129 0.775306 26.8408 0.87931 26.8408 1.01168V1.45606C26.8408 1.65462 26.7663 1.75862 26.6267 1.75862C26.5522 1.75862 26.4311 1.7208 26.2728 1.64516C25.742 1.39933 25.146 1.27642 24.4848 1.27642C23.954 1.27642 23.5349 1.36151 23.2462 1.54116C22.9575 1.7208 22.8085 1.99499 22.8085 2.38265C22.8085 2.64739 22.9016 2.87431 23.0879 3.05395C23.2742 3.23359 23.6187 3.41324 24.1123 3.57397L25.4347 3.99944C26.1052 4.21691 26.5894 4.51947 26.8781 4.90712C27.1668 5.29477 27.3065 5.73916 27.3065 6.23081C27.3065 6.63738 27.2227 7.00612 27.0643 7.32759C26.8967 7.64906 26.6732 7.9327 26.3845 8.15962C26.0958 8.396 25.7513 8.56618 25.3508 8.6891C24.9318 8.82147 24.4941 8.88765 24.0192 8.88765Z" fill="#252F3E"/>
<path d="M25.7792 13.4828C22.7154 15.7803 18.264 17 14.4366 17C9.07258 17 4.23939 14.9861 0.588888 11.639C0.3002 11.3743 0.56095 11.015 0.905513 11.223C4.85402 13.5489 9.72446 14.9577 14.7625 14.9577C18.1616 14.9577 21.8959 14.2392 25.3322 12.7642C25.8444 12.5278 26.2821 13.1046 25.7792 13.4828ZM27.055 12.0078C26.6639 11.4972 24.4662 11.762 23.4697 11.8849C23.1717 11.9227 23.1251 11.658 23.3952 11.4594C25.146 10.2113 28.0235 10.5706 28.3588 10.9867C28.694 11.4121 28.2657 14.3337 26.6267 15.733C26.3752 15.9505 26.1331 15.837 26.2448 15.5534C26.6173 14.6174 27.4462 12.5089 27.055 12.0078Z" fill="#FF9900"/>
</svg>
