<svg width="24" height="25" viewBox="0 0 24 25" fill="none" xmlns="http://www.w3.org/2000/svg">
<path d="M2.7561 24.9939C4.02166 24.9939 5.0476 23.9697 5.0476 22.7064C5.0476 21.443 4.02166 20.4189 2.7561 20.4189C1.49054 20.4189 0.4646 21.443 0.4646 22.7064C0.4646 23.9697 1.49054 24.9939 2.7561 24.9939Z" fill="#0000FF"/>
<path d="M14.7082 6.4875C12.4605 6.4875 10.2379 7.45 8.54745 9.35V0H5.1916V15.7438C5.1916 20.8563 9.34259 25 14.464 25C19.5855 25 23.7365 20.8563 23.7365 15.7438C23.7365 10.6313 19.8234 6.4875 14.7082 6.4875ZM14.464 21.4313C11.3148 21.4313 8.76658 18.8813 8.76658 15.7438C8.76658 12.6063 11.321 10.0562 14.464 10.0562C17.6133 10.0562 20.1615 12.6063 20.1615 15.7438C20.1615 18.8813 17.6133 21.4313 14.464 21.4313Z" fill="black"/>
</svg>
