<svg width="18" height="26" viewBox="0 0 18 26" fill="none" xmlns="http://www.w3.org/2000/svg">
<path d="M8.99609 13C8.99609 11.8507 9.44551 10.7485 10.2455 9.93587C11.0454 9.12321 12.1304 8.66667 13.2617 8.66667C14.393 8.66667 15.478 9.12321 16.278 9.93587C17.0779 10.7485 17.5273 11.8507 17.5273 13C17.5273 14.1493 17.0779 15.2515 16.278 16.0641C15.478 16.8768 14.393 17.3333 13.2617 17.3333C12.1304 17.3333 11.0454 16.8768 10.2455 16.0641C9.44551 15.2515 8.99609 14.1493 8.99609 13Z" fill="#1ABCFE"/>
<path d="M0.464844 21.6667C0.464844 20.5174 0.914256 19.4152 1.71422 18.6025C2.51418 17.7899 3.59915 17.3333 4.73047 17.3333H8.99609V21.6667C8.99609 22.8159 8.54668 23.9181 7.74672 24.7308C6.94676 25.5435 5.86178 26 4.73047 26C3.59915 26 2.51418 25.5435 1.71422 24.7308C0.914256 23.9181 0.464844 22.8159 0.464844 21.6667Z" fill="#0ACF83"/>
<path d="M8.99609 0V8.66667H13.2617C14.393 8.66667 15.478 8.21012 16.278 7.39746C17.0779 6.5848 17.5273 5.4826 17.5273 4.33333C17.5273 3.18406 17.0779 2.08186 16.278 1.2692C15.478 0.456546 14.393 0 13.2617 0H8.99609Z" fill="#FF7262"/>
<path d="M0.464844 4.33333C0.464844 5.4826 0.914256 6.5848 1.71422 7.39746C2.51418 8.21012 3.59915 8.66667 4.73047 8.66667H8.99609V0H4.73047C3.59915 0 2.51418 0.456546 1.71422 1.2692C0.914256 2.08186 0.464844 3.18406 0.464844 4.33333Z" fill="#F24E1E"/>
<path d="M0.464844 13C0.464844 14.1493 0.914256 15.2515 1.71422 16.0641C2.51418 16.8768 3.59915 17.3333 4.73047 17.3333H8.99609V8.66667H4.73047C3.59915 8.66667 2.51418 9.12321 1.71422 9.93587C0.914256 10.7485 0.464844 11.8507 0.464844 13Z" fill="#A259FF"/>
</svg>
