<svg width="25" height="30" viewBox="0 0 25 30" fill="none" xmlns="http://www.w3.org/2000/svg">
<path d="M7.92653 29.1377C9.17856 29.6429 10.5369 29.9427 11.9631 29.9926C13.8933 30.0602 15.7288 29.6601 17.3697 28.9001C15.4019 28.125 13.6199 26.9916 12.099 25.5822C11.1131 27.1649 9.65489 28.4149 7.92653 29.1377Z" fill="#FF9100"/>
<path d="M12.099 25.5822C8.62714 22.363 6.52071 17.704 6.69871 12.5934C6.70449 12.4274 6.71322 12.2616 6.72344 12.0958C6.10165 11.9345 5.45251 11.8362 4.78447 11.8128C3.82825 11.7793 2.90223 11.8982 2.02798 12.145C1.1012 13.7727 0.541913 15.6403 0.472239 17.6406C0.292427 22.8032 3.40878 27.3135 7.92653 29.1377C9.65489 28.4149 11.113 27.1663 12.099 25.5822Z" fill="#FFC400"/>
<path d="M12.099 25.5822C12.9061 24.2871 13.3954 22.7692 13.4524 21.1334C13.6023 16.8303 10.7168 13.1287 6.72344 12.0958C6.71322 12.2616 6.70449 12.4274 6.69871 12.5934C6.52071 17.704 8.62714 22.363 12.099 25.5822Z" fill="#FF9100"/>
<path d="M13.0058 0C10.7314 1.82677 8.93547 4.23553 7.84888 7.01035C7.22679 8.59974 6.83586 10.307 6.72172 12.0966C10.7151 13.1296 13.6004 16.8312 13.4505 21.1343C13.3935 22.7701 12.9027 24.287 12.097 25.5836C13.6178 26.9943 15.4 28.1264 17.3677 28.9014C21.3172 27.0711 24.1194 23.1323 24.2818 18.4737C24.3868 15.4552 23.2301 12.7651 21.5956 10.4944C19.8696 8.0929 13.0058 0 13.0058 0Z" fill="#DD2C00"/>
</svg>
