<svg width="30" height="20" viewBox="0 0 30 20" fill="none" xmlns="http://www.w3.org/2000/svg">
<path d="M14.9648 0.369676C7.10515 0.369676 0.729926 4.43568 0.729926 9.43898C0.729926 14.4423 7.10515 18.9043 14.9648 18.9043C22.8245 18.9043 29.1998 14.4555 29.1998 9.43898C29.1998 4.42248 22.8245 0.369676 14.9648 0.369676Z" fill="#00BCFF"/>
<path d="M10.3259 6.64026C10.3126 6.65346 10.1801 6.79867 10.2729 6.91749C10.4982 7.19471 11.1742 7.35313 11.8634 7.20792C12.2743 7.11551 12.7912 6.70627 13.3081 6.29703C13.8647 5.86138 14.4082 5.42574 14.9516 5.25412C15.5348 5.0693 15.9059 5.14851 16.1577 5.22772C16.4228 5.30693 16.7409 5.49174 17.2578 5.86138C18.2121 6.57425 22.0425 9.91419 22.7185 10.4818C23.2487 10.2442 25.7935 9.21452 29.0142 8.51485C28.7359 6.79868 27.702 5.17491 26.1115 3.89438C23.8981 4.81848 21.022 5.37293 18.3711 4.0924C18.3579 4.0924 16.9265 3.41914 15.5215 3.44554C13.4274 3.49835 12.5128 4.39604 11.5585 5.35973L10.3259 6.64026Z" fill="white"/>
<path d="M22.5462 10.8383C22.5064 10.7987 18.0398 6.90429 17.0192 6.15182C16.4361 5.71617 16.1047 5.59736 15.7601 5.55776C15.5878 5.53135 15.336 5.57096 15.1637 5.61056C14.6865 5.74257 14.0768 6.15182 13.5334 6.57426C12.9635 7.0231 12.4333 7.44555 11.9429 7.55116C11.3067 7.69637 10.538 7.52475 10.1801 7.28713C10.0343 7.19472 9.94154 7.07591 9.88852 6.9703C9.75598 6.66667 9.99455 6.42904 10.0343 6.38944L11.2669 5.05611C11.4127 4.91089 11.5585 4.76568 11.7043 4.63366C11.3067 4.68647 10.9356 4.79208 10.5777 4.88449C10.1271 5.0033 9.70296 5.12211 9.26558 5.12211C9.08002 5.12211 8.11247 4.9637 7.92691 4.91089C6.81357 4.60726 5.54117 4.31683 4.08322 3.63036C2.33368 4.92409 1.19382 6.52145 0.849216 8.31683C1.10104 8.38284 1.76375 8.52805 1.93605 8.56766C5.89903 9.45214 7.13167 10.3498 7.35699 10.5347C7.59556 10.2706 7.95342 10.099 8.33779 10.099C8.77518 10.099 9.1728 10.3234 9.41137 10.6535C9.63669 10.4686 9.95479 10.3234 10.3524 10.3234C10.538 10.3234 10.7235 10.363 10.9223 10.4158C11.373 10.5743 11.5983 10.8647 11.7176 11.1287C11.8634 11.0627 12.0489 11.0099 12.2743 11.0099C12.4863 11.0099 12.7116 11.0627 12.937 11.1551C13.6659 11.4719 13.7852 12.1848 13.719 12.7261C13.772 12.7261 13.825 12.7129 13.878 12.7129C14.7395 12.7129 15.4552 13.4125 15.4552 14.2838C15.4552 14.5479 15.389 14.7987 15.2697 15.0231C15.5083 15.1551 16.1047 15.4587 16.6349 15.3927C17.059 15.3399 17.218 15.1947 17.2711 15.1155C17.3108 15.0627 17.3506 14.9967 17.3108 14.9439L16.1975 13.703C16.1975 13.703 16.0119 13.5314 16.0782 13.4653C16.1445 13.3993 16.2505 13.4918 16.33 13.5578C16.8999 14.033 17.5892 14.7459 17.5892 14.7459C17.6024 14.7591 17.6422 14.8383 17.9073 14.8911C18.1326 14.9307 18.517 14.9043 18.7953 14.6799C18.8616 14.6271 18.9278 14.5479 18.9941 14.4818L18.9808 14.4951C19.2724 14.1254 18.9543 13.7558 18.9543 13.7558L17.6422 12.2904C17.6422 12.2904 17.4566 12.1188 17.5229 12.0528C17.5759 11.9868 17.6952 12.0792 17.788 12.1452C18.1988 12.4884 18.782 13.0693 19.352 13.6238C19.458 13.703 19.9484 14.0066 20.6111 13.5842C21.0087 13.3201 21.0882 13.0033 21.075 12.7657C21.0485 12.4488 20.7967 12.2244 20.7967 12.2244L19.0074 10.4422C19.0074 10.4422 18.8218 10.2838 18.8881 10.2046C18.9411 10.1386 19.0604 10.231 19.1399 10.297C19.7098 10.7723 21.2473 12.1716 21.2473 12.1716C21.2738 12.1848 21.804 12.5677 22.4534 12.1452C22.692 12 22.8378 11.7756 22.851 11.5116C22.8643 11.1023 22.5462 10.8383 22.5462 10.8383Z" fill="white"/>
<path d="M13.8913 13.0957C13.6129 13.0957 13.3081 13.2542 13.2683 13.2278C13.2418 13.2146 13.2816 13.1089 13.3081 13.0429C13.3346 12.9769 13.6924 11.8944 12.8177 11.5116C12.1417 11.2212 11.7176 11.5512 11.585 11.6964C11.5453 11.736 11.532 11.736 11.532 11.6832C11.5188 11.4852 11.426 10.9571 10.8428 10.7723C10.0078 10.5215 9.46439 11.1023 9.33184 11.3136C9.26557 10.8383 8.86795 10.4687 8.37755 10.4687C7.83413 10.4687 7.41 10.9043 7.39674 11.4324C7.39674 11.9736 7.83413 12.3961 8.36429 12.3961C8.62938 12.3961 8.86795 12.2905 9.04025 12.132C9.04025 12.132 9.05351 12.1453 9.04025 12.1585C9.00049 12.3961 8.92097 13.2674 9.8355 13.6238C10.2066 13.769 10.5115 13.6634 10.7765 13.4786C10.8561 13.4258 10.8693 13.4522 10.8561 13.5182C10.8163 13.7426 10.8693 14.2179 11.5453 14.4951C12.0622 14.7063 12.367 14.4951 12.5658 14.3103C12.6586 14.2311 12.6719 14.2443 12.6851 14.3631C12.7116 15.0099 13.2551 15.5248 13.9045 15.5248C14.5805 15.5248 15.1239 14.9835 15.1239 14.3103C15.1106 13.6502 14.5672 13.1089 13.8913 13.0957Z" fill="white"/>
<path d="M14.9648 0C6.95936 0 0.464844 4.23762 0.464844 9.45215C0.464844 9.58416 0.464844 9.9538 0.464844 10.0066C0.464844 15.5248 6.1376 20 14.9648 20C23.7921 20 29.4648 15.5248 29.4648 10.0066V9.45215C29.4648 4.23762 22.9703 0 14.9648 0ZM28.8021 8.39604C25.6477 9.09571 23.3017 10.1122 22.7052 10.363C21.3268 9.16172 18.1458 6.41584 17.2843 5.76898C16.7939 5.39934 16.4626 5.20132 16.1577 5.12211C16.0252 5.08251 15.8396 5.04291 15.601 5.04291C15.3757 5.04291 15.1504 5.08251 14.8986 5.16172C14.3419 5.33333 13.7852 5.78218 13.2551 6.20462V6.21782C12.7514 6.61386 12.2345 7.0231 11.8501 7.11551C11.6778 7.15511 11.5055 7.16832 11.3332 7.16832C10.8958 7.16832 10.4982 7.0363 10.3524 6.85148C10.3259 6.82508 10.3392 6.77228 10.4054 6.69307L10.4187 6.67987L11.6248 5.38614C12.5791 4.43565 13.4671 3.55116 15.5348 3.49835C15.5745 3.49835 15.601 3.49835 15.6408 3.49835C16.9265 3.49835 18.2121 4.06601 18.3446 4.13202C19.5508 4.71287 20.7834 5.0165 22.0425 5.0165C23.3414 5.0165 24.6801 4.69967 26.085 4.05281C27.5297 5.29373 28.5105 6.78548 28.8021 8.39604ZM14.9648 0.554457C19.2194 0.554457 23.0233 1.76898 25.5814 3.68317C24.3488 4.21122 23.1691 4.48845 22.0293 4.48845C20.8629 4.48845 19.6966 4.21122 18.57 3.65677C18.5169 3.63036 17.0988 2.95709 15.6143 2.95709C15.5745 2.95709 15.5348 2.95709 15.495 2.95709C13.7587 2.9967 12.7912 3.60396 12.1285 4.14521C11.4923 4.15841 10.9356 4.31683 10.4452 4.44885C10.0078 4.56766 9.63669 4.67327 9.26558 4.67327C9.11978 4.67327 8.84144 4.66007 8.81494 4.66007C8.3908 4.64687 6.27015 4.13201 4.57362 3.49835C7.14492 1.68977 10.8428 0.554457 14.9648 0.554457ZM4.09647 3.86799C5.85927 4.59406 8.00643 5.14852 8.69565 5.18812C8.88121 5.20132 9.08002 5.22772 9.29208 5.22772C9.74272 5.22772 10.1934 5.09571 10.6307 4.9769C10.8826 4.91089 11.1742 4.83168 11.4658 4.76568C11.3862 4.84489 11.3067 4.92409 11.2272 5.0033L9.99455 6.32343C9.90177 6.41584 9.68971 6.67987 9.82225 6.9967C9.87526 7.12871 9.99455 7.24753 10.1403 7.35314C10.4319 7.55116 10.9621 7.68317 11.4392 7.68317C11.6248 7.68317 11.7971 7.66997 11.9562 7.63037C12.4731 7.51155 13.0165 7.08911 13.5864 6.62706C14.0371 6.27063 14.6865 5.80858 15.1902 5.67657C15.336 5.63696 15.495 5.61056 15.6408 5.61056C15.6806 5.61056 15.7203 5.61056 15.7601 5.62376C16.0914 5.66337 16.4095 5.78218 16.9662 6.20462C17.9735 6.9571 22.4402 10.8515 22.4799 10.8911C22.4799 10.8911 22.7715 11.1419 22.745 11.5512C22.7318 11.7756 22.6125 11.9736 22.3871 12.1188C22.2016 12.2376 22.0028 12.3036 21.804 12.3036C21.4991 12.3036 21.3003 12.1584 21.2871 12.1584C21.2738 12.1452 19.7363 10.7459 19.1797 10.2706C19.0869 10.1914 19.0073 10.1254 18.9146 10.1254C18.8616 10.1254 18.8218 10.1518 18.7953 10.1782C18.7025 10.2838 18.8085 10.4422 18.9278 10.5347L20.7171 12.33C20.7171 12.33 20.9424 12.5413 20.969 12.8185C20.9822 13.1089 20.8364 13.3597 20.5448 13.5578C20.3328 13.703 20.1207 13.769 19.9086 13.769C19.6303 13.769 19.4447 13.6502 19.405 13.6106L19.1531 13.3597C18.6892 12.8977 18.1988 12.4224 17.841 12.132C17.7482 12.066 17.6687 12 17.5759 12C17.5361 12 17.4964 12.0132 17.4566 12.0528C17.4169 12.0924 17.3903 12.1716 17.4831 12.3168C17.5229 12.3696 17.5759 12.4224 17.5759 12.4224L18.8748 13.8878C18.8881 13.901 19.1399 14.2046 18.9013 14.5083L18.8483 14.5611C18.8085 14.6007 18.7688 14.6403 18.729 14.6799C18.5037 14.8647 18.2121 14.8779 18.0928 14.8779C18.0265 14.8779 17.9735 14.8779 17.9205 14.8647C17.788 14.8383 17.7084 14.8119 17.6687 14.7591L17.6554 14.7459C17.5892 14.6667 16.9265 14.0066 16.383 13.5578C16.3168 13.4918 16.224 13.4257 16.1312 13.4257C16.0914 13.4257 16.0517 13.4389 16.0119 13.4785C15.9059 13.5974 16.0649 13.769 16.1312 13.835L17.2446 15.0627C17.2446 15.0759 17.2313 15.1023 17.2048 15.1419C17.165 15.1947 17.0325 15.3267 16.6216 15.3795C16.5686 15.3795 16.5288 15.3927 16.4758 15.3927C16.0649 15.3927 15.6143 15.1947 15.389 15.0759C15.495 14.8515 15.548 14.6139 15.548 14.3762C15.548 13.4653 14.8058 12.7261 13.8913 12.7261C13.878 12.7261 13.8515 12.7261 13.8382 12.7261C13.8648 12.3036 13.8117 11.5248 12.99 11.1683C12.7514 11.0627 12.5261 11.0099 12.3008 11.0099C12.1285 11.0099 11.9562 11.0363 11.7971 11.1023C11.6248 10.7723 11.3465 10.5347 10.9886 10.4158C10.7898 10.3498 10.591 10.3102 10.3922 10.3102C10.0476 10.3102 9.74272 10.4158 9.46439 10.6007C9.1993 10.2706 8.80168 10.0726 8.37755 10.0726C8.00643 10.0726 7.64857 10.2178 7.38349 10.4818C7.03888 10.2178 5.66046 9.34653 1.98907 8.51485C1.81676 8.47525 1.41914 8.35644 1.16731 8.29043C1.48541 6.61386 2.53249 5.10891 4.09647 3.86799ZM10.9091 13.4125L10.8693 13.3729H10.8296C10.8031 13.3729 10.7633 13.3861 10.7235 13.4125C10.538 13.5446 10.3524 13.6106 10.1801 13.6106C10.0741 13.6106 9.9813 13.5842 9.87526 13.5578C9.027 13.2277 9.09327 12.4224 9.13303 12.1848C9.13303 12.132 9.13303 12.0924 9.09327 12.066L9.027 12.0132L8.97398 12.066C8.80168 12.2244 8.58961 12.3168 8.3643 12.3168C7.87389 12.3168 7.47627 11.9208 7.47627 11.4323C7.47627 10.9439 7.87389 10.5479 8.3643 10.5479C8.80168 10.5479 9.18605 10.8779 9.23907 11.3135L9.26558 11.5512L9.39812 11.3531C9.41137 11.3267 9.76923 10.7855 10.4319 10.7855C10.5512 10.7855 10.6838 10.8119 10.8163 10.8515C11.3465 11.0099 11.426 11.4851 11.4392 11.6832C11.4525 11.802 11.532 11.802 11.5453 11.802C11.585 11.802 11.6248 11.7756 11.6513 11.7492C11.7441 11.6436 11.9694 11.4719 12.3008 11.4719C12.4598 11.4719 12.6189 11.5116 12.7912 11.5776C13.6262 11.934 13.2418 12.9901 13.2418 13.0033C13.1755 13.1749 13.1623 13.2541 13.2286 13.2937L13.2551 13.3069H13.2816C13.3213 13.3069 13.3611 13.2937 13.4406 13.2673C13.5599 13.2277 13.719 13.1749 13.8913 13.1749C14.5142 13.1881 15.0311 13.6898 15.0311 14.3102C15.0311 14.9307 14.5142 15.4455 13.8913 15.4455C13.2816 15.4455 12.7779 14.9703 12.7514 14.363C12.7514 14.3102 12.7382 14.1782 12.6321 14.1782C12.5791 14.1782 12.5393 14.2046 12.4996 14.2442C12.367 14.363 12.1947 14.4951 11.9429 14.4951C11.8236 14.4951 11.7043 14.4686 11.5718 14.4158C10.9223 14.1518 10.9091 13.7162 10.9356 13.5314C10.9356 13.4917 10.9488 13.4521 10.9091 13.4125ZM14.9648 18.3234C7.2642 18.3234 1.02152 14.3498 1.02152 9.43894C1.02152 9.24092 1.03477 9.0429 1.06128 8.84488C1.12755 8.85809 1.73724 9.0033 1.85653 9.0297C5.60744 9.86139 6.85333 10.7195 7.06539 10.8911C6.99912 11.0627 6.95936 11.2475 6.95936 11.4323C6.95936 12.2112 7.59556 12.8317 8.3643 12.8317C8.45707 12.8317 8.5366 12.8185 8.62938 12.8053C8.74866 13.3729 9.11978 13.8086 9.68971 14.033C9.86201 14.099 10.0211 14.1254 10.1934 14.1254C10.2994 14.1254 10.4054 14.1122 10.5115 14.0858C10.6175 14.3498 10.8561 14.6799 11.3862 14.9043C11.5718 14.9835 11.7573 15.0231 11.9429 15.0231C12.0887 15.0231 12.2345 14.9967 12.367 14.9439C12.6189 15.5644 13.2286 15.9736 13.9045 15.9736C14.3552 15.9736 14.7793 15.7888 15.0974 15.4719C15.3625 15.6172 15.9324 15.8944 16.5023 15.8944C16.5818 15.8944 16.6481 15.8944 16.7144 15.8812C17.2843 15.8152 17.5494 15.5908 17.6687 15.4191C17.6952 15.3927 17.7084 15.3531 17.7217 15.3267C17.8542 15.3663 18 15.3927 18.1723 15.3927C18.4772 15.3927 18.782 15.2871 19.0869 15.0759C19.3785 14.8647 19.5905 14.5611 19.617 14.297V14.2838C19.7231 14.3102 19.8158 14.3102 19.9219 14.3102C20.24 14.3102 20.5581 14.2178 20.8497 14.0198C21.4329 13.637 21.5256 13.1485 21.5256 12.8317C21.6317 12.8581 21.7244 12.8581 21.8305 12.8581C22.1353 12.8581 22.4269 12.7657 22.7052 12.5941C23.0631 12.3696 23.2752 12.0132 23.3149 11.604C23.3414 11.3267 23.2619 11.0495 23.1161 10.8119C24.0837 10.4026 26.2971 9.59736 28.8949 9.0033C28.9082 9.14852 28.9082 9.29373 28.9082 9.45215C28.9082 14.3498 22.6655 18.3234 14.9648 18.3234Z" fill="#0A0080"/>
</svg>
