<svg width="24" height="24" viewBox="0 0 24 24" fill="none" xmlns="http://www.w3.org/2000/svg">
<path fill-rule="evenodd" clip-rule="evenodd" d="M0.764893 4.33421C0.764893 2.10608 2.48811 0.299805 4.61379 0.299805H19.2396C21.3653 0.299805 23.0885 2.10608 23.0885 4.33421V17.373C23.0885 19.6781 20.3056 20.6786 18.9559 18.8586L14.7364 13.169V20.0684C14.7364 22.0738 13.1855 23.6994 11.2724 23.6994H4.61379C2.48811 23.6994 0.764893 21.8932 0.764893 19.665V4.33421ZM4.61379 3.52734C4.18865 3.52734 3.84401 3.88858 3.84401 4.33421V19.665C3.84401 20.1106 4.18865 20.4719 4.61379 20.4719H11.3879C11.6004 20.4719 11.6573 20.2912 11.6573 20.0684V10.8164C11.6573 8.51129 14.4401 7.51084 15.7899 9.33077L20.0094 15.0204V4.33421C20.0094 3.88858 20.0496 3.52734 19.6245 3.52734H4.61379Z" fill="#00E0D9"/>
<path fill-rule="evenodd" clip-rule="evenodd" d="M0.764893 4.33421C0.764893 2.10608 2.48811 0.299805 4.61379 0.299805H19.2396C21.3653 0.299805 23.0885 2.10608 23.0885 4.33421V17.373C23.0885 19.6781 20.3056 20.6786 18.9559 18.8586L14.7364 13.169V20.0684C14.7364 22.0738 13.1855 23.6994 11.2724 23.6994H4.61379C2.48811 23.6994 0.764893 21.8932 0.764893 19.665V4.33421ZM4.61379 3.52734C4.18865 3.52734 3.84401 3.88858 3.84401 4.33421V19.665C3.84401 20.1106 4.18865 20.4719 4.61379 20.4719H11.3879C11.6004 20.4719 11.6573 20.2912 11.6573 20.0684V10.8164C11.6573 8.51129 14.4401 7.51084 15.7899 9.33077L20.0094 15.0204V4.33421C20.0094 3.88858 20.0496 3.52734 19.6245 3.52734H4.61379Z" fill="url(#paint0_linear_69_552)"/>
<path fill-rule="evenodd" clip-rule="evenodd" d="M0.764893 4.33421C0.764893 2.10608 2.48811 0.299805 4.61379 0.299805H19.2396C21.3653 0.299805 23.0885 2.10608 23.0885 4.33421V17.373C23.0885 19.6781 20.3056 20.6786 18.9559 18.8586L14.7364 13.169V20.0684C14.7364 22.0738 13.1855 23.6994 11.2724 23.6994H4.61379C2.48811 23.6994 0.764893 21.8932 0.764893 19.665V4.33421ZM4.61379 3.52734C4.18865 3.52734 3.84401 3.88858 3.84401 4.33421V19.665C3.84401 20.1106 4.18865 20.4719 4.61379 20.4719H11.3879C11.6004 20.4719 11.6573 20.2912 11.6573 20.0684V10.8164C11.6573 8.51129 14.4401 7.51084 15.7899 9.33077L20.0094 15.0204V4.33421C20.0094 3.88858 20.0496 3.52734 19.6245 3.52734H4.61379Z" fill="url(#paint1_linear_69_552)" fill-opacity="0.4"/>
<path d="M19.2396 0.299805C21.3653 0.299805 23.0885 2.10608 23.0885 4.33421V17.373C23.0885 19.6781 20.3056 20.6786 18.9559 18.8586L14.7364 13.169V20.0684C14.7364 22.0738 13.1855 23.6994 11.2724 23.6994C11.485 23.6994 11.6574 23.5187 11.6574 23.2959L11.6573 10.8164C11.6573 8.51129 14.4401 7.51084 15.7899 9.33077L20.0094 15.0204V1.10669C20.0094 0.661062 19.6647 0.299805 19.2396 0.299805Z" fill="#63F655"/>
<defs>
<linearGradient id="paint0_linear_69_552" x1="23.0885" y1="23.6994" x2="2.41138" y2="1.26551" gradientUnits="userSpaceOnUse">
<stop stop-color="#62F755"/>
<stop offset="1" stop-color="#8FF986" stop-opacity="0"/>
</linearGradient>
<linearGradient id="paint1_linear_69_552" x1="23.0885" y1="23.6994" x2="9.67062" y2="18.7203" gradientUnits="userSpaceOnUse">
<stop stop-opacity="0.9"/>
<stop offset="1" stop-color="#1A1A1A" stop-opacity="0"/>
</linearGradient>
</defs>
</svg>
