<svg width="30" height="29" viewBox="0 0 30 29" fill="none" xmlns="http://www.w3.org/2000/svg">
<path d="M14.0152 0.007804C13.9528 0.0134728 13.7544 0.0333134 13.5758 0.0474854C9.45683 0.41879 5.59867 2.64095 3.15507 6.05638C1.79436 7.95541 0.924081 10.1095 0.595245 12.3912C0.479018 13.1877 0.464844 13.4229 0.464844 14.5028C0.464844 15.5827 0.479018 15.818 0.595245 16.6145C1.38332 22.0593 5.25849 26.634 10.5142 28.329C11.4554 28.6322 12.4475 28.8391 13.5758 28.9639C14.0152 29.012 15.9145 29.012 16.3539 28.9639C18.3014 28.7484 19.9513 28.2666 21.5784 27.4361C21.8279 27.3086 21.8761 27.2746 21.8421 27.2462C21.8194 27.2292 20.7563 25.8035 19.4807 24.0802L17.1618 20.9482L14.2561 16.6485C12.6573 14.2846 11.342 12.3515 11.3306 12.3515C11.3193 12.3487 11.308 14.2591 11.3023 16.5918C11.2938 20.6761 11.2909 20.8405 11.2399 20.9369C11.1662 21.0758 11.1095 21.1325 10.9905 21.1948C10.8997 21.2402 10.8204 21.2487 10.3923 21.2487H9.90189L9.77149 21.1665C9.68645 21.1126 9.62408 21.0418 9.58156 20.9596L9.52203 20.832L9.5362 9.46331L9.62408 9.35276C9.66944 9.29324 9.76582 9.21671 9.83386 9.17987C9.95008 9.12318 9.99544 9.11751 10.4859 9.11751C11.0642 9.11751 11.1605 9.14019 11.3108 9.30458C11.3533 9.34993 12.9266 11.7195 14.8089 14.5737C16.6912 17.4279 19.2652 21.3252 20.5296 23.2384L22.8257 26.7162L22.942 26.6397C23.971 25.9708 25.0596 25.0184 25.9213 24.0264C27.7555 21.9204 28.9376 19.3525 29.3344 16.6145C29.4507 15.818 29.4648 15.5827 29.4648 14.5028C29.4648 13.4229 29.4507 13.1877 29.3344 12.3912C28.5464 6.94637 24.6712 2.37168 19.4155 0.676718C18.4885 0.376274 17.502 0.169364 16.3964 0.044651C16.1243 0.0163072 14.2505 -0.0148711 14.0152 0.007804ZM19.9513 8.77738C20.0873 8.84541 20.1979 8.97579 20.2376 9.11184C20.2603 9.18554 20.2659 10.7615 20.2602 14.3129L20.2517 19.4092L19.3531 18.0316L18.4516 16.6541V12.9496C18.4516 10.5545 18.463 9.20821 18.48 9.14302C18.5254 8.98429 18.6246 8.85958 18.7606 8.78589C18.8769 8.72637 18.9194 8.7207 19.3645 8.7207C19.784 8.7207 19.8577 8.72637 19.9513 8.77738Z" fill="black"/>
<path d="M22.684 26.7785C22.5848 26.8409 22.5536 26.8834 22.6415 26.8352C22.7038 26.7984 22.8059 26.7219 22.7889 26.719C22.7804 26.719 22.7322 26.7474 22.684 26.7785ZM22.4884 26.9061C22.4374 26.9458 22.4374 26.9486 22.4997 26.9174C22.5338 26.9004 22.5621 26.8806 22.5621 26.8749C22.5621 26.8522 22.5479 26.8579 22.4884 26.9061ZM22.3467 26.9911C22.2956 27.0308 22.2956 27.0336 22.358 27.0025C22.392 26.9855 22.4204 26.9656 22.4204 26.96C22.4204 26.9373 22.4062 26.9429 22.3467 26.9911ZM22.2049 27.0762C22.1539 27.1158 22.1539 27.1187 22.2163 27.0875C22.2503 27.0705 22.2786 27.0506 22.2786 27.045C22.2786 27.0223 22.2645 27.028 22.2049 27.0762ZM21.9895 27.1895C21.8818 27.2462 21.8874 27.2689 21.9951 27.215C22.0433 27.1895 22.0802 27.164 22.0802 27.1584C22.0802 27.1385 22.0774 27.1413 21.9895 27.1895Z" fill="black"/>
</svg>
