<svg width="18" height="24" viewBox="0 0 18 24" fill="none" xmlns="http://www.w3.org/2000/svg">
<path d="M7.238 7.24462C7.238 6.19928 8.11064 5.79659 9.50973 5.79659C11.5472 5.79659 14.1328 6.41975 16.1702 7.51683V1.22306C13.9503 0.337447 11.7349 0 9.51424 0C4.08385 0 0.464844 2.83081 0.464844 7.56407C0.464844 14.9647 10.6407 13.7648 10.6407 16.9564C10.6407 18.1937 9.56606 18.5918 8.07309 18.5918C5.85768 18.5918 2.99417 17.6777 0.746464 16.4592V22.4815C3.05875 23.4781 5.54978 23.994 8.06859 24C13.6357 24 17.4702 21.6094 17.4702 16.8011C17.4702 8.82462 7.238 10.2539 7.238 7.24462Z" fill="#6461FC"/>
</svg>
