<svg width="98" height="15" viewBox="0 0 98 15" fill="none" xmlns="http://www.w3.org/2000/svg">
<path fill-rule="evenodd" clip-rule="evenodd" d="M2.10853 3.68168C2.1085 4.20357 2.31601 4.70411 2.68542 5.07317C3.05483 5.44223 3.55588 5.64958 4.07833 5.64962C4.60079 5.64965 5.10186 5.44236 5.47132 5.07335C5.84077 4.70433 6.04835 4.20382 6.04838 3.68193C6.04841 3.16003 5.8409 2.65949 5.47149 2.29043C5.10208 1.92137 4.60104 1.71402 4.07858 1.71398C3.55612 1.71395 3.05505 1.92124 2.6856 2.29026C2.31614 2.65927 2.10856 3.15978 2.10853 3.68168ZM4.07826 6.79222C3.41159 6.7921 2.76256 6.57825 2.22665 6.18212C1.69075 5.78599 1.29627 5.2285 1.10126 4.59167C0.906239 3.95484 0.920982 3.27231 1.14332 2.64448C1.36565 2.01665 1.78384 1.47668 2.33635 1.104C2.88886 0.731335 3.54652 0.545644 4.21257 0.574253C4.87863 0.602862 5.5179 0.84426 6.03635 1.26293C6.5548 1.6816 6.92504 2.25544 7.0926 2.90002C7.26017 3.54459 7.2162 4.22588 6.96718 4.84363L8.1923 5.6613C8.18331 5.68993 8.17483 5.71871 8.16687 5.74763L7.97111 6.44588L7.52245 6.74546L6.25921 5.9024C5.69743 6.45208 4.92723 6.79227 4.07826 6.79222ZM2.10805 11.3181C2.10808 10.7962 2.31566 10.2957 2.68511 9.92665C3.05457 9.55764 3.55564 9.35035 4.0781 9.35038C4.60055 9.35041 5.1016 9.55777 5.47101 9.92683C5.84042 10.2959 6.04793 10.7964 6.0479 11.3183C6.04786 11.8402 5.84029 12.3407 5.47083 12.7097C5.10137 13.0788 4.6003 13.286 4.07785 13.286C3.55539 13.286 3.05435 13.0786 2.68494 12.7096C2.31553 12.3405 2.10801 11.84 2.10805 11.3181ZM4.07817 8.20778C3.41208 8.20781 2.76356 8.42121 2.22786 8.81663C1.69216 9.21205 1.29751 9.76865 1.10189 10.4047C0.906263 11.0407 0.919968 11.7226 1.14099 12.3503C1.36202 12.978 1.77871 13.5183 2.32986 13.8919C2.88102 14.2656 3.53759 14.4528 4.20314 14.4261C4.86869 14.3994 5.50814 14.1603 6.02756 13.7437C6.54699 13.3272 6.91901 12.7553 7.08898 12.1119C7.25896 11.4686 7.21793 10.7878 6.97193 10.1694L19.9651 1.51635L18.7564 1.61589C17.052 1.79494 15.4014 2.3165 13.904 3.14921L9.99575 5.31991C9.84899 5.4018 9.71994 5.51196 9.61609 5.64401C9.51224 5.77607 9.43565 5.92739 9.39075 6.08922L9.06913 7.23942L6.26918 9.1093C5.68695 8.53115 4.89912 8.20699 4.07817 8.20778ZM9.98023 9.68719L9.99548 9.69608L13.9034 11.8673C15.4008 12.7002 17.0513 13.2219 18.7557 13.4012L18.5811 12.5433L16.9296 11.5071L12.0977 8.27177L9.98023 9.68719Z" fill="#D9D9D9"/>
<path d="M18.352 13.5712C18.2526 13.5712 18.1632 13.5312 18.0836 13.4512C18.0041 13.3598 17.9644 13.2512 17.9644 13.1255V2.0169C17.9644 1.89118 18.0041 1.78833 18.0836 1.70833C18.1632 1.6169 18.2526 1.57118 18.352 1.57118H23.1079C24.0123 1.57118 24.7528 1.70833 25.3292 1.98261C25.9057 2.2569 26.3331 2.65118 26.6114 3.16547C26.8897 3.67975 27.0288 4.31404 27.0288 5.06833C27.0288 5.4569 26.9593 5.80547 26.8201 6.11404C26.6909 6.41118 26.5319 6.66261 26.343 6.86833C26.1542 7.06261 25.9753 7.20547 25.8063 7.2969C26.1939 7.49118 26.5319 7.82261 26.8201 8.29118C27.1083 8.74833 27.2525 9.27404 27.2525 9.86833C27.2525 10.6683 27.0934 11.3426 26.7754 11.8912C26.4673 12.4398 26.015 12.8569 25.4187 13.1426C24.8323 13.4283 24.1117 13.5712 23.2569 13.5712H18.352ZM21.1697 10.9826H22.914C23.252 10.9826 23.5004 10.8683 23.6595 10.6398C23.8185 10.3998 23.898 10.1369 23.898 9.85118C23.898 9.55404 23.8135 9.2969 23.6446 9.07975C23.4756 8.85118 23.2321 8.7369 22.914 8.7369H21.1697V10.9826ZM21.1697 6.2169H22.765C23.083 6.2169 23.3166 6.11404 23.4657 5.90833C23.6147 5.70261 23.6893 5.46261 23.6893 5.18833C23.6893 4.91404 23.6147 4.67404 23.4657 4.46833C23.3166 4.26261 23.083 4.15975 22.765 4.15975H21.1697V6.2169Z" fill="#D9D9D9"/>
<path d="M26.6413 13.5712C26.5519 13.5712 26.4724 13.5369 26.4028 13.4683C26.3431 13.3883 26.3133 13.2969 26.3133 13.194C26.3133 13.1483 26.3233 13.1083 26.3431 13.074L29.7423 2.10261C29.7721 1.9769 29.8367 1.8569 29.9361 1.74261C30.0455 1.62833 30.1896 1.57118 30.3685 1.57118H33.0968C33.2856 1.57118 33.4297 1.62833 33.5291 1.74261C33.6285 1.8569 33.6931 1.9769 33.7229 2.10261L37.137 13.074C37.1469 13.1083 37.1519 13.1483 37.1519 13.194C37.1519 13.2969 37.1171 13.3883 37.0476 13.4683C36.9879 13.5369 36.9134 13.5712 36.8239 13.5712H34.528C34.359 13.5712 34.2348 13.5255 34.1553 13.434C34.0758 13.3426 34.0211 13.2569 33.9913 13.1769L33.5291 11.7369H29.9361L29.474 13.1769C29.4441 13.2569 29.3895 13.3426 29.31 13.434C29.2404 13.5255 29.1162 13.5712 28.9373 13.5712H26.6413ZM30.6219 8.83975H32.8433L31.7252 4.98261L30.6219 8.83975Z" fill="#D9D9D9"/>
<path d="M37.187 13.5712C37.0876 13.5712 36.9981 13.5312 36.9186 13.4512C36.8391 13.3598 36.7993 13.2512 36.7993 13.1255V2.0169C36.7993 1.89118 36.8391 1.78833 36.9186 1.70833C36.9981 1.6169 37.0876 1.57118 37.187 1.57118H41.4359C42.7876 1.57118 43.8462 1.92547 44.6115 2.63404C45.3867 3.34261 45.7743 4.33118 45.7743 5.59975C45.7743 6.39975 45.6153 7.07975 45.2973 7.63975C44.9792 8.19975 44.5618 8.63975 44.0449 8.95975L45.9831 13.0055C46.0129 13.074 46.0278 13.1369 46.0278 13.194C46.0278 13.2969 45.998 13.3883 45.9383 13.4683C45.8787 13.5369 45.8042 13.5712 45.7147 13.5712H43.1952C43.0063 13.5712 42.8622 13.5198 42.7628 13.4169C42.6634 13.3026 42.5988 13.1998 42.569 13.1083L41.0781 9.5769H40.0047V13.1255C40.0047 13.2512 39.9649 13.3598 39.8854 13.4512C39.8159 13.5312 39.7264 13.5712 39.6171 13.5712H37.187ZM40.0047 6.74833H41.421C41.7689 6.74833 42.0273 6.63975 42.1963 6.42261C42.3652 6.19404 42.4497 5.91404 42.4497 5.58261C42.4497 5.23975 42.3652 4.94833 42.1963 4.70833C42.0372 4.46833 41.7788 4.34833 41.421 4.34833H40.0047V6.74833Z" fill="#D9D9D9"/>
<path d="M46.3861 13.5712C46.2867 13.5712 46.1972 13.5312 46.1177 13.4512C46.0382 13.3598 45.9984 13.2512 45.9984 13.1255V2.0169C45.9984 1.89118 46.0382 1.78833 46.1177 1.70833C46.1972 1.6169 46.2867 1.57118 46.3861 1.57118H51.1419C52.0464 1.57118 52.7868 1.70833 53.3633 1.98261C53.9398 2.2569 54.3672 2.65118 54.6455 3.16547C54.9238 3.67975 55.0629 4.31404 55.0629 5.06833C55.0629 5.4569 54.9933 5.80547 54.8542 6.11404C54.725 6.41118 54.5659 6.66261 54.3771 6.86833C54.1883 7.06261 54.0094 7.20547 53.8404 7.2969C54.228 7.49118 54.5659 7.82261 54.8542 8.29118C55.1424 8.74833 55.2865 9.27404 55.2865 9.86833C55.2865 10.6683 55.1275 11.3426 54.8095 11.8912C54.5013 12.4398 54.0491 12.8569 53.4528 13.1426C52.8664 13.4283 52.1458 13.5712 51.291 13.5712H46.3861ZM49.2038 10.9826H50.9481C51.286 10.9826 51.5345 10.8683 51.6935 10.6398C51.8526 10.3998 51.9321 10.1369 51.9321 9.85118C51.9321 9.55404 51.8476 9.2969 51.6786 9.07975C51.5097 8.85118 51.2662 8.7369 50.9481 8.7369H49.2038V10.9826ZM49.2038 6.2169H50.799C51.1171 6.2169 51.3506 6.11404 51.4997 5.90833C51.6488 5.70261 51.7234 5.46261 51.7234 5.18833C51.7234 4.91404 51.6488 4.67404 51.4997 4.46833C51.3506 4.26261 51.1171 4.15975 50.799 4.15975H49.2038V6.2169Z" fill="#D9D9D9"/>
<path d="M55.7599 13.5712C55.6605 13.5712 55.571 13.5312 55.4915 13.4512C55.412 13.3598 55.3723 13.2512 55.3723 13.1255V2.0169C55.3723 1.89118 55.412 1.78833 55.4915 1.70833C55.571 1.6169 55.6605 1.57118 55.7599 1.57118H63.0651C63.1744 1.57118 63.2689 1.6169 63.3484 1.70833C63.4279 1.78833 63.4676 1.89118 63.4676 2.0169V4.03975C63.4676 4.15404 63.4279 4.2569 63.3484 4.34833C63.2689 4.43975 63.1744 4.48547 63.0651 4.48547H58.4583V6.18261H62.7371C62.8465 6.18261 62.9409 6.22833 63.0204 6.31975C63.0999 6.39975 63.1397 6.50261 63.1397 6.62833V8.47975C63.1397 8.60547 63.0999 8.71404 63.0204 8.80547C62.9409 8.88547 62.8465 8.92547 62.7371 8.92547H58.4583V10.6569H63.1844C63.2937 10.6569 63.3881 10.7026 63.4676 10.794C63.5472 10.8855 63.5869 10.994 63.5869 11.1198V13.1255C63.5869 13.2512 63.5472 13.3598 63.4676 13.4512C63.3881 13.5312 63.2937 13.5712 63.1844 13.5712H55.7599Z" fill="#D9D9D9"/>
<path d="M64.1582 13.5712C64.0588 13.5712 63.9694 13.5312 63.8899 13.4512C63.8103 13.3598 63.7706 13.2512 63.7706 13.1255V2.0169C63.7706 1.89118 63.8103 1.78833 63.8899 1.70833C63.9694 1.6169 64.0588 1.57118 64.1582 1.57118H68.4072C69.7589 1.57118 70.8174 1.92547 71.5827 2.63404C72.358 3.34261 72.7456 4.33118 72.7456 5.59975C72.7456 6.39975 72.5866 7.07975 72.2685 7.63975C71.9505 8.19975 71.533 8.63975 71.0162 8.95975L72.9543 13.0055C72.9841 13.074 72.999 13.1369 72.999 13.194C72.999 13.2969 72.9692 13.3883 72.9096 13.4683C72.85 13.5369 72.7754 13.5712 72.686 13.5712H70.1664C69.9776 13.5712 69.8334 13.5198 69.734 13.4169C69.6347 13.3026 69.5701 13.1998 69.5402 13.1083L68.0494 9.5769H66.976V13.1255C66.976 13.2512 66.9362 13.3598 66.8567 13.4512C66.7871 13.5312 66.6977 13.5712 66.5883 13.5712H64.1582ZM66.976 6.74833H68.3923C68.7401 6.74833 68.9986 6.63975 69.1675 6.42261C69.3365 6.19404 69.421 5.91404 69.421 5.58261C69.421 5.23975 69.3365 4.94833 69.1675 4.70833C69.0085 4.46833 68.7501 4.34833 68.3923 4.34833H66.976V6.74833Z" fill="#D9D9D9"/>
<path d="M72.6417 13.5712C72.5622 13.5712 72.4926 13.5369 72.433 13.4683C72.3733 13.3998 72.3435 13.3198 72.3435 13.2283C72.3435 13.1712 72.3485 13.1083 72.3584 13.0398L76.0558 1.94833C76.0955 1.83404 76.1502 1.74261 76.2198 1.67404C76.2894 1.60547 76.3937 1.57118 76.5329 1.57118H77.5466C77.6759 1.57118 77.7752 1.60547 77.8448 1.67404C77.9243 1.74261 77.984 1.83404 78.0237 1.94833L81.7062 13.0398C81.726 13.1083 81.736 13.1712 81.736 13.2283C81.736 13.3198 81.7062 13.3998 81.6465 13.4683C81.5869 13.5369 81.5173 13.5712 81.4378 13.5712H80.6775C80.5582 13.5712 80.4687 13.5369 80.4091 13.4683C80.3594 13.3998 80.3246 13.3369 80.3047 13.2798L79.4848 10.8455H74.5947L73.7748 13.2798C73.7648 13.3369 73.73 13.3998 73.6704 13.4683C73.6108 13.5369 73.5213 13.5712 73.402 13.5712H72.6417ZM75.0271 9.37118H79.0524L77.0397 3.28547L75.0271 9.37118Z" fill="#D9D9D9"/>
<path d="M82.3312 13.5712C82.2218 13.5712 82.1373 13.5369 82.0777 13.4683C82.0181 13.3883 81.9883 13.2912 81.9883 13.1769V1.98261C81.9883 1.8569 82.0181 1.75975 82.0777 1.69118C82.1373 1.61118 82.2218 1.57118 82.3312 1.57118H86.118C86.8534 1.57118 87.4895 1.70833 88.0263 1.98261C88.5729 2.2569 88.9953 2.66833 89.2935 3.2169C89.5917 3.75404 89.7407 4.42833 89.7407 5.23975C89.7407 6.05118 89.5917 6.72547 89.2935 7.26261C88.9953 7.79975 88.5729 8.20547 88.0263 8.47975C87.4895 8.75404 86.8534 8.89118 86.118 8.89118H83.4791V13.1769C83.4791 13.2912 83.4443 13.3883 83.3748 13.4683C83.3151 13.5369 83.2306 13.5712 83.1213 13.5712H82.3312ZM83.4642 7.45118H86.0434C86.7789 7.45118 87.3305 7.26261 87.6983 6.88547C88.066 6.50833 88.2499 5.95975 88.2499 5.23975C88.2499 4.53118 88.071 3.98261 87.7132 3.59404C87.3554 3.20547 86.7988 3.01118 86.0434 3.01118H83.4642V7.45118Z" fill="#D9D9D9"/>
<path d="M90.5548 13.5712C90.4454 13.5712 90.361 13.5369 90.3013 13.4683C90.2417 13.3883 90.2119 13.2912 90.2119 13.1769V1.98261C90.2119 1.8569 90.2417 1.75975 90.3013 1.69118C90.361 1.61118 90.4454 1.57118 90.5548 1.57118H94.3416C95.0771 1.57118 95.7132 1.70833 96.2499 1.98261C96.7965 2.2569 97.2189 2.66833 97.5171 3.2169C97.8153 3.75404 97.9644 4.42833 97.9644 5.23975C97.9644 6.05118 97.8153 6.72547 97.5171 7.26261C97.2189 7.79975 96.7965 8.20547 96.2499 8.47975C95.7132 8.75404 95.0771 8.89118 94.3416 8.89118H91.7028V13.1769C91.7028 13.2912 91.668 13.3883 91.5984 13.4683C91.5388 13.5369 91.4543 13.5712 91.3449 13.5712H90.5548ZM91.6878 7.45118H94.267C95.0025 7.45118 95.5541 7.26261 95.9219 6.88547C96.2896 6.50833 96.4735 5.95975 96.4735 5.23975C96.4735 4.53118 96.2946 3.98261 95.9368 3.59404C95.579 3.20547 95.0224 3.01118 94.267 3.01118H91.6878V7.45118Z" fill="#D9D9D9"/>
</svg>
