<svg width="229" height="199" viewBox="0 0 229 199" fill="none" xmlns="http://www.w3.org/2000/svg">
<g clip-path="url(#clip0_17_169)">
<path d="M210.349 128.714L42.5966 171.686C38.3699 172.771 34.0671 170.219 32.9829 165.989L4.26049 53.6965C3.17631 49.4662 5.72584 45.1597 9.95246 44.0746L177.713 1.10229C181.94 0.0171752 186.242 2.56889 187.327 6.79915L216.041 119.092C217.125 123.322 214.575 127.628 210.349 128.714Z" fill="white"/>
<path d="M40.6315 172.788C36.7352 172.788 33.1693 170.151 32.1613 166.201L3.4389 53.8999C2.86292 51.6364 3.19326 49.2796 4.38756 47.2705C5.58186 45.2613 7.47918 43.8286 9.74072 43.2522L177.501 0.279904C179.763 -0.305041 182.118 0.0340572 184.125 1.22938C186.132 2.4247 187.564 4.32365 188.14 6.58714L216.854 118.88C217.43 121.143 217.099 123.5 215.905 125.509C214.711 127.518 212.813 128.951 210.552 129.527L42.7999 172.5C42.0714 172.686 41.3515 172.771 40.6315 172.771V172.788ZM179.67 1.69564C179.094 1.69564 178.509 1.76346 177.925 1.91605L10.1642 44.8968C8.33467 45.3631 6.80156 46.516 5.84443 48.1352C4.8873 49.7544 4.61625 51.6533 5.08211 53.4845L33.7961 165.777C34.2619 167.608 35.4139 169.143 37.0317 170.1C38.6495 171.058 40.5468 171.338 42.3764 170.863L210.128 127.891C211.958 127.425 213.491 126.272 214.448 124.653C215.405 123.034 215.685 121.135 215.211 119.303L186.505 7.01101C185.692 3.82348 182.812 1.70412 179.67 1.70412V1.69564Z" fill="#080717"/>
<path d="M15.0346 56.1464C14.34 56.1464 13.6624 55.9599 13.0526 55.6038C12.1547 55.0698 11.5195 54.222 11.2569 53.2132C10.7233 51.1277 11.9853 48.9914 14.069 48.4573C15.0769 48.1945 16.1272 48.3471 17.0251 48.8812C17.9229 49.4153 18.5582 50.263 18.8123 51.2719C19.3459 53.3573 18.0839 55.4936 16.0002 56.0277C15.6783 56.1125 15.348 56.1549 15.0261 56.1549L15.0346 56.1464ZM15.0431 50.0257C14.8567 50.0257 14.6788 50.0511 14.4925 50.0935C13.3151 50.3987 12.5952 51.6025 12.9001 52.7808C13.0441 53.3488 13.4083 53.832 13.9165 54.1372C14.4247 54.4339 15.0177 54.5272 15.5936 54.3746C16.771 54.0694 17.4909 52.8656 17.186 51.6872C17.042 51.1193 16.6778 50.636 16.1696 50.3309C15.8223 50.1274 15.4412 50.0172 15.0431 50.0172V50.0257Z" fill="#080717"/>
<path d="M24.9955 53.5946C24.301 53.5946 23.6234 53.4081 23.0135 53.0521C22.1157 52.518 21.4804 51.6702 21.2178 50.6614C20.6842 48.576 21.9463 46.4397 24.0299 45.9056C25.0379 45.6428 26.0882 45.7954 26.986 46.3294C27.8839 46.8635 28.5191 47.7113 28.7817 48.7201C29.3153 50.8056 28.0533 52.9419 25.9696 53.476C25.6477 53.5607 25.3174 53.6031 24.9955 53.6031V53.5946ZM25.0125 47.4739C24.8261 47.4739 24.6398 47.4993 24.4619 47.5417C23.2846 47.8469 22.5646 49.0507 22.8695 50.2291C23.1744 51.4074 24.3772 52.128 25.5546 51.8228C26.7319 51.5177 27.4519 50.3139 27.147 49.1355C27.003 48.5675 26.6387 48.0843 26.1305 47.7791C25.7833 47.5756 25.4021 47.4654 25.0125 47.4654V47.4739Z" fill="#080717"/>
<path d="M34.9649 51.0429C33.2286 51.0429 31.6362 49.8646 31.1872 48.1097C30.9247 47.1009 31.0771 46.0497 31.6107 45.1511C32.1444 44.2525 32.9914 43.6167 33.9993 43.3539C36.083 42.8198 38.2175 44.0829 38.7511 46.1684C39.2847 48.2539 38.0227 50.3902 35.939 50.9243C35.6171 51.009 35.2953 51.0429 34.9734 51.0429H34.9649ZM34.9649 44.9222C34.7871 44.9222 34.6007 44.9477 34.4144 44.99C33.8469 45.1342 33.3641 45.4987 33.0591 46.0073C32.7627 46.516 32.6695 47.1094 32.822 47.6774C33.1269 48.8558 34.3297 49.5679 35.507 49.2712C36.0745 49.127 36.5573 48.7625 36.8623 48.2539C37.1587 47.7452 37.2519 47.1518 37.0994 46.5753C36.8453 45.575 35.9475 44.9137 34.9565 44.9137L34.9649 44.9222Z" fill="#080717"/>
<path d="M40.1826 199C62.3748 199 80.3651 193.728 80.3651 187.225C80.3651 180.722 62.3748 175.45 40.1826 175.45C17.9904 175.45 0 180.722 0 187.225C0 193.728 17.9904 199 40.1826 199Z" fill="#080717"/>
<path d="M208.591 174.161C222.943 167.074 231.73 155.553 228.217 148.428C224.705 141.303 210.223 141.271 195.872 148.358C181.52 155.445 172.733 166.966 176.245 174.091C179.758 181.216 194.239 181.248 208.591 174.161Z" fill="#080717"/>
<path d="M74.4106 98.983L74.3428 98.9406L59.664 91.8535C59.3591 91.6161 52.7015 90.5903 52.3204 90.6497L41.5124 90.4038C32.6102 91.8535 24.2332 96.2448 17.9399 102.764L15.6529 105.129C15.6529 105.129 15.5852 105.214 15.5428 105.248C8.80054 113.954 6.36959 125.551 9.05464 136.284L22.6832 189.149C22.8441 189.777 24.1062 190.201 24.1485 190.201C24.1485 190.201 29.7304 192.778 38.2514 192.956C56.0303 193.329 63.1029 186.352 62.925 185.936L42.5966 137.03L60.5703 123.975L69.9129 121.058C71.8018 120.05 72.7589 118.032 72.3354 115.921C71.9119 113.793 70.2433 112.293 68.0919 112.098C66.9568 111.996 65.8049 112.064 64.6614 112.31C60.0113 113.301 51.7275 114.743 49.2372 114.777C49.2372 114.454 49.1186 112.174 49.0678 111.843L45.8237 105.638C45.7475 105.18 42.4611 103.247 42.063 103.052L50.44 99.8562L53.1589 100.111C57.3771 100.5 61.502 101.67 65.2459 103.663C68.1003 105.189 71.3105 106.452 73.0046 105.663C74.2327 105.087 75.2153 104.027 75.4948 102.705C75.7828 101.34 75.3762 99.9664 74.3937 98.983H74.4106Z" fill="white"/>
<path d="M62.9081 186.606C62.5778 186.606 62.2644 186.411 62.1288 186.089L41.4955 137.623C41.343 137.259 41.4531 136.843 41.775 136.606L59.4946 123.602C59.4946 123.602 59.5624 123.559 59.5963 123.534L68.7695 118.676C69.9976 118.023 70.2433 116.845 70.0654 115.955C69.8875 115.048 69.1845 114.039 67.7785 113.912C66.8467 113.827 65.8981 113.886 64.9663 114.081C58.961 115.344 49.449 115.361 49.0424 115.361C48.5765 115.361 48.1954 114.98 48.1954 114.514C48.1954 114.047 48.5765 113.666 49.0424 113.666C49.1356 113.666 58.7916 113.649 64.6191 112.42C65.7117 112.191 66.8298 112.123 67.9309 112.216C69.8536 112.386 71.3444 113.725 71.7256 115.616C72.1067 117.489 71.2512 119.278 69.5572 120.177L60.4348 125.009L43.3081 137.581L63.6704 185.428C63.8568 185.86 63.6535 186.352 63.2215 186.538C63.1114 186.581 63.0013 186.606 62.8912 186.606H62.9081Z" fill="#080717"/>
<path d="M221.801 36.7092L213.354 41.7827L214.226 43.2365L222.673 38.163L221.801 36.7092Z" fill="#080717"/>
<path d="M227.081 49.2946L217.789 51.8267L218.234 53.4626L227.526 50.9305L227.081 49.2946Z" fill="#080717"/>
<path d="M107.199 85.1657L73.1688 85.5818C66.3442 85.6653 60.8793 91.2701 60.9627 98.1006L61.3785 132.161C61.4619 138.991 67.0619 144.461 73.8865 144.377L107.917 143.961C114.742 143.878 120.207 138.273 120.123 131.442L119.708 97.3823C119.624 90.5518 114.024 85.0822 107.199 85.1657Z" fill="#7874E8"/>
<path d="M23.2507 191.319C22.8695 191.319 22.5307 191.065 22.4291 190.684L8.54642 135.877C5.86137 125.246 8.29232 113.751 15.0431 105.112C15.06 105.087 15.0854 105.061 15.1023 105.044L17.4232 102.662C23.7335 96.1854 32.1274 91.8195 41.055 90.3783L44.4939 89.8188C53.7349 88.3268 63.2977 90.7259 70.743 96.3973L73.9786 98.8643C73.9786 98.8643 74.0549 98.9236 74.0887 98.966C74.8341 99.7713 75.156 100.848 74.9781 101.933C74.8002 103.018 74.1396 103.934 73.174 104.451C70.4042 105.934 67.0754 105.739 64.492 103.959L57.394 99.0592L39.8184 103.688C39.3694 103.807 38.9036 103.535 38.785 103.086C38.6664 102.637 38.9375 102.17 39.3864 102.052L57.3347 97.3214C57.5719 97.262 57.826 97.3044 58.0293 97.44L65.4407 102.56C67.4989 103.985 70.1586 104.137 72.3693 102.959C72.869 102.696 73.2078 102.221 73.301 101.653C73.3942 101.119 73.2417 100.577 72.886 100.17L69.7097 97.7537C62.637 92.3536 53.5485 90.0731 44.7565 91.4973L41.3176 92.0568C32.7458 93.4387 24.6906 97.635 18.6259 103.849L16.3305 106.197C9.92706 114.42 7.62317 125.356 10.1727 135.461L24.0553 190.268C24.1739 190.726 23.8944 191.184 23.4455 191.303C23.3777 191.319 23.3015 191.328 23.2337 191.328L23.2507 191.319Z" fill="#080717"/>
<path d="M41.199 91.2003L44.9005 90.5984C53.7857 89.1572 62.8658 91.4376 70.0231 96.8971L73.4704 99.5251C74.6563 100.805 74.309 102.865 72.7759 103.688C70.2941 105.01 67.2872 104.841 64.9748 103.238C60.2654 99.9914 54.3786 98.9571 48.8476 100.415L40.7501 102.645L41.2075 91.1918L41.199 91.2003Z" fill="white"/>
<path d="M69.2353 105.434C67.5752 105.434 65.915 104.934 64.492 103.95C59.9859 100.839 54.3617 99.8474 49.0593 101.246L40.9703 103.476C40.5129 103.594 40.0555 103.332 39.9285 102.882C39.8014 102.433 40.0725 101.967 40.5214 101.84L48.6189 99.61C54.404 98.084 60.5364 99.1607 65.4491 102.552C67.5074 103.976 70.167 104.128 72.3778 102.95C72.8775 102.687 73.2163 102.213 73.3095 101.645C73.4027 101.11 73.2502 100.568 72.8944 100.161L69.5148 97.5839C62.5778 92.2855 53.6586 90.0559 45.036 91.4462L41.3345 92.0481C40.8687 92.1244 40.4367 91.8107 40.3604 91.3445C40.2842 90.8782 40.5976 90.4458 41.0635 90.3695L44.7649 89.7676C53.8365 88.301 63.23 90.6578 70.5397 96.2275L73.9871 98.8555C73.9871 98.8555 74.0633 98.9148 74.0972 98.9572C74.8426 99.7626 75.1645 100.839 74.9866 101.924C74.8087 103.009 74.148 103.925 73.1824 104.442C71.9458 105.103 70.5905 105.434 69.2438 105.434H69.2353Z" fill="#080717"/>
<path d="M43.2657 119.346C42.7914 119.346 42.3171 119.286 41.8427 119.176L41.6141 119.117C41.1567 119.007 40.8771 118.549 40.9873 118.1C41.0974 117.642 41.5548 117.37 42.0121 117.472L42.2408 117.532C43.8332 117.913 45.5019 117.387 46.5861 116.158C47.4839 115.149 47.865 113.81 47.6448 112.479L47.2975 110.41C46.6962 106.791 43.7316 104.018 40.0809 103.662L30.1878 102.696C29.7219 102.654 29.3831 102.238 29.4254 101.772C29.4678 101.306 29.8913 100.967 30.3487 101.009L40.2419 101.975C44.6464 102.408 48.2377 105.756 48.9662 110.131L49.3135 112.199C49.6184 114.039 49.0848 115.895 47.8481 117.286C46.6708 118.617 44.9937 119.346 43.2657 119.346Z" fill="#080717"/>
<path d="M36.803 125.891C36.4472 125.891 36.0915 125.857 35.7357 125.789L33.6097 125.365C33.1523 125.272 32.8559 124.831 32.949 124.365C33.0422 123.907 33.4827 123.602 33.9485 123.703L36.0745 124.127C37.3874 124.39 38.7426 123.932 39.632 122.932C40.7501 121.677 41.2244 120.007 40.9534 118.354L40.64 116.447C40.0725 113.022 37.2688 110.326 33.8215 109.894L24.7075 108.741C24.2417 108.681 23.9113 108.257 23.9706 107.791C24.0299 107.325 24.4619 107.003 24.9193 107.054L34.0332 108.207C38.209 108.732 41.614 112.004 42.3086 116.167L42.622 118.074C42.9862 120.236 42.3509 122.415 40.8941 124.059C39.8522 125.238 38.353 125.891 36.803 125.891Z" fill="#080717"/>
<path d="M28.5361 133.486C28.4005 133.486 28.2566 133.486 28.121 133.469L24.428 133.155C22.5476 132.994 20.9891 131.655 20.5487 129.815C20.2268 128.484 20.5233 127.128 21.3618 126.06C22.2004 125 23.454 124.39 24.8007 124.39C25.2666 124.39 25.6477 124.771 25.6477 125.238C25.6477 125.704 25.2666 126.085 24.8007 126.085C23.9706 126.085 23.1998 126.458 22.6916 127.111C22.175 127.764 21.9971 128.595 22.1919 129.408C22.4629 130.544 23.4285 131.367 24.5805 131.468L28.2735 131.782C29.2899 131.867 30.2979 131.468 30.967 130.705C32.3307 129.163 32.9236 127.12 32.5848 125.093L31.7293 119.939C31.5345 118.778 30.5859 117.862 29.4085 117.71L20.5487 115.98C20.0913 115.887 19.7864 115.446 19.8795 114.988C19.9727 114.53 20.4132 114.225 20.8705 114.319L29.6711 116.039C31.526 116.268 33.0761 117.76 33.3895 119.659L34.245 124.814C34.6685 127.348 33.9316 129.909 32.2206 131.833C31.2804 132.884 29.9252 133.486 28.5276 133.486H28.5361Z" fill="#080717"/>
<path d="M108.113 117.701V112.742L103.701 112.369C103.396 110.741 102.803 109.224 101.973 107.859L104.92 104.383L101.422 100.865L98.0424 103.713C96.7211 102.815 95.2303 102.137 93.6294 101.747L93.2568 97.2026H88.2932L87.9205 101.602C86.2943 101.908 84.7781 102.501 83.4144 103.332L79.9416 100.382L76.4265 103.883L79.2809 107.265C78.3831 108.588 77.7055 110.08 77.3159 111.682L72.9453 112.055V117.014L77.1634 117.396C77.4683 119.024 78.0612 120.541 78.8913 121.906L75.9437 125.382L79.4419 128.9L82.8215 126.051C84.1428 126.959 85.6336 127.628 87.2345 128.018L87.5987 132.393H92.5622L92.9434 128.162C94.5612 127.857 96.0858 127.264 97.4495 126.433L100.922 129.383L104.437 125.882L101.583 122.499C102.481 121.177 103.158 119.685 103.548 118.083L108.105 117.718L108.113 117.701ZM90.5378 122.771C86.1249 122.771 82.5504 119.193 82.5504 114.776C82.5504 110.36 86.1249 106.782 90.5378 106.782C94.9508 106.782 98.5252 110.36 98.5252 114.776C98.5252 119.193 94.9508 122.771 90.5378 122.771Z" fill="white"/>
<path d="M142.85 46.9309L154.962 42.0479L163.475 36.2154C166.261 34.308 169.717 33.6382 173.012 34.3927L173.181 34.4351L173.808 34.1299C177.527 32.3412 181.897 32.5616 185.412 34.7234L192.51 39.0808L190.766 29.8234L180.407 25.9661C178.416 25.0336 177.112 23.0753 177.018 20.8797L176.942 19.057C176.874 17.5056 178.399 16.3781 179.864 16.9037L196.119 22.6938C198.617 23.584 200.472 25.7203 201.006 28.3229L203.928 42.5396C209.222 48.1177 212.576 55.2642 213.474 62.9109L214.982 75.7373L223.105 157.231C216.659 165.861 205.91 170.125 195.306 168.252L188.453 167.04L183.964 81.9004L179.305 83.8079C174.977 85.5797 170.047 84.9693 166.287 82.1972L151.608 71.3884C150.168 70.3287 150.032 68.2263 151.328 66.9886L152.387 65.9798C154.649 63.8265 158.054 63.3941 160.781 64.9286L168.184 69.074C170.505 70.3711 173.334 70.3457 175.638 69.0062L175.672 68.9808L163.593 50.1608L149.66 52.9075C147.364 53.3568 144.993 52.8143 143.129 51.3985L142.35 50.8136C140.961 49.7624 141.249 47.6006 142.858 46.9563L142.85 46.9309Z" fill="white"/>
<path d="M200.32 169.515C198.609 169.515 196.881 169.363 195.145 169.057L188.292 167.845C187.903 167.777 187.615 167.447 187.589 167.057L183.168 83.1044L179.619 84.5626C175.053 86.4361 169.751 85.7748 165.779 82.8501L151.1 72.0414C150.21 71.3886 149.66 70.3798 149.592 69.2777C149.524 68.1756 149.939 67.1075 150.744 66.3445L151.803 65.3357C154.352 62.9111 158.121 62.4364 161.188 64.1573L168.591 68.3028C170.395 69.3116 172.563 69.4133 174.444 68.6249L163.187 51.0851L149.812 53.7215C147.288 54.2217 144.662 53.6113 142.604 52.06L141.825 51.475C140.927 50.7968 140.478 49.7202 140.631 48.6096C140.783 47.4906 141.494 46.575 142.536 46.1512L154.564 41.3021L163 35.5204C165.939 33.5028 169.616 32.7822 173.088 33.5452L173.453 33.3672C177.442 31.4428 182.084 31.6801 185.861 34.003L191.333 37.36L190.029 30.4509L180.119 26.7547C177.772 25.6611 176.29 23.4316 176.18 20.9138L176.104 19.0911C176.061 18.0823 176.519 17.1159 177.332 16.514C178.145 15.9121 179.195 15.7595 180.152 16.0986L196.407 21.8887C199.168 22.8721 201.252 25.2712 201.836 28.145L204.708 42.1244C210.001 47.7704 213.406 55.1034 214.313 62.8009L215.82 75.6273L223.943 157.13C223.96 157.342 223.909 157.554 223.782 157.723C218.158 165.26 209.493 169.532 200.337 169.532L200.32 169.515ZM189.249 166.302L195.441 167.396C205.682 169.202 215.914 165.209 222.215 156.96L214.126 75.7969L212.619 62.9874C211.746 55.5781 208.434 48.5164 203.301 43.1078C203.191 42.9976 203.115 42.8534 203.09 42.6924L200.167 28.4757C199.693 26.1783 198.033 24.2624 195.831 23.474L179.576 17.6838C179.153 17.5313 178.696 17.5991 178.331 17.8704C177.967 18.1416 177.772 18.557 177.789 19.0063L177.865 20.829C177.95 22.711 179.06 24.381 180.771 25.1779L191.071 29.0097C191.35 29.1115 191.553 29.3573 191.604 29.6455L193.349 38.9029C193.408 39.2336 193.273 39.5642 192.993 39.7592C192.722 39.9457 192.358 39.9626 192.07 39.7846L184.972 35.4272C181.686 33.4095 177.654 33.2061 174.181 34.8761L173.554 35.1813C173.385 35.2661 173.19 35.2831 172.995 35.2407L172.826 35.1983C169.768 34.5031 166.532 35.122 163.949 36.8938L155.436 42.7263C155.386 42.7602 155.335 42.7941 155.275 42.8111L143.163 47.6941C142.697 47.8806 142.375 48.296 142.308 48.7961C142.24 49.2963 142.443 49.7795 142.85 50.0847L143.629 50.6697C145.298 51.9328 147.441 52.4245 149.49 52.0176L163.424 49.2709C163.771 49.2031 164.11 49.3557 164.305 49.6439L176.383 68.4639C176.51 68.6588 176.553 68.8962 176.493 69.1251C176.434 69.354 176.29 69.5405 176.087 69.6592C173.512 71.1597 170.335 71.1851 167.769 69.7524L160.366 65.607C157.952 64.2506 154.979 64.6236 152.972 66.5395L151.913 67.5483C151.481 67.9637 151.252 68.5402 151.286 69.1421C151.32 69.744 151.625 70.295 152.108 70.651L166.786 81.4598C170.285 84.037 174.96 84.6134 178.984 82.9688L183.642 81.0614C183.896 80.9596 184.184 80.9851 184.413 81.1292C184.642 81.2733 184.794 81.5276 184.803 81.7989L189.249 166.268V166.302Z" fill="#080717"/>
<path d="M186.251 46.0581C186.065 46.0581 185.878 45.9987 185.717 45.8716L172.639 35.3087C172.275 35.0119 172.216 34.4779 172.512 34.1133C172.809 33.7488 173.342 33.6895 173.707 33.9862L186.785 44.5491C187.149 44.8458 187.208 45.3799 186.912 45.7444C186.742 45.9564 186.497 46.0581 186.251 46.0581Z" fill="#080717"/>
<path d="M194.518 42.1585C194.281 42.1585 194.052 42.0652 193.883 41.8703L191.884 39.6237C191.57 39.2762 191.604 38.7421 191.951 38.4284C192.299 38.1147 192.832 38.1487 193.146 38.4962L195.145 40.7428C195.458 41.0903 195.424 41.6244 195.077 41.9381C194.916 42.0822 194.713 42.15 194.518 42.15V42.1585Z" fill="#080717"/>
<path d="M226.874 65.6663L142.308 52.1362L128.349 54.3912L140.91 60.885L225.476 74.415C227.873 72.16 228.449 68.5571 226.874 65.6663Z" fill="white"/>
<path d="M226.874 65.6663L142.308 52.1362L140.91 60.885L225.476 74.415C227.873 72.16 228.449 68.5571 226.874 65.6663Z" fill="#080717"/>
<path d="M225.476 75.2627C225.434 75.2627 225.383 75.2627 225.341 75.2542L140.775 61.7242C140.69 61.7072 140.597 61.6818 140.52 61.6394L127.959 55.1457C127.637 54.9761 127.451 54.6201 127.51 54.2555C127.569 53.891 127.849 53.6112 128.213 53.5519L142.172 51.2969C142.257 51.2799 142.35 51.2799 142.443 51.2969L227.01 64.8269C227.272 64.8693 227.492 65.0304 227.619 65.2593C229.381 68.4892 228.737 72.5075 226.061 75.0338C225.9 75.1864 225.697 75.2627 225.476 75.2627ZM141.181 60.0711L225.18 73.5079C226.959 71.6004 227.408 68.7944 226.306 66.4377L142.308 53.0009L131.017 54.8235L141.173 60.0796L141.181 60.0711Z" fill="#080717"/>
<path d="M178.857 49.3982L168.201 38.0215L150.092 44.0659L178.857 49.3982Z" fill="white"/>
<path d="M178.856 50.2458C178.628 50.2458 178.408 50.1526 178.238 49.9745L167.955 38.9962L150.363 44.8626C149.914 45.0067 149.44 44.7694 149.296 44.3285C149.152 43.8877 149.389 43.4045 149.829 43.2604L167.938 37.2159C168.252 37.1057 168.599 37.199 168.828 37.4364L179.483 48.8046C179.805 49.1437 179.788 49.6863 179.441 50C179.28 50.1526 179.068 50.2289 178.865 50.2289L178.856 50.2458Z" fill="#080717"/>
<path d="M137.895 117.464C140.681 117.464 143.239 118.871 144.73 121.228L167.456 157.172C168.608 158.995 168.98 161.165 168.514 163.267C168.04 165.378 166.778 167.167 164.948 168.328L129.035 191.073C127.739 191.896 126.248 192.328 124.724 192.328C121.937 192.328 119.379 190.921 117.888 188.564L95.1626 152.62C94.0106 150.797 93.6379 148.627 94.1038 146.524C94.5781 144.413 95.8402 142.625 97.6613 141.463L133.575 118.718C134.871 117.896 136.362 117.464 137.886 117.464H137.895ZM137.895 115.768C136.107 115.768 134.303 116.26 132.677 117.286L96.7634 140.031C92.2065 142.921 90.8428 148.957 93.7311 153.527L116.457 189.471C118.32 192.413 121.488 194.024 124.724 194.024C126.511 194.024 128.315 193.532 129.941 192.506L165.855 169.761C170.412 166.87 171.775 160.834 168.887 156.265L146.162 120.32C144.298 117.379 141.13 115.768 137.895 115.768Z" fill="#080717"/>
<path d="M124.402 145.635C127.044 149.814 125.799 155.35 121.623 157.995C117.448 160.64 111.917 159.393 109.274 155.214C106.631 151.035 107.876 145.499 112.052 142.854C116.228 140.209 121.759 141.455 124.402 145.635Z" fill="#5451A1"/>
<path d="M116.465 189.471L111.307 181.316L112.654 175.322C113.653 170.889 118.041 168.108 122.47 169.108C126.663 170.049 130.822 167.413 131.762 163.225L137.048 139.692C138.301 134.105 143.849 130.595 149.431 131.85L154.124 132.91L168.896 156.274C171.784 160.834 170.42 166.879 165.863 169.77L129.95 192.515C125.393 195.406 119.353 194.041 116.465 189.48V189.471Z" fill="#080717"/>
<path d="M109.52 86.233L114.229 57.2231L118.938 28.2217L92.7232 41.455L66.5079 54.6968L86.8787 61.4872L74.4191 78.51L84.4478 85.86L96.9074 68.8372L109.52 86.233Z" fill="#080717"/>
<path d="M193.18 105.163L139.512 84.0793C131.999 81.1291 123.529 84.8338 120.582 92.3448C117.829 99.3726 120.887 107.257 127.442 110.656L135.032 113.725L182.516 132.375C190.029 135.326 198.499 131.621 201.447 124.11C204.394 116.59 200.693 108.113 193.188 105.163H193.18Z" fill="#5451A1"/>
<path d="M136.311 97.5246L135.571 99.4106L185.662 119.088L186.402 117.202L136.311 97.5246Z" fill="white"/>
</g>
<defs>
<clipPath id="clip0_17_169">
<rect width="229" height="199" fill="white"/>
</clipPath>
</defs>
</svg>
