<svg width="80" height="55" viewBox="0 0 80 55" fill="none" xmlns="http://www.w3.org/2000/svg">
<path d="M0 0H22.7649C27.0676 0 30.04 1.05295 32.3865 3.43285C34.5368 5.61704 35.6336 8.54494 35.6336 12.1735C35.6336 16.855 33.9522 20.2898 30.4716 22.7852C27.4992 24.9694 23.8617 26.0243 19.5198 26.0243H0V0ZM15.4506 18.2211C17.4852 18.2211 18.58 17.9863 19.6356 17.3247C20.9658 16.5047 21.7486 14.9448 21.7486 13.1501C21.7486 10.4179 20.1849 8.97552 17.2498 8.97552H13.4161V18.2231H15.4506V18.2211Z" fill="white"/>
<path d="M67.1706 26.0243V12.6413L62.5933 26.0243H55.279L50.7036 13.0699V26.0243H38.0311V0H54.8493L58.9165 12.6413L63.0249 0H80V26.0243H67.1706Z" fill="white"/>
<path d="M9.57842 55V39.3154H0V28.9757H35.6316V39.3154H26.0061V55H9.57842Z" fill="white"/>
<path d="M65.2282 55L53.8801 43.3334V55H38.0311V28.9757H54.8571L64.1511 39.8614V28.9757H80V55H65.2282Z" fill="white"/>
</svg>
