<svg width="198" height="168" viewBox="0 0 198 168" fill="none" xmlns="http://www.w3.org/2000/svg">
<g clip-path="url(#clip0_17_274)">
<path d="M43.0846 99.7742L71.3672 88.0716C80.1958 84.4194 90.381 87.1905 96.1483 94.8146L149.993 165.989H52.2754L43.0917 99.7742H43.0846Z" fill="#5451A1"/>
<path d="M111.888 78.5926C123.032 78.5926 132.066 69.5548 132.066 58.4062C132.066 47.2575 123.032 38.2197 111.888 38.2197C100.743 38.2197 91.7092 47.2575 91.7092 58.4062C91.7092 69.5548 100.743 78.5926 111.888 78.5926Z" fill="black"/>
<path d="M39.8217 80.6289C42.3817 69.7784 35.6643 58.9062 24.818 56.3452C13.9716 53.7843 3.10372 60.5043 0.543759 71.3548C-2.0162 82.2054 4.70121 93.0775 15.5475 95.6385C26.3938 98.1994 37.2617 91.4794 39.8217 80.6289Z" fill="black"/>
<path d="M98.8473 40.6785C98.8473 20.0529 82.1334 3.33252 61.5159 3.33252C40.8983 3.33252 24.1844 20.0529 24.1844 40.6785V52.5374C24.1844 73.163 40.8983 89.8834 61.5159 89.8834C82.1334 89.8834 98.8473 73.163 98.8473 52.5374V40.6785Z" fill="black"/>
<path d="M101.809 31.1643C101.809 13.9527 87.8618 0 70.657 0C53.4521 0 39.5048 13.9527 39.5048 31.1643V37.5449C39.5048 54.7565 53.4521 68.7092 70.657 68.7092C87.8618 68.7092 101.809 54.7565 101.809 37.5449V31.1643Z" fill="black"/>
<path d="M96.2974 47.2367L103.038 45.2329C107.15 44.0108 109.501 39.6765 108.272 35.5625C107.051 31.4485 102.718 29.0966 98.6058 30.3258L91.8654 32.3295C87.753 33.5517 85.402 37.886 86.6307 42C87.8524 46.114 92.185 48.4659 96.2974 47.2367Z" fill="white"/>
<path d="M94.0672 48.2739C92.6751 48.2739 91.2972 47.9257 90.04 47.2436C88.0442 46.1636 86.5952 44.373 85.9489 42.1988C85.3026 40.0245 85.5441 37.7295 86.6237 35.74C87.7033 33.7434 89.4931 32.2939 91.6665 31.6473L98.4069 29.6436C100.58 28.997 102.874 29.2386 104.863 30.3186C106.859 31.3986 108.308 33.1892 108.954 35.3634C110.29 39.8469 107.726 44.5862 103.237 45.9149L96.4963 47.9186C95.6937 48.1602 94.8769 48.2739 94.0672 48.2739ZM100.829 30.7023C100.154 30.7023 99.4723 30.8017 98.8047 31.0007L92.0643 33.0044C90.2531 33.5444 88.7615 34.7523 87.8666 36.415C86.9646 38.0777 86.7657 39.9819 87.3055 41.7938C87.8453 43.6057 89.0528 45.0978 90.7148 45.9931C92.3768 46.8955 94.2874 47.0873 96.0915 46.5544L102.832 44.5507C104.643 44.0107 106.135 42.8028 107.03 41.1401C107.932 39.4774 108.13 37.5732 107.591 35.7613C107.051 33.9494 105.843 32.4573 104.181 31.562C103.13 30.9936 101.987 30.7023 100.829 30.7023Z" fill="#080717"/>
<path d="M38.2548 62.1722L31.2232 62.0443C26.9332 61.9661 23.5168 58.4205 23.5949 54.1218C23.6731 49.8301 27.2173 46.4124 31.5144 46.4906L38.546 46.6185C42.836 46.6966 46.2523 50.2422 46.1742 54.541C46.0961 58.8326 42.5519 62.2503 38.2548 62.1722Z" fill="white"/>
<path d="M38.4039 62.8825C38.3471 62.8825 38.2974 62.8825 38.2406 62.8825L31.209 62.7546C28.9432 62.712 26.8266 61.7883 25.257 60.1612C23.6873 58.5269 22.8421 56.3811 22.8847 54.1145C22.9699 49.432 26.8408 45.723 31.5215 45.7869L38.5531 45.9148C43.2337 46.0001 46.9626 49.8797 46.8774 54.555C46.8348 56.8216 45.9114 58.939 44.2849 60.5093C42.6939 62.0441 40.6057 62.8825 38.3968 62.8825H38.4039ZM31.3652 47.2009C27.5298 47.2009 24.3762 50.2847 24.3052 54.1358C24.2697 56.0258 24.9729 57.8093 26.2797 59.1664C27.5866 60.5235 29.3481 61.2909 31.2374 61.3264L38.269 61.4543C40.1583 61.5041 41.941 60.7864 43.3047 59.479C44.6613 58.1717 45.4284 56.4095 45.4639 54.5195C45.535 50.6257 42.424 47.3928 38.5318 47.3217L31.5002 47.1938C31.4576 47.1938 31.4149 47.1938 31.3723 47.1938L31.3652 47.2009Z" fill="#080717"/>
<path d="M52.2185 98.7925C60.0987 90.9092 60.0987 78.1279 52.2185 70.2446C44.3383 62.3613 31.5619 62.3613 23.6817 70.2446C15.8015 78.1279 15.8015 90.9092 23.6817 98.7925C31.5619 106.676 44.3383 106.676 52.2185 98.7925Z" fill="black"/>
<path d="M117.558 78.4106C120.118 67.5601 113.401 56.6879 102.555 54.127C91.7083 51.566 80.8404 58.286 78.2804 69.1366C75.7205 79.9871 82.4379 90.8593 93.2842 93.4202C104.13 95.9812 114.998 89.2612 117.558 78.4106Z" fill="black"/>
<path d="M77.4399 126.177C67.4252 127.726 58.0498 120.87 56.4943 110.851L49.555 66.0657L85.8211 60.4453L92.7603 105.231C94.3087 115.249 87.4547 124.628 77.4399 126.184V126.177Z" fill="white"/>
<path d="M74.5847 127.108C70.5717 127.108 66.6724 125.844 63.3697 123.428C59.2643 120.422 56.5724 115.996 55.7911 110.958L48.8519 66.1725C48.8235 65.9877 48.8661 65.7959 48.9797 65.6467C49.0934 65.4975 49.2567 65.3909 49.4414 65.3625L85.7074 59.7421C86.091 59.6853 86.4603 59.9482 86.5171 60.3318L93.4564 105.117C95.0687 115.505 87.9234 125.268 77.5394 126.881C76.5521 127.037 75.5578 127.108 74.5776 127.108H74.5847ZM50.3647 66.6556L57.1975 110.745C57.9219 115.406 60.4079 119.498 64.2149 122.284C68.0148 125.069 72.6741 126.206 77.3334 125.481C86.9433 123.989 93.5558 114.958 92.0643 105.345L85.2315 61.2555L50.3718 66.6628L50.3647 66.6556Z" fill="black"/>
<path d="M98.8473 48.4093C98.8473 31.0212 84.7585 16.9253 67.3791 16.9253C49.9997 16.9253 35.9109 31.0212 35.9109 48.4093V58.3995C35.9109 75.7876 49.9997 89.8835 67.3791 89.8835C84.7585 89.8835 98.8473 75.7876 98.8473 58.3995V48.4093Z" fill="white"/>
<path d="M34.3199 46.2351V46.2919C48.7596 42.526 59.4135 29.3882 59.4135 13.7634V13.7065C44.9739 17.4724 34.3199 30.6103 34.3199 46.2351Z" fill="black"/>
<path d="M48.9442 42.7105C48.859 42.7105 48.7809 42.6963 48.6956 42.6679C48.4897 42.5897 48.3263 42.4263 48.2624 42.2131C48.1487 41.8508 48.3405 41.4458 48.6956 41.3179C56.7784 36.1736 60.415 26.2118 57.5313 17.0458L58.199 16.7971L58.8808 16.584C61.9776 26.4463 58.0427 37.1328 49.3207 42.6039C49.207 42.675 49.0721 42.7105 48.9442 42.7105Z" fill="black"/>
<path d="M93.8755 28.5567L93.9039 28.6064C79.585 32.8128 63.6893 27.0503 55.6491 13.6567L55.6207 13.6069C69.9396 9.40052 85.8353 15.163 93.8755 28.5567Z" fill="black"/>
<path d="M67.3826 90.5936C49.6403 90.5936 35.2006 76.1554 35.2006 58.399C35.2006 58.0082 35.5202 57.6885 35.9109 57.6885C36.3015 57.6885 36.6211 58.0082 36.6211 58.399C36.6211 75.3667 50.4216 89.1725 67.3826 89.1725C74.4426 89.1725 81.3393 86.7211 86.8012 82.266C87.1066 82.0174 87.5541 82.0671 87.8027 82.3655C88.0513 82.671 88.0016 83.1187 87.7033 83.3674C81.9856 88.0285 74.7765 90.5936 67.3897 90.5936H67.3826Z" fill="black"/>
<path d="M98.1086 41.7086C97.7677 41.7086 97.4694 41.4599 97.4055 41.1117C96.5958 36.2445 100.538 33.8216 100.701 33.7221C101.035 33.5232 101.475 33.6297 101.674 33.9637C101.873 34.2977 101.766 34.7382 101.433 34.9371C101.284 35.0295 98.1583 36.9906 98.8047 40.8772C98.8686 41.2609 98.6058 41.6304 98.2223 41.6944C98.1796 41.6944 98.1441 41.7015 98.1015 41.7015L98.1086 41.7086Z" fill="black"/>
<path d="M35.8186 58.463C35.4634 58.463 35.1509 58.193 35.1154 57.8306C34.6963 53.9013 31.145 52.8497 30.9959 52.8071C30.6194 52.7005 30.3992 52.3097 30.5058 51.9331C30.6123 51.5566 31.003 51.3363 31.3794 51.4429C31.5712 51.4926 36.0103 52.7787 36.5288 57.6885C36.5714 58.0793 36.2873 58.4275 35.8967 58.4701C35.8683 58.4701 35.847 58.4701 35.8186 58.4701V58.463Z" fill="black"/>
<path d="M58.5399 39.5841C59.0015 40.792 56.6719 42.817 53.3265 44.1031C49.9812 45.3892 46.8916 45.4531 46.4228 44.2452C45.9611 43.0373 48.2908 41.0122 51.6361 39.7262C54.9815 38.4401 58.0711 38.3761 58.5399 39.5841Z" fill="black"/>
<path d="M82.5752 37.8504C82.4828 39.1436 79.5139 39.9892 75.9342 39.7476C72.3545 39.4989 69.5276 38.2554 69.62 36.9623C69.7052 35.6691 72.6812 34.8235 76.2609 35.0651C79.8407 35.3138 82.6675 36.5572 82.5752 37.8504Z" fill="black"/>
<path d="M50.0025 51.912C49.8605 51.912 49.7255 51.8694 49.5977 51.7841C49.278 51.5638 49.1928 51.1162 49.4201 50.7964C52.1901 46.7819 56.7713 47.9188 58.8027 49.084C59.1436 49.2759 59.2643 49.7093 59.0655 50.0504C58.8737 50.3914 58.4404 50.5051 58.0995 50.3133C57.9006 50.1996 53.3052 47.663 50.5849 51.5994C50.45 51.7983 50.2227 51.9049 50.0025 51.9049V51.912Z" fill="black"/>
<path d="M74.4214 46.171C74.7978 47.8976 75.991 49.0984 77.0848 48.8569C78.1786 48.6153 78.7682 47.0237 78.3917 45.3041C78.0153 43.5775 76.822 42.3767 75.7282 42.6183C74.6344 42.8599 74.0449 44.4515 74.4214 46.171Z" fill="black"/>
<path d="M68.1639 59.3302C68.1639 59.3302 68.1142 59.3302 68.0929 59.3302C66.7079 59.1881 65.4365 58.4634 64.6126 57.3336C63.7887 56.2109 63.4762 54.7828 63.7603 53.4114L65.472 45.1052C65.5502 44.7215 65.9266 44.4728 66.3101 44.551C66.6937 44.6291 66.9423 45.0057 66.8642 45.3894L65.1524 53.6956C64.9535 54.6691 65.1737 55.6851 65.7561 56.4881C66.3457 57.291 67.2477 57.8097 68.235 57.9091C68.6256 57.9518 68.9097 58.2999 68.8671 58.6907C68.8316 59.0531 68.5191 59.3302 68.1639 59.3302Z" fill="black"/>
<path d="M73.3347 68.0628C72.9795 68.0628 72.6741 67.7999 72.6315 67.4447C72.5818 67.0539 72.8588 66.6986 73.2423 66.6489C74.8972 66.4357 76.126 65.7394 76.8931 64.5883C78.7256 61.8172 77.4755 57.2484 77.4613 57.1987C77.3548 56.8221 77.5749 56.4313 77.9514 56.3247C78.3278 56.2181 78.7185 56.4384 78.825 56.815C78.8818 57.0281 80.2668 62.0517 78.0792 65.3699C77.0778 66.8833 75.5152 67.7928 73.427 68.0557C73.3986 68.0557 73.3631 68.0557 73.3347 68.0557V68.0628Z" fill="black"/>
<path d="M151.677 31.3917L191.53 18.7583L198 27.6827L151.677 31.3917Z" fill="#7874E8"/>
<path d="M158.417 44.423L189.662 40.9697L190.081 50.1996L158.417 44.423Z" fill="#7874E8"/>
<path d="M151.144 23.1778L164.845 8.98828L167.849 15.4613L151.144 23.1778Z" fill="#7874E8"/>
<path d="M167.494 110.631C166.976 109.949 166.365 109.38 165.69 108.918C165.676 108.89 165.676 108.854 165.655 108.826L162.125 103.106C161.791 102.673 161.421 102.282 161.024 101.934L158.034 96.0719C158.012 96.0292 157.984 95.9795 157.955 95.9439C157.685 95.5816 157.38 95.2547 157.06 94.9563C157.046 94.871 157.032 94.7787 156.997 94.6934L153.751 87.9717C153.722 87.922 153.694 87.8722 153.658 87.8225C151.3 84.7103 146.968 83.8292 143.58 85.7761L136.548 89.8262C136.484 89.8617 136.42 89.9044 136.356 89.947C134.36 87.6448 131.171 86.849 128.323 88.0001C125.404 89.1796 123.621 92.0786 123.884 95.2121L125.283 111.896V119.811C125.283 126.433 127.13 132.899 130.632 138.519L134.907 145.39L132.258 165.655C132.223 165.897 132.294 166.145 132.45 166.337C132.606 166.529 132.84 166.643 133.082 166.65L162.125 167.282C162.125 167.282 162.146 167.282 162.16 167.282C162.387 167.282 162.6 167.197 162.764 167.041C162.934 166.877 163.027 166.65 163.027 166.415L163.048 146.35L166.819 138.214C168.347 134.917 169.206 131.4 169.369 127.762L169.803 117.999C169.916 115.356 169.106 112.734 167.508 110.624L167.494 110.631Z" fill="white"/>
<path d="M134.254 106.887C134.218 106.887 134.176 106.887 134.133 106.879L133.629 106.794C131.953 106.517 130.397 105.672 129.247 104.414L128.238 103.313C128.046 103.099 127.996 102.794 128.117 102.531L131.214 95.8661C132.372 93.3792 134.24 91.3399 136.612 89.9686L143.644 85.9185C146.961 84.0072 151.208 84.8669 153.516 87.9222C153.545 87.9578 153.573 88.0004 153.587 88.043L156.833 94.7647C157.004 95.12 156.854 95.5463 156.499 95.7169C156.144 95.8874 155.718 95.7382 155.555 95.3829L152.344 88.7252C150.455 86.288 147.032 85.6059 144.354 87.1478L137.322 91.1978C135.199 92.42 133.537 94.2389 132.5 96.4629L129.602 102.701L130.291 103.455C131.228 104.478 132.492 105.16 133.856 105.387L134.36 105.473C134.744 105.537 135.007 105.906 134.943 106.29C134.886 106.638 134.588 106.879 134.24 106.879L134.254 106.887Z" fill="#080717"/>
<path d="M138.544 115.008C138.508 115.008 138.466 115.008 138.423 115.001L137.919 114.916C136.243 114.639 134.687 113.793 133.537 112.535L132.528 111.434C132.336 111.221 132.286 110.915 132.407 110.653L135.504 103.988C136.662 101.501 138.53 99.4615 140.902 98.0902L147.934 94.0401C151.25 92.1287 155.498 92.9885 157.806 96.0438C157.835 96.0793 157.856 96.1149 157.87 96.1504L160.875 102.041C161.052 102.389 160.917 102.815 160.562 103C160.214 103.178 159.781 103.036 159.603 102.687L156.627 96.8609C154.738 94.4167 151.314 93.7346 148.63 95.2835L141.598 99.3336C139.474 100.556 137.805 102.375 136.775 104.599L133.877 110.837L134.566 111.59C135.504 112.614 136.768 113.296 138.132 113.523L138.636 113.608C139.02 113.672 139.283 114.042 139.219 114.425C139.162 114.774 138.864 115.022 138.515 115.022L138.544 115.008Z" fill="#080717"/>
<path d="M142.72 122.163C142.685 122.163 142.642 122.163 142.599 122.156L142.095 122.071C140.419 121.793 138.864 120.948 137.713 119.69L136.704 118.589C136.513 118.376 136.463 118.07 136.584 117.807L139.68 111.142C140.838 108.656 142.706 106.616 145.078 105.245L152.11 101.195C155.427 99.2835 159.674 100.143 161.983 103.199L165.505 108.904C165.711 109.238 165.605 109.679 165.271 109.885C164.937 110.091 164.497 109.984 164.291 109.65L160.811 104.002C158.971 101.571 155.512 100.875 152.82 102.431L145.789 106.481C143.665 107.703 142.003 109.522 140.966 111.746L138.068 117.985L138.757 118.738C139.695 119.761 140.959 120.443 142.322 120.678L142.827 120.763C143.21 120.827 143.473 121.197 143.409 121.58C143.352 121.928 143.054 122.177 142.706 122.177L142.72 122.163Z" fill="#080717"/>
<path d="M162.167 168C161.777 168 161.457 167.68 161.457 167.289V146.165C161.457 146.058 161.478 145.959 161.521 145.867L165.371 137.553C166.812 134.441 167.622 131.123 167.771 127.698L168.204 117.935C168.304 115.654 167.601 113.402 166.223 111.583C164.341 109.103 160.889 108.4 158.19 109.956L151.158 114.006C149.034 115.228 147.372 117.047 146.335 119.271L143.438 125.51L144.127 126.263C144.254 126.405 144.517 126.639 145.029 126.952C147.23 128.302 150.086 128.238 152.287 126.796L158.786 122.54C159.113 122.326 159.553 122.419 159.767 122.746C159.98 123.072 159.887 123.513 159.561 123.726L153.062 127.982C150.398 129.723 146.953 129.794 144.283 128.16C143.757 127.84 143.352 127.52 143.075 127.222L142.067 126.121C141.875 125.907 141.825 125.602 141.946 125.339L145.043 118.674C146.201 116.187 148.069 114.148 150.441 112.777L157.472 108.727C160.789 106.815 165.037 107.675 167.345 110.73C168.922 112.812 169.724 115.391 169.611 117.999L169.178 127.762C169.014 131.379 168.162 134.874 166.642 138.15L162.856 146.321V167.289C162.856 167.68 162.537 168 162.146 168H162.167Z" fill="#080717"/>
<path d="M146.058 146.392C145.81 146.392 145.576 146.264 145.441 146.037C145.235 145.682 140.497 137.177 143.992 127.314C144.119 126.945 144.524 126.753 144.901 126.881C145.27 127.009 145.462 127.421 145.334 127.79C142.067 137.027 146.634 145.255 146.676 145.341C146.868 145.682 146.747 146.115 146.407 146.307C146.293 146.371 146.172 146.399 146.058 146.399V146.392Z" fill="#080717"/>
<path d="M140.298 76.8798L128.163 83.0254L133.032 92.6486L145.167 86.503L140.298 76.8798Z" fill="#080717"/>
<path d="M133.999 81.1641C150.219 70.9498 153.172 46.4651 140.594 26.476C128.016 6.48689 104.67 -1.4371 88.45 8.77725C72.23 18.9916 69.2775 43.4763 81.8555 63.4654C94.4336 83.4545 117.779 91.3785 133.999 81.1641Z" fill="#080717"/>
<path d="M118.209 86.3159C104.679 86.3159 90.2318 78.1092 81.2541 63.8415C75.0819 54.0361 72.3829 42.8593 73.6472 32.3646C74.9185 21.8202 80.0395 13.2298 88.0726 8.17076C96.0986 3.11172 106.064 2.20933 116.114 5.61993C126.114 9.01631 135.021 16.2851 141.193 26.0906C153.957 46.3765 150.902 71.352 134.375 81.7614C129.467 84.8522 123.92 86.3159 118.209 86.3159ZM104.267 5.00886C98.6982 5.00886 93.428 6.47257 88.8255 9.37158C81.1689 14.1961 76.2751 22.4242 75.0535 32.5352C73.8247 42.703 76.4527 53.5529 82.4544 63.0813C94.8059 82.7064 117.755 90.5507 133.615 80.5605C149.475 70.5704 152.337 46.476 139.986 26.8509C133.991 17.3225 125.347 10.2598 115.652 6.96995C111.803 5.66256 107.967 5.01597 104.26 5.01597L104.267 5.00886Z" fill="#080717"/>
<path d="M136.923 79.9718C153.143 69.7574 156.096 45.2727 143.518 25.2836C130.94 5.2945 107.594 -2.62948 91.3742 7.58487C75.1542 17.7992 72.2017 42.2839 84.7797 62.273C97.3578 82.2621 120.703 90.1861 136.923 79.9718Z" fill="white"/>
<path d="M121.128 85.1294C107.598 85.1294 93.151 76.9227 84.1733 62.655C78.0011 52.8496 75.3021 41.6728 76.5664 31.1781C77.8377 20.6337 82.9587 12.0433 90.9918 6.98424C99.0178 1.9252 108.983 1.02281 119.033 4.4334C129.033 7.82978 137.94 15.0986 144.112 24.9041C156.876 45.19 153.822 70.1654 137.294 80.5748C132.386 83.6657 126.839 85.1294 121.128 85.1294ZM107.186 3.82944C101.617 3.82944 96.3472 5.29316 91.7447 8.19216C84.088 13.0167 79.1943 21.2448 77.9727 31.3558C76.7439 41.5236 79.3719 52.3735 85.3736 61.9019C97.7251 81.527 120.674 89.3713 136.534 79.3811C152.394 69.3909 155.256 45.2965 142.905 25.6714C136.91 16.1431 128.266 9.08033 118.571 5.79053C114.722 4.48314 110.886 3.83655 107.179 3.83655L107.186 3.82944Z" fill="#080717"/>
<path d="M133.533 74.5841C147.336 65.8916 149.848 45.0529 139.142 28.0394C128.436 11.0259 108.568 4.28041 94.7645 12.9729C80.9612 21.6653 78.45 42.5041 89.1556 59.5175C99.8613 76.531 119.73 83.2765 133.533 74.5841Z" fill="white"/>
<path d="M120.07 79.1045C116.774 79.1045 113.365 78.5289 109.949 77.3707C101.411 74.4717 93.8116 68.2687 88.5485 59.9057C83.2855 51.5426 80.9771 42.0001 82.0567 33.0473C83.1434 24.0376 87.5186 16.6978 94.3798 12.3777C101.241 8.0576 109.75 7.28311 118.337 10.1963C126.874 13.0953 134.474 19.2983 139.737 27.6614C150.633 44.9772 148.019 66.3005 133.906 75.1894C129.779 77.79 125.049 79.1045 120.07 79.1045ZM108.223 9.88368C103.507 9.88368 99.0391 11.1271 95.1397 13.5785C88.6479 17.6641 84.5 24.6416 83.4701 33.2178C82.4331 41.8509 84.6634 51.0595 89.7489 59.1454C94.8414 67.2384 102.178 73.2283 110.403 76.0207C118.578 78.7989 126.654 78.0742 133.146 73.9886C146.598 65.5189 149.013 45.0767 138.537 28.4217C133.444 20.3286 126.107 14.3388 117.882 11.5463C114.615 10.4379 111.362 9.88368 108.223 9.88368Z" fill="#080717"/>
<path d="M132.784 167.098C132.784 167.098 132.72 167.098 132.684 167.098C132.294 167.041 132.024 166.686 132.081 166.295L135.064 145.369L130.752 138.449C127.265 132.857 125.425 126.412 125.425 119.826V111.91L124.026 95.2125C123.77 92.1429 125.511 89.3079 128.366 88.1568C131.235 87.0057 134.46 87.8442 136.399 90.2458L136.47 90.3311C136.719 90.6366 136.669 91.0842 136.363 91.3329C136.058 91.5816 135.611 91.5319 135.362 91.2263L135.291 91.1411C133.743 89.2226 131.171 88.5547 128.891 89.4784C126.619 90.395 125.226 92.6545 125.432 95.0917L126.839 111.846V119.818C126.839 126.142 128.607 132.324 131.953 137.689L136.399 144.829C136.484 144.972 136.52 145.142 136.498 145.306L133.48 166.487C133.43 166.842 133.125 167.098 132.777 167.098H132.784Z" fill="#080717"/>
<path d="M114.558 61.2769C114.487 61.2769 114.423 61.2769 114.352 61.2698H114.253H114.182C113.962 61.284 113.734 61.2698 113.507 61.2414C113.429 61.2343 113.351 61.2201 113.266 61.2201C113.06 61.2058 112.875 61.1916 112.69 61.1703C105.673 60.4953 98.9751 54.3847 94.0814 49.9154C92.043 48.0537 90.2886 46.4479 88.8823 45.5455C88.3851 45.2258 87.8169 44.7711 87.8169 44.1031C87.8169 43.4352 88.3851 42.9805 88.8823 42.6608C90.2815 41.7584 92.043 40.1525 94.0814 38.2909C98.9751 33.8287 105.673 27.711 112.697 27.036C112.875 27.0147 113.067 27.0005 113.251 26.9862C113.351 26.9862 113.429 26.972 113.507 26.9578C113.727 26.9294 113.955 26.9152 114.182 26.9294H114.281H114.352C114.573 26.9152 114.8 26.9294 115.027 26.9578C115.105 26.9649 115.19 26.9791 115.269 26.9791C115.475 26.9934 115.659 27.0076 115.844 27.0289C122.861 27.6968 129.559 33.8145 134.453 38.2838C136.278 39.9536 137.855 41.3889 139.176 42.3268C139.751 42.7318 140.405 43.3073 140.405 44.1031C140.405 44.899 139.737 45.4603 139.233 45.8155C137.898 46.7535 136.299 48.2101 134.453 49.9012C129.559 54.3633 122.861 60.4811 115.837 61.149C115.659 61.1703 115.475 61.1845 115.283 61.1987C115.183 61.1987 115.105 61.2129 115.027 61.2272C114.871 61.2485 114.715 61.2627 114.558 61.2627V61.2769ZM114.26 59.8416C114.338 59.8416 114.395 59.8416 114.452 59.8487C114.587 59.8558 114.722 59.8487 114.864 59.8274C114.977 59.8132 115.084 59.799 115.198 59.799C115.354 59.7848 115.531 59.7705 115.702 59.7563C122.258 59.1311 128.494 53.4396 133.501 48.8709C135.39 47.1443 137.017 45.6592 138.423 44.6716C138.956 44.295 138.991 44.1174 138.991 44.1174C138.991 44.1174 138.956 43.9255 138.359 43.5063C136.967 42.5186 135.362 41.0478 133.501 39.3496C128.494 34.7809 122.258 29.0894 115.709 28.4642C115.531 28.4429 115.354 28.4286 115.183 28.4215C115.091 28.4215 114.977 28.4073 114.864 28.3931C114.729 28.3789 114.587 28.3647 114.459 28.3718C114.402 28.3718 114.345 28.3789 114.288 28.3789C114.203 28.3789 114.153 28.3789 114.097 28.3718C113.962 28.3647 113.827 28.3718 113.685 28.3931C113.571 28.4073 113.465 28.4215 113.351 28.4215C113.195 28.4357 113.017 28.45 112.847 28.4642C106.291 29.0894 100.055 34.7809 95.0474 39.3496C92.9663 41.2539 91.1623 42.8952 89.6565 43.8616C89.486 43.9681 89.3795 44.0534 89.3156 44.1103C89.3795 44.1671 89.486 44.2524 89.6565 44.3589C91.1623 45.3253 92.9592 46.9666 95.0403 48.8709C100.048 53.4396 106.284 59.1311 112.832 59.7563C113.01 59.7777 113.188 59.7919 113.358 59.799C113.45 59.799 113.564 59.8132 113.67 59.8274C113.805 59.8416 113.947 59.8558 114.082 59.8487C114.139 59.8487 114.196 59.8416 114.253 59.8416H114.26Z" fill="#1D1D1B"/>
<path d="M124.497 46.5611C125.852 40.8169 122.296 35.0613 116.554 33.7055C110.812 32.3498 105.059 35.9073 103.704 41.6515C102.349 47.3957 105.905 53.1513 111.647 54.507C117.389 55.8628 123.142 52.3053 124.497 46.5611Z" fill="#080717"/>
<path d="M121.206 45.1618C124.019 45.1618 126.299 42.8809 126.299 40.0672C126.299 37.2536 124.019 34.9727 121.206 34.9727C118.394 34.9727 116.114 37.2536 116.114 40.0672C116.114 42.8809 118.394 45.1618 121.206 45.1618Z" fill="white"/>
<path d="M12.1242 165.989L25.1149 114.845C27.9417 103.725 38.0062 95.9869 49.4769 96.1219C57.6307 96.2142 65.2234 100.314 69.7833 107.078L109.466 165.989H12.1242Z" fill="#7874E8"/>
<path d="M102.647 166.28C102.356 166.28 102.065 166.131 101.909 165.854L75.7708 120.955C75.5365 120.55 75.6714 120.024 76.0763 119.79C76.4811 119.555 77.0067 119.69 77.2411 120.095L103.379 164.994C103.613 165.399 103.478 165.925 103.073 166.16C102.938 166.238 102.789 166.273 102.647 166.273V166.28Z" fill="#080717"/>
</g>
<defs>
<clipPath id="clip0_17_274">
<rect width="198" height="168" fill="white"/>
</clipPath>
</defs>
</svg>
