<svg width="474" height="473" viewBox="0 0 474 473" fill="none" xmlns="http://www.w3.org/2000/svg">
<g clip-path="url(#clip0_17_417)">
<path d="M120.968 304.463L112.093 288.418C95.6577 287.7 80.6389 278.46 72.6807 264.071C60.0154 241.22 68.3127 212.302 91.15 199.649C114.007 186.977 142.888 195.279 155.533 218.13C163.492 232.519 163.372 250.161 155.274 264.47L164.15 280.515L120.968 304.463ZM76.1711 262.135C83.6306 275.606 97.8716 284.167 113.329 284.467H114.486L122.544 299.035L158.745 278.958L150.687 264.41L151.285 263.432C159.223 250.161 159.522 233.536 152.063 220.065C140.475 199.131 114.007 191.547 93.1047 203.142C72.182 214.737 64.6028 241.2 76.1911 262.135H76.1711Z" fill="#282D33"/>
<path d="M135.768 296.561C135.03 296.561 134.332 296.161 133.993 295.463C133.853 295.183 122.165 272.193 113.329 256.946C109.081 257.844 104.793 257.684 101.003 256.347C96.2959 254.691 93.0847 251.478 91.9279 247.307C91.1101 244.313 93.1645 240.641 96.5353 239.104C98.3702 238.266 104.892 236.33 111.554 246.409C112.651 248.085 113.888 250.081 115.224 252.296C117.478 251.538 119.791 250.36 122.105 248.704C122.863 248.165 123.601 247.546 124.319 246.868C120.33 238.965 117.199 231.94 116.401 228.028C115.643 224.316 118.934 218.848 123.142 216.773C127.291 214.737 131.759 215.974 135.409 220.185C137.323 222.38 138.081 225.673 137.623 229.665C136.924 235.732 133.614 242.537 129.166 247.606C138.041 264.789 150.288 285.265 150.467 285.564C151.026 286.502 150.727 287.74 149.789 288.298C148.852 288.857 147.615 288.558 147.057 287.62C146.319 286.402 134.93 267.363 126.214 250.56C125.635 251.059 125.057 251.518 124.459 251.957C122.205 253.593 119.772 254.87 117.298 255.808C126.034 270.956 137.004 292.549 137.583 293.667C138.081 294.645 137.682 295.842 136.705 296.341C136.406 296.481 136.107 296.561 135.808 296.561H135.768ZM100.046 242.357C99.4074 242.357 98.7891 242.497 98.1907 242.757C96.3956 243.575 95.538 245.411 95.7773 246.269C96.5751 249.143 98.8888 251.398 102.319 252.595C104.653 253.414 107.725 253.793 111.155 253.294C110.098 251.558 109.121 249.981 108.223 248.624C105.511 244.533 102.639 242.337 100.046 242.337V242.357ZM127.151 219.806C126.393 219.806 125.655 219.986 124.897 220.365C121.746 221.921 120.011 225.813 120.31 227.25C120.988 230.643 123.681 236.73 127.191 243.754C130.582 239.444 133.115 233.995 133.653 229.226C133.893 227.23 133.853 224.516 132.397 222.82C130.662 220.824 128.906 219.826 127.151 219.826V219.806Z" fill="#080717"/>
<path d="M169.718 312.756L145.537 326.162C141.315 328.503 135.974 326.969 133.635 322.745L121.938 301.623L161.419 279.734L173.115 300.857C175.455 305.081 173.922 310.425 169.7 312.766L169.718 312.756Z" fill="#080717"/>
<path d="M166.92 287.034L124.054 310.799L126.181 314.639L169.046 290.875L166.92 287.034Z" fill="#080717"/>
<path d="M162.637 278.624L119.772 302.389L121.898 306.229L164.764 282.465L162.637 278.624Z" fill="#080717"/>
<path d="M52.6955 453.143L13.4232 423.207L24.5327 408.619C18.589 393.272 21.0024 375.79 30.9551 362.718C46.7917 341.923 76.57 337.891 97.3331 353.737C107.405 361.401 113.868 372.537 115.563 385.09C117.258 397.643 113.967 410.096 106.308 420.154C96.3557 433.226 80.1602 440.211 63.7851 438.554L52.6755 453.143H52.6955ZM19.0278 422.449L51.9376 447.535L62.0099 434.303L63.1468 434.443C78.4648 436.379 93.8027 429.973 103.137 417.719C110.158 408.499 113.17 397.084 111.614 385.608C110.058 374.113 104.134 363.915 94.9197 356.89C75.8919 342.402 48.6266 346.074 34.1264 365.113C24.792 377.366 22.6978 393.851 28.6414 408.14L29.0802 409.198L19.0079 422.429L19.0278 422.449Z" fill="#282D33"/>
<path d="M40.9477 443.464C40.5488 443.464 40.1499 443.344 39.7909 443.104C38.8933 442.466 38.6739 441.229 39.3122 440.33C40.1499 439.173 52.9747 421.092 64.8422 406.344C64.1441 406.024 63.4859 405.665 62.8476 405.286C60.4542 403.869 58.3001 402.173 56.4452 400.257C46.1135 414.346 30.7556 433.086 29.9578 434.064C29.2598 434.922 28.0032 435.042 27.1455 434.343C26.2879 433.645 26.1682 432.388 26.8663 431.529C27.0658 431.29 43.401 411.333 53.7925 397.104C51.2594 393.571 49.6837 389.58 49.3846 385.589C49.0056 380.619 50.6611 376.368 54.0119 373.654C56.4252 371.698 60.6138 372.118 63.3662 374.572C64.8621 375.929 69.27 381.098 62.728 391.276C61.6509 392.953 60.3146 394.888 58.8187 397.004C60.4143 398.76 62.4288 400.417 64.8621 401.853C65.6599 402.332 66.5176 402.751 67.4351 403.151C73.0596 396.325 78.2255 390.638 81.4965 388.323C84.588 386.147 90.9107 386.946 94.5008 389.979C98.0311 392.953 98.6893 397.543 96.2959 402.592C95.0593 405.226 92.3667 407.242 88.5172 408.419C82.6733 410.215 75.114 409.916 68.6916 407.88C56.5449 422.908 42.7228 442.366 42.5234 442.665C42.1444 443.204 41.5261 443.504 40.8879 443.504L40.9477 443.464ZM71.4839 404.488C76.7894 405.865 82.7929 405.985 87.3804 404.568C89.2951 403.989 91.7683 402.851 92.7257 400.836C94.3413 397.423 94.082 394.789 91.9678 392.993C89.2951 390.737 85.0268 390.697 83.8301 391.556C80.9979 393.551 76.5102 398.461 71.5039 404.488H71.4839ZM57.8214 376.388C57.2629 376.388 56.8042 376.508 56.5449 376.728C54.2313 378.604 53.1143 381.637 53.3736 385.269C53.5531 387.744 54.4507 390.717 56.2856 393.651C57.4624 391.995 58.4996 390.458 59.3772 389.101C62.6881 383.952 63.1867 379.741 60.7135 377.546C59.796 376.728 58.699 376.408 57.8015 376.408L57.8214 376.388Z" fill="#080717"/>
<path d="M25.4545 471.198L3.46432 454.436C-0.375236 451.509 -1.11977 445.999 1.80519 442.158L16.43 422.949L52.3505 450.329L37.7257 469.538C34.8008 473.38 29.2941 474.124 25.4545 471.198Z" fill="#080717"/>
<path d="M8.88302 428.573L6.22396 432.066L45.2066 461.78L47.8657 458.287L8.88302 428.573Z" fill="#080717"/>
<path d="M14.8556 421.292L12.1966 424.785L51.1792 454.499L53.8383 451.006L14.8556 421.292Z" fill="#080717"/>
<path d="M396.652 214.118L351.536 194.062L358.975 177.318C349.641 163.767 347.966 146.185 354.647 131.177C359.793 119.602 369.108 110.741 380.935 106.191C392.743 101.641 405.628 101.98 417.176 107.109C441.05 117.726 451.841 145.786 441.23 169.674C434.568 184.702 420.407 195.219 404.092 197.374L396.652 214.138V214.118ZM356.801 192.046L394.618 208.87L401.359 193.682L402.496 193.563C417.874 191.906 431.317 182.147 437.56 168.058C447.273 146.185 437.4 120.48 415.54 110.761C404.949 106.051 393.162 105.752 382.351 109.923C371.541 114.094 362.984 122.216 358.277 132.814C352.015 146.883 353.79 163.408 362.865 175.941L363.543 176.879L356.801 192.066V192.046Z" fill="#282D33"/>
<path d="M382.511 207.473C382.272 207.473 382.012 207.433 381.753 207.333C380.736 206.914 380.237 205.756 380.656 204.738C381.195 203.421 389.512 182.846 397.669 165.763C396.931 165.603 396.193 165.423 395.495 165.204C392.843 164.386 390.349 163.228 388.116 161.791C381.314 177.896 370.683 199.669 370.145 200.787C369.666 201.785 368.469 202.184 367.472 201.705C366.475 201.226 366.076 200.029 366.555 199.031C366.694 198.751 378.003 175.561 384.825 159.316C381.534 156.463 379.08 152.95 377.864 149.118C376.348 144.369 376.966 139.858 379.619 136.426C381.514 133.971 385.702 133.392 388.933 135.169C390.708 136.126 396.173 140.158 392.144 151.553C391.466 153.449 390.629 155.624 389.651 158.019C391.606 159.356 393.94 160.514 396.652 161.352C397.55 161.631 398.487 161.851 399.464 162.011C403.354 154.068 407.084 147.342 409.736 144.329C412.249 141.495 418.572 140.816 422.78 142.932C426.909 145.007 428.604 149.338 427.448 154.786C426.849 157.64 424.695 160.215 421.225 162.27C415.959 165.363 408.54 166.82 401.818 166.321C393.461 183.744 384.505 205.876 384.366 206.195C384.047 206.974 383.309 207.453 382.511 207.453V207.473ZM403.713 162.45C409.218 162.569 415.062 161.292 419.19 158.857C420.926 157.84 423.08 156.183 423.538 153.988C424.316 150.296 423.459 147.781 420.985 146.524C417.854 144.947 413.705 145.905 412.728 147.003C410.434 149.597 407.203 155.405 403.713 162.43V162.45ZM384.864 138.162C383.887 138.162 383.089 138.481 382.77 138.9C380.955 141.255 380.556 144.468 381.653 147.941C382.411 150.296 383.967 152.99 386.42 155.425C387.178 153.529 387.836 151.793 388.375 150.276C390.409 144.508 389.911 140.297 387.019 138.721C386.301 138.322 385.543 138.182 384.864 138.182V138.162Z" fill="#080717"/>
<path d="M374.281 237.975L349.019 226.742C344.608 224.781 342.613 219.591 344.574 215.178L354.374 193.111L395.621 211.451L385.82 233.518C383.86 237.932 378.674 239.928 374.263 237.967L374.281 237.975Z" fill="#080717"/>
<path d="M348.348 200.335L346.566 204.347L391.349 224.259L393.131 220.247L348.348 200.335Z" fill="#080717"/>
<path d="M352.479 191.839L350.697 195.852L395.48 215.764L397.261 211.752L352.479 191.839Z" fill="#080717"/>
<path d="M126.872 142.153L28.1428 125.35L24.1338 99.246L126.872 142.153Z" fill="#080717"/>
<path d="M126.792 106.989L56.4452 80.0673L65.6599 59.9507L126.792 106.989Z" fill="#080717"/>
<path d="M119.014 160.254L74.2563 175.442L74.9744 158.359L119.014 160.254Z" fill="#080717"/>
<path d="M392.025 257.824L474 315.38L466.441 340.685L392.025 257.824Z" fill="#080717"/>
<path d="M381.195 275.306L413.965 328.432L391.845 337.173L381.195 275.306Z" fill="#080717"/>
<path d="M406.884 244.852L453.815 250.34L445.857 265.448L406.884 244.852Z" fill="#080717"/>
<path d="M326.963 38.5569C326.265 38.5569 325.587 38.1976 325.228 37.5391C324.69 36.5811 325.029 35.3637 325.986 34.8249L349.422 21.5336C350.379 20.9947 351.596 21.334 352.134 22.2919C352.673 23.2499 352.334 24.4672 351.376 25.0061L327.941 38.2974C327.621 38.477 327.282 38.5569 326.963 38.5569Z" fill="black"/>
<path d="M312.802 14.8679C312.323 14.8679 311.825 14.6883 311.446 14.3291C310.628 13.5707 310.588 12.3134 311.346 11.5152L321.418 0.638616C322.176 -0.17962 323.433 -0.219534 324.231 0.538831C325.049 1.2972 325.088 2.55448 324.33 3.35276L314.258 14.2293C313.859 14.6484 313.341 14.8679 312.802 14.8679Z" fill="black"/>
<path d="M339.309 63.3434C338.352 63.3434 337.514 62.6649 337.355 61.7069C337.155 60.6293 337.873 59.5915 338.97 59.3919L353.55 56.7776C354.647 56.578 355.665 57.2964 355.864 58.3941C356.063 59.4717 355.345 60.5095 354.248 60.7091L339.668 63.3234C339.549 63.3434 339.429 63.3634 339.309 63.3634V63.3434Z" fill="black"/>
<path d="M325.104 163.263L309.237 179.139L312.058 181.961L327.925 166.085L325.104 163.263Z" fill="#080717"/>
<path d="M312.058 163.269L309.237 166.091L325.104 181.967L327.925 179.144L312.058 163.269Z" fill="#080717"/>
<path d="M264.082 204.53L244.559 210.994L275.663 305.045L295.186 298.581L264.082 204.53Z" fill="white"/>
<path d="M275.664 307.058C275.365 307.058 275.046 306.978 274.766 306.838C274.288 306.599 273.929 306.18 273.769 305.681L242.674 211.644C242.335 210.606 242.894 209.468 243.931 209.129L263.457 202.663C263.956 202.503 264.515 202.543 264.973 202.783C265.452 203.022 265.811 203.441 265.971 203.94L297.065 297.977C297.404 299.015 296.846 300.153 295.809 300.492L276.282 306.958C276.083 307.018 275.863 307.058 275.664 307.058ZM247.082 212.282L276.921 302.528L292.657 297.319L262.819 207.073L247.082 212.282Z" fill="#080717"/>
<path d="M369.267 466.235L296.208 354.096L309.731 348.528C324.131 345.575 336.956 337.452 345.712 325.678L350.539 319.691L333.745 253.553L271.874 261.416L369.287 466.255L369.267 466.235Z" fill="white"/>
<path d="M369.287 468.23C368.629 468.23 367.991 467.911 367.612 467.332L294.552 355.194C294.233 354.695 294.133 354.076 294.313 353.518C294.492 352.959 294.911 352.5 295.45 352.26L308.973 346.692C309.092 346.652 309.212 346.613 309.332 346.573C323.273 343.719 335.62 335.876 344.116 324.5L348.365 319.232L332.249 255.768L272.134 263.412C271.037 263.552 270.039 262.773 269.9 261.676C269.76 260.578 270.538 259.58 271.635 259.441L333.505 251.577C334.483 251.458 335.44 252.096 335.679 253.074L352.473 319.212C352.633 319.83 352.473 320.469 352.094 320.948L347.268 326.935C338.292 339.009 325.148 347.371 310.329 350.444L299.199 355.034L370.943 465.157C371.541 466.075 371.282 467.312 370.364 467.911C370.025 468.131 369.646 468.23 369.287 468.23Z" fill="#080717"/>
<path d="M260.266 324.58C262.44 309.173 258.87 293.507 250.194 280.555L245.208 273.111L264.834 260.079C272.373 255.07 277.14 246.828 277.698 237.807C277.898 234.534 274.826 232.02 271.635 232.898L232.223 243.615C216.805 247.806 206.494 262.254 207.591 278.12L209.665 308.515L250.792 466.215L260.266 324.56V324.58Z" fill="white"/>
<path d="M250.792 468.23C249.915 468.23 249.097 467.632 248.857 466.734L207.73 309.034C207.69 308.914 207.67 308.794 207.67 308.674L205.596 278.28C204.439 261.516 215.429 246.129 231.705 241.699L271.116 230.982C273.231 230.403 275.504 230.882 277.2 232.279C278.915 233.676 279.813 235.752 279.673 237.947C279.075 247.526 273.929 256.427 265.911 261.756L247.96 273.69L251.829 279.477C260.765 292.848 264.455 308.974 262.221 324.879C262.061 325.977 261.064 326.735 259.967 326.576C258.87 326.416 258.112 325.418 258.272 324.321C260.386 309.373 256.915 294.245 248.518 281.693L243.532 274.249C243.233 273.81 243.133 273.271 243.233 272.752C243.333 272.233 243.652 271.774 244.091 271.475L263.717 258.443C270.698 253.813 275.185 246.049 275.704 237.727C275.764 236.829 275.385 235.971 274.687 235.392C273.969 234.814 273.051 234.614 272.154 234.854L232.742 245.57C218.301 249.502 208.548 263.153 209.565 278.02L211.64 308.235L252.707 465.756C252.986 466.813 252.348 467.911 251.291 468.19C251.111 468.23 250.952 468.25 250.792 468.25V468.23Z" fill="#080717"/>
<path d="M235.595 234.006L285.017 217.642L312.443 300.571C316.284 312.185 309.968 324.724 298.38 328.561L291.014 331C279.406 334.843 266.875 328.524 263.04 316.929L235.614 234L235.595 234.006Z" fill="#080717"/>
<path d="M250.856 211.327C282.893 198.816 291.64 144.518 270.394 90.0478C249.147 35.578 205.953 1.56347 173.916 14.0743C141.879 26.5851 133.132 80.8837 154.378 135.353C175.624 189.823 218.819 223.838 250.856 211.327Z" fill="#080717"/>
<path d="M236.99 215.874C206.454 215.874 171.071 183.644 152.502 136.067C130.881 80.6461 140.156 25.0859 173.165 12.1937C206.155 -0.698488 250.613 33.8869 272.233 89.3074C293.854 144.728 284.58 200.288 251.57 213.18C246.903 214.996 241.996 215.874 236.97 215.874H236.99ZM187.964 13.451C183.357 13.451 178.889 14.2493 174.621 15.9257C143.666 28.0196 135.409 81.2648 156.232 134.63C177.054 187.995 219.179 221.562 250.134 209.468C281.089 197.374 289.346 144.129 268.524 90.7643C250.573 44.7635 216.785 13.451 187.964 13.451Z" fill="#080717"/>
<path d="M263.037 206.86C292.734 195.263 299.585 141.705 278.339 87.2354C257.092 32.7656 215.794 -1.98954 186.097 9.60762C156.4 21.2048 149.549 74.7626 170.796 129.232C192.042 183.702 233.34 218.457 263.037 206.86Z" fill="white"/>
<path d="M250.892 211.085C238.845 211.085 225.601 205.377 212.477 194.321C194.806 179.453 179.348 156.582 168.957 129.92C147.336 74.5193 154.696 19.6776 185.372 7.70339C200.45 1.81608 218.66 6.92507 236.671 22.0724C254.342 36.9403 269.8 59.811 280.192 86.4735C290.583 113.136 294.712 140.417 291.78 163.348C288.788 186.697 278.855 202.803 263.777 208.69C259.688 210.287 255.38 211.065 250.892 211.065V211.085ZM198.236 9.33986C194.247 9.33986 190.418 10.0384 186.808 11.4553C158.186 22.6312 151.844 75.138 172.666 128.503C182.819 154.547 197.877 176.839 215.05 191.287C231.884 205.457 248.678 210.326 262.321 204.998C275.963 199.669 285.018 184.702 287.811 162.869C290.663 140.597 286.634 113.994 276.462 87.9503C266.31 61.9065 251.251 39.6146 234.078 25.1657C221.692 14.7482 209.326 9.35982 198.236 9.35982V9.33986Z" fill="#080717"/>
<path d="M259.511 191.308C283.554 181.919 288.386 136.727 270.303 90.3683C252.221 44.0099 218.071 14.0404 194.028 23.4296C169.985 32.8187 165.153 78.011 183.236 124.369C201.318 170.728 235.468 200.697 259.511 191.308Z" fill="white"/>
<path d="M250.353 194.98C226.579 194.98 197.498 166.441 181.363 125.09C162.913 77.7723 168.259 31.3324 193.29 21.5535C205.656 16.7239 220.715 21.314 235.714 34.4657C250.353 47.3179 263.298 66.8957 272.174 89.6267C290.623 136.945 285.278 183.385 260.246 193.163C257.095 194.401 253.784 194.98 250.353 194.98ZM203.422 23.6689C200.39 23.6689 197.478 24.1878 194.746 25.2655C171.769 34.2461 167.421 78.371 185.092 123.633C200.61 163.428 228.055 191.048 250.074 191.048C253.106 191.048 256.038 190.529 258.81 189.431C281.787 180.451 286.135 136.326 268.464 91.0636C259.827 68.9313 247.262 49.8924 233.101 37.4592C222.749 28.3788 212.497 23.6689 203.442 23.6689H203.422Z" fill="#080717"/>
<path d="M209.665 308.854L207.591 278.32C206.494 262.374 216.805 247.865 232.223 243.655L271.635 232.898C274.806 232.04 277.898 234.554 277.698 237.827C277.14 246.888 272.373 255.15 264.834 260.179L245.208 273.271L250.194 280.755C258.85 293.747 262.44 309.493 260.266 324.959L209.665 308.834V308.854Z" fill="white"/>
<path d="M260.266 326.975C260.266 326.975 260.087 326.975 259.987 326.975C258.89 326.815 258.132 325.817 258.292 324.72C260.406 309.712 256.935 294.505 248.538 281.892L243.552 274.408C243.253 273.969 243.153 273.43 243.253 272.911C243.353 272.393 243.652 271.934 244.111 271.634L263.737 258.542C270.718 253.893 275.205 246.109 275.724 237.727C275.784 236.809 275.405 235.951 274.687 235.372C273.969 234.794 273.051 234.594 272.174 234.834L232.762 245.59C218.321 249.542 208.568 263.252 209.585 278.2L211.66 308.734C211.739 309.832 210.902 310.79 209.805 310.87C208.668 310.949 207.75 310.111 207.67 309.014L205.596 278.479C204.439 261.636 215.429 246.189 231.705 241.759L271.116 231.002C273.271 230.423 275.484 230.882 277.2 232.299C278.915 233.696 279.833 235.772 279.693 238.007C279.095 247.626 273.949 256.547 265.931 261.895L247.96 273.869L251.829 279.677C260.765 293.108 264.455 309.293 262.221 325.279C262.081 326.276 261.224 326.995 260.246 326.995L260.266 326.975Z" fill="#080717"/>
<path d="M336.058 275.306C332.209 275.306 328.359 273.71 325.627 270.577C321.299 265.627 309.83 262.634 305.263 262.015C297.684 260.997 292.338 254.032 293.355 246.449C294.373 238.865 301.334 233.516 308.913 234.534C311.466 234.874 334.183 238.266 346.47 252.316C351.516 258.083 350.918 266.845 345.173 271.874C342.541 274.169 339.289 275.306 336.058 275.306Z" fill="white"/>
<path d="M336.058 277.302C331.491 277.302 327.143 275.326 324.131 271.894C320.381 267.623 309.83 264.649 305.003 263.991C300.815 263.432 297.085 261.277 294.512 257.904C291.939 254.531 290.842 250.38 291.401 246.169C291.959 241.978 294.113 238.246 297.484 235.672C300.855 233.097 305.003 232 309.212 232.559C311.845 232.918 335.241 236.41 348.006 250.999C350.798 254.192 352.174 258.263 351.895 262.494C351.616 266.725 349.701 270.577 346.51 273.37C343.618 275.905 339.908 277.302 336.078 277.302H336.058ZM307.058 236.39C304.465 236.39 301.972 237.228 299.878 238.825C297.364 240.741 295.749 243.535 295.33 246.688C294.911 249.821 295.749 252.955 297.664 255.469C299.578 257.984 302.371 259.6 305.522 260.019C310.528 260.678 322.376 263.811 327.123 269.239C329.377 271.814 332.628 273.291 336.058 273.291C338.93 273.291 341.703 272.253 343.857 270.357C346.25 268.262 347.666 265.388 347.886 262.215C348.105 259.041 347.068 255.988 344.974 253.613C333.166 240.102 311.127 236.829 308.653 236.49C308.115 236.41 307.576 236.39 307.058 236.39Z" fill="#080717"/>
<path d="M337.375 301.649C333.525 301.649 329.676 300.053 326.943 296.92C322.655 292.01 311.346 289.037 306.539 288.358C298.98 287.3 293.675 280.316 294.712 272.752C295.749 265.188 302.67 259.86 310.249 260.877C312.802 261.217 335.52 264.609 347.806 278.659C352.852 284.427 352.254 293.188 346.51 298.217C343.877 300.512 340.626 301.649 337.395 301.649H337.375Z" fill="white"/>
<path d="M337.375 303.645C332.807 303.645 328.459 301.669 325.447 298.237C321.558 293.786 310.648 290.953 306.26 290.334C297.624 289.117 291.56 281.114 292.737 272.472C293.914 263.831 301.872 257.744 310.508 258.902C313.121 259.261 336.517 262.753 349.302 277.342C352.094 280.535 353.471 284.606 353.191 288.837C352.912 293.068 350.997 296.92 347.806 299.714C344.914 302.248 341.204 303.645 337.375 303.645ZM308.394 262.733C302.57 262.733 297.484 267.064 296.666 272.991C295.789 279.457 300.316 285.444 306.799 286.362C310.808 286.921 323.393 289.835 328.439 295.583C330.693 298.157 333.944 299.634 337.375 299.634C340.247 299.634 343.019 298.596 345.173 296.7C347.567 294.605 348.983 291.731 349.202 288.558C349.422 285.405 348.385 282.331 346.29 279.956C334.483 266.445 312.443 263.172 309.97 262.833C309.431 262.753 308.913 262.733 308.394 262.733Z" fill="#080717"/>
<path d="M328.26 321.946C323.932 316.996 312.463 314.003 307.896 313.384C300.316 312.366 294.991 305.401 295.988 297.818C297.005 290.234 303.946 284.886 311.546 285.903C314.099 286.243 336.816 289.635 349.103 303.685C354.149 309.453 353.55 318.214 347.806 323.243L328.26 321.946Z" fill="white"/>
<path d="M347.806 325.239C347.248 325.239 346.709 324.999 346.31 324.56C345.592 323.722 345.672 322.465 346.49 321.746C351.416 317.435 351.915 309.932 347.607 305.002C335.799 291.491 313.76 288.218 311.286 287.879C308.115 287.46 305.023 288.278 302.51 290.214C299.997 292.13 298.382 294.924 297.963 298.077C297.544 301.21 298.382 304.344 300.296 306.858C302.211 309.373 305.004 310.989 308.155 311.408C313.161 312.067 325.009 315.2 329.756 320.629C330.474 321.467 330.394 322.724 329.576 323.443C328.738 324.161 327.482 324.081 326.764 323.263C323.014 318.992 312.463 316.019 307.636 315.36C303.448 314.801 299.718 312.646 297.145 309.273C294.572 305.9 293.455 301.749 294.034 297.538C294.592 293.347 296.746 289.615 300.117 287.041C303.488 284.467 307.656 283.369 311.845 283.928C314.478 284.287 337.873 287.779 350.638 302.368C356.383 308.954 355.724 318.992 349.142 324.74C348.763 325.079 348.305 325.239 347.826 325.239H347.806Z" fill="#080717"/>
<path d="M234.178 42.0892C246.165 20.0767 273.729 11.9542 295.729 23.9683C317.729 35.9624 325.846 63.543 313.839 85.5555C305.801 100.304 290.782 108.765 275.125 109.165L266.768 124.511L226.938 102.778L235.295 87.4314C227.157 74.0403 226.14 56.8175 234.158 42.0892H234.178Z" fill="#7874E8"/>
<path d="M254.183 119.462C253.884 119.462 253.585 119.403 253.285 119.243C252.308 118.744 251.909 117.547 252.388 116.569C253.026 115.291 262.979 95.4741 272.493 79.1094C271.755 78.8899 271.057 78.6504 270.359 78.371C267.766 77.3332 265.392 75.9762 263.278 74.3796C255.18 89.8862 242.854 110.721 242.216 111.799C241.657 112.757 240.421 113.056 239.483 112.497C238.526 111.939 238.227 110.701 238.785 109.763C238.945 109.504 252.089 87.3117 260.206 71.6654C257.155 68.5522 255.001 64.8601 254.103 60.9486C252.986 56.099 253.963 51.6486 256.875 48.4355C258.97 46.1405 263.178 45.921 266.27 47.9366C267.965 49.0342 273.091 53.5046 268.165 64.5408C267.347 66.3769 266.33 68.4923 265.173 70.7873C267.028 72.2841 269.242 73.6212 271.894 74.6789C272.752 75.0182 273.669 75.3176 274.627 75.5571C279.154 67.9535 283.403 61.5473 286.295 58.7732C289.027 56.1589 295.39 55.9793 299.399 58.434C303.348 60.8488 304.684 65.2792 303.089 70.6277C302.251 73.4217 299.898 75.8165 296.287 77.5727C290.783 80.227 283.263 81.0851 276.621 80.0274C266.888 96.7314 256.177 118.045 256.018 118.365C255.679 119.063 254.961 119.462 254.243 119.462H254.183ZM278.795 76.2755C284.24 76.8343 290.204 76.056 294.512 73.9605C296.307 73.0824 298.601 71.6056 299.239 69.4702C300.316 65.858 299.658 63.2835 297.285 61.8267C294.293 60.0106 290.084 60.6093 289.027 61.6271C286.534 64.0219 282.824 69.55 278.795 76.2755ZM261.622 50.531C260.805 50.531 260.127 50.7705 259.827 51.1098C257.833 53.325 257.175 56.4782 257.992 60.0305C258.551 62.4453 259.887 65.2393 262.141 67.8736C263.039 66.0575 263.856 64.3812 264.515 62.9043C267.008 57.3164 266.848 53.0855 264.096 51.2694C263.298 50.7505 262.42 50.531 261.642 50.531H261.622Z" fill="#BEBDEC"/>
<path d="M243.349 149.207L219.078 135.967C214.84 133.655 213.271 128.321 215.582 124.081L227.134 102.879L266.763 124.498L255.211 145.7C252.9 149.94 247.569 151.51 243.331 149.198L243.349 149.207Z" fill="#080717"/>
<path d="M220.539 109.571L218.439 113.426L261.465 136.898L263.565 133.043L220.539 109.571Z" fill="#080717"/>
<path d="M225.353 101.452L223.253 105.307L266.279 128.779L268.38 124.924L225.353 101.452Z" fill="#080717"/>
<path d="M176.21 395.86L172.867 398.038L179.941 408.909L183.284 406.731L176.21 395.86Z" fill="#080717"/>
<path d="M154.472 362.452L151.129 364.629L158.204 375.5L161.547 373.322L154.472 362.452Z" fill="#080717"/>
<path d="M193.491 382.271L180.546 382.968L180.76 386.953L193.706 386.256L193.491 382.271Z" fill="#080717"/>
<path d="M153.693 384.407L140.747 385.104L140.962 389.089L153.907 388.392L153.693 384.407Z" fill="#080717"/>
<path d="M159.354 396.788L153.484 408.354L157.041 410.161L162.911 398.595L159.354 396.788Z" fill="#080717"/>
<path d="M177.41 361.257L171.54 372.823L175.097 374.63L180.967 363.064L177.41 361.257Z" fill="#080717"/>
<path d="M41.8944 304.412L35.9718 306.738L37.4292 310.454L43.3519 308.128L41.8944 304.412Z" fill="#080717"/>
<path d="M60.1047 297.264L54.182 299.59L55.6395 303.306L61.5621 300.979L60.1047 297.264Z" fill="#080717"/>
<path d="M45.791 310.108L44.8439 316.403L48.7886 316.997L49.7356 310.702L45.791 310.108Z" fill="#080717"/>
<path d="M48.7137 290.734L47.7667 297.03L51.7113 297.624L52.6583 291.328L48.7137 290.734Z" fill="#080717"/>
<path d="M39.8739 294.195L37.3869 297.316L42.3614 301.285L44.8485 298.164L39.8739 294.195Z" fill="#080717"/>
<path d="M55.1702 306.414L52.6831 309.535L57.6577 313.504L60.1447 310.383L55.1702 306.414Z" fill="#080717"/>
<path d="M48.63 185.228L56.6405 188.891L56.6726 188.905C57.1793 189.136 57.3998 189.734 57.1624 190.238C57.1023 190.369 57.0113 190.484 56.9088 190.574L34.6586 209.935L5.17671 210.626C4.61837 210.639 4.15703 210.199 4.14865 209.645C4.14596 209.501 4.17429 209.362 4.22622 209.238L4.24284 209.201L7.69634 201.095C7.91904 200.57 8.52693 200.323 9.05146 200.543C9.57792 200.762 9.82289 201.365 9.59944 201.888L6.14594 209.994L5.21132 208.568L34.6632 209.936L55.501 189.077L55.7719 190.761L47.7614 187.098C47.2433 186.86 47.0183 186.251 47.2597 185.735C47.5011 185.218 48.1145 184.992 48.6327 185.229L48.63 185.228Z" fill="#545469"/>
<path d="M26.2364 188.181L9.30399 202.282L8.62178 200.465L31.161 200.888L47.5285 185.386L48.2493 187.189L26.2364 188.181ZM25.4933 186.264L48.1591 185.135L48.2028 185.134C48.7644 185.105 49.2417 185.535 49.2653 186.094C49.2808 186.432 49.1235 186.742 48.8779 186.939L31.1598 200.891L8.66895 202.522C8.10794 202.563 7.62138 202.144 7.58465 201.585C7.56071 201.248 7.70686 200.938 7.9483 200.737L7.98674 200.704L25.4933 186.264Z" fill="#545469"/>
<path d="M41.9664 228.768C41.6924 228.874 41.3874 228.86 41.1262 228.73L4.7264 210.512C4.2173 210.257 4.01285 209.638 4.27296 209.13C4.53114 208.622 5.15535 208.418 5.66252 208.673L41.0399 226.378L55.2403 189.458C55.445 188.927 56.0421 188.658 56.5768 188.859C57.1097 189.06 57.3771 189.652 57.1731 190.185L42.5608 228.172C42.4555 228.444 42.2396 228.66 41.9656 228.766L41.9664 228.768Z" fill="#545469"/>
<path d="M34.6678 209.936L42.3186 226.814C42.5524 227.332 42.3213 227.943 41.7999 228.178C41.2785 228.414 40.6647 228.187 40.4308 227.669C40.4175 227.635 40.4034 227.598 40.39 227.564L34.6639 209.938C34.6639 209.938 34.6632 209.936 34.6651 209.935C34.6651 209.935 34.667 209.934 34.6678 209.936Z" fill="#545469"/>
<path d="M403.074 74.1492L404.244 79.6976L404.249 79.7196C404.323 80.0703 404.099 80.4131 403.747 80.4832C403.656 80.5023 403.562 80.4991 403.476 80.4806L384.937 76.3751L373.295 61.3797C373.074 61.0959 373.125 60.6886 373.409 60.4722C373.483 60.4155 373.565 60.3771 373.649 60.3566L373.675 60.3509L379.193 59.0355C379.55 58.9499 379.91 59.1702 379.997 59.5258C380.085 59.8821 379.867 60.2398 379.51 60.3243L373.993 61.6398L374.373 60.6099L384.939 76.3777L403.712 79.179L402.944 79.9639L401.773 74.4154C401.698 74.0562 401.927 73.7067 402.287 73.6339C402.647 73.5611 402.999 73.7919 403.074 74.151L403.074 74.1492Z" fill="#545469"/>
<path d="M392.973 63.6887L379.193 60.3223L379.873 59.2735L388.282 71.1016L402.57 73.6395L401.913 74.7026L392.973 63.6887ZM393.681 62.5702L402.942 73.8699L402.959 73.8919C403.189 74.1718 403.149 74.5833 402.869 74.8096C402.7 74.9469 402.479 74.9841 402.283 74.9322L388.28 71.102L378.826 60.0853C378.59 59.8107 378.621 59.3983 378.896 59.1654C379.061 59.0242 379.278 58.9812 379.474 59.029L379.506 59.0365L393.681 62.5702Z" fill="#545469"/>
<path d="M377.987 87.3665C377.827 87.2654 377.718 87.1022 377.685 86.9172L373.182 61.1029C373.118 60.7421 373.361 60.3993 373.723 60.3393C374.085 60.2786 374.43 60.5234 374.492 60.8836L378.87 85.972L403.415 79.1899C403.768 79.0926 404.135 79.2987 404.237 79.6522C404.336 80.005 404.132 80.3702 403.778 80.4686L378.523 87.4461C378.342 87.4957 378.147 87.4666 377.988 87.3654L377.987 87.3665Z" fill="#545469"/>
<path d="M384.941 76.3802L379.133 86.8009C378.955 87.12 378.55 87.2345 378.228 87.0546C377.907 86.8748 377.79 86.4701 377.968 86.1511C377.981 86.1309 377.994 86.1097 378.007 86.0896L384.938 76.3788C384.938 76.3788 384.939 76.3777 384.94 76.3784C384.94 76.3784 384.941 76.3791 384.941 76.3802Z" fill="#545469"/>
</g>
<defs>
<clipPath id="clip0_17_417">
<rect width="474" height="473" fill="white"/>
</clipPath>
</defs>
</svg>
