<svg width="74" height="39" viewBox="0 0 74 39" fill="none" xmlns="http://www.w3.org/2000/svg">
<path fill-rule="evenodd" clip-rule="evenodd" d="M73.9646 32.7238L61.1524 32.7469L52.7653 20.4378V0.72025H60.2815L60.4969 25.0691H73.9646V32.7238Z" fill="#D9D9D9"/>
<path fill-rule="evenodd" clip-rule="evenodd" d="M60.2749 0.72013H50.9554L40.3435 16.665V32.7191H32.1549V18.3821C32.1826 18.3775 32.2103 18.3744 32.2379 18.3698C34.1735 18.0713 35.5014 16.2603 35.2014 14.3247C34.9552 12.7276 33.6796 11.546 32.1549 11.3475V0.610888H40.3435V16.665L50.9016 32.7191H60.2749L49.2999 16.7096L60.2749 0.72013Z" fill="#D9D9D9"/>
<path fill-rule="evenodd" clip-rule="evenodd" d="M10.7819 18.1976C8.06618 15.2695 6.87682 12.2707 8.05541 10.6229C9.24631 8.95961 12.5221 9.13809 16.2132 10.8106C16.1871 10.8152 16.1594 10.8183 16.1332 10.8229C12.6267 11.4045 10.248 14.6956 10.7819 18.1976ZM7.99233 8.25953C8.23851 9.74585 7.23378 11.1506 5.74746 11.3953C4.26114 11.6414 2.85637 10.6367 2.61019 9.1504C2.364 7.66408 3.36873 6.2593 4.85505 6.01312C6.34137 5.76694 7.74615 6.77167 7.99233 8.25799V8.25953Z" fill="#D9D9D9"/>
<path fill-rule="evenodd" clip-rule="evenodd" d="M13.5514 22.5904C9.46168 22.475 6.40749 21.1872 6.07053 19.1562C5.74127 17.1621 8.11845 15.0034 11.8296 13.5725C10.9234 14.9019 10.5095 16.5698 10.7926 18.2838C11.0942 20.1086 12.1312 21.6288 13.5498 22.5904M5.45816 19.0777C5.70434 20.5641 4.69961 21.9688 3.21329 22.215C1.72697 22.4612 0.322197 21.4565 0.0760151 19.9701C-0.170166 18.4838 0.834562 17.079 2.32088 16.8329C3.8072 16.5867 5.21198 17.5914 5.45816 19.0777Z" fill="#D9D9D9"/>
<path fill-rule="evenodd" clip-rule="evenodd" d="M18.6043 23.5536C15.5748 26.4878 12.4113 27.8141 10.7019 26.5909C9.05403 25.4107 9.21405 22.1858 10.8419 18.5346C11.542 21.9288 14.8054 24.1921 18.2551 23.6198C18.372 23.5998 18.4889 23.5767 18.6043 23.5521M11.4158 28.5496C11.662 30.0359 10.6557 31.4406 9.17097 31.6868C7.68465 31.933 6.27987 30.9283 6.03369 29.442C5.78751 27.9556 6.79224 26.5509 8.27856 26.3047C9.76488 26.0585 11.1697 27.0632 11.4158 28.5496Z" fill="#D9D9D9"/>
<path fill-rule="evenodd" clip-rule="evenodd" d="M22.6754 20.6886C22.6369 24.9798 21.3306 28.2264 19.2335 28.5741C17.2025 28.9111 14.9976 26.4354 13.5698 22.6011C14.8961 23.4951 16.5532 23.9028 18.2549 23.6212C20.1536 23.3058 21.7215 22.1965 22.6754 20.6886ZM22.42 31.1128C22.6662 32.5992 21.6615 34.0039 20.1751 34.2501C18.6888 34.4963 17.284 33.4916 17.0379 32.0052C16.7917 30.5189 17.7964 29.1142 19.2827 28.868C20.769 28.6218 22.1738 29.6265 22.42 31.1128Z" fill="#D9D9D9"/>
<path fill-rule="evenodd" clip-rule="evenodd" d="M31.7934 25.292C32.0396 26.7784 31.0349 28.1831 29.5486 28.4293C28.0623 28.6755 26.6575 27.6708 26.4113 26.1845C26.1651 24.6981 27.1698 23.2934 28.6562 23.0472C30.1425 22.801 31.5473 23.8057 31.7934 25.292ZM23.5587 15.9648C26.5452 19.0175 27.9038 22.2209 26.6713 23.9442C25.4497 25.6505 22.0354 25.4182 18.2258 23.6257L18.2549 23.6212C21.7892 23.035 24.1787 19.6945 23.5941 16.1603C23.5833 16.0941 23.571 16.0295 23.5587 15.9648Z" fill="#D9D9D9"/>
<path fill-rule="evenodd" clip-rule="evenodd" d="M34.3862 14.4633C34.6323 15.9496 33.6276 17.3544 32.1413 17.6005C30.655 17.8467 29.2502 16.842 29.004 15.3557C28.7578 13.8693 29.7626 12.4646 31.2489 12.2184C32.7352 11.9722 34.14 12.9769 34.3862 14.4633ZM21.0062 11.9738C25.1805 12.0584 28.3132 13.3539 28.6532 15.4126C29.0009 17.5082 26.353 19.79 22.3079 21.2117C23.3834 19.8316 23.9019 18.0237 23.5926 16.1604C23.3034 14.4094 22.3371 12.94 21.0047 11.9722L21.0062 11.9738Z" fill="#D9D9D9"/>
<path fill-rule="evenodd" clip-rule="evenodd" d="M17.5813 2.28193C17.8275 3.76825 16.8228 5.17302 15.3364 5.4192C13.8501 5.66539 12.4453 4.66066 12.1992 3.17434C11.953 1.68802 12.9577 0.283244 14.444 0.0370624C15.9303 -0.209119 17.3351 0.797148 17.5813 2.28193ZM12.0638 13.2524C12.2192 9.27348 13.4962 6.32392 15.4903 5.99311C17.5505 5.65154 19.7908 8.20413 21.2171 12.1338C19.8323 11.0398 18.0104 10.5121 16.1332 10.8229C14.453 11.1014 13.03 12.0046 12.0638 13.2524Z" fill="#D9D9D9"/>
<path fill-rule="evenodd" clip-rule="evenodd" d="M28.3994 4.81601C28.6456 6.30233 27.6409 7.7071 26.1546 7.95328C24.6682 8.19946 23.2635 7.19474 23.0173 5.70841C22.7711 4.22209 23.7758 2.81732 25.2621 2.57114C26.7485 2.32496 28.1532 3.32969 28.3994 4.81601ZM16.3565 10.7905C19.3138 8.01329 22.3587 6.78546 24.0235 7.9779C25.7484 9.21188 25.4929 12.6892 23.6466 16.5466C23.6327 16.4188 23.6158 16.2911 23.5943 16.1619C23.0219 12.7015 19.8077 10.3397 16.3565 10.7905Z" fill="#D9D9D9"/>
<path d="M32.1549 38.8968V35.1133H35.3091V35.5241H32.8657V36.6088H35.3091V37.0274H32.8657V38.8953H32.1549V38.8968Z" fill="#D9D9D9"/>
<path d="M41.0173 36.5319V38.8967H40.3957V38.4675C40.2465 38.6398 40.0541 38.7706 39.8218 38.8614C39.5895 38.9521 39.3279 38.9968 39.0386 38.9968C38.5016 38.9968 38.0693 38.8798 37.7416 38.6459C37.4138 38.4121 37.2492 38.1044 37.2492 37.7197C37.2492 37.335 37.4092 37.0212 37.7277 36.7904C38.0462 36.5611 38.4724 36.4457 39.0063 36.4457C39.3202 36.4457 39.591 36.4903 39.8218 36.5796C40.051 36.6688 40.2372 36.8011 40.3788 36.9765V36.5319H41.0173ZM40.3972 37.7366C40.3972 37.4704 40.2818 37.255 40.0526 37.0919C39.8218 36.9288 39.5218 36.8473 39.1509 36.8473C38.7801 36.8473 38.4678 36.9227 38.2524 37.0719C38.037 37.2212 37.9293 37.4304 37.9293 37.6997C37.9293 37.9859 38.037 38.2059 38.2539 38.3613C38.4709 38.5167 38.7771 38.5936 39.1756 38.5936C39.5741 38.5936 39.8556 38.5182 40.0726 38.3675C40.2895 38.2167 40.3972 38.0059 40.3972 37.7351V37.7366Z" fill="#D9D9D9"/>
<path d="M46.521 38.3351V38.806C46.3517 38.8706 46.1625 38.9167 45.9502 38.9491C45.7394 38.9814 45.5116 38.9968 45.2655 38.9968C44.6885 38.9968 44.2223 38.8814 43.8699 38.649C43.5176 38.4167 43.3406 38.1136 43.3406 37.7351C43.3406 37.3566 43.5237 37.0458 43.8884 36.8057C44.253 36.5657 44.7208 36.4457 45.2901 36.4457C45.4978 36.4457 45.6994 36.4595 45.8963 36.4872C46.0933 36.5149 46.2794 36.5549 46.4533 36.6088V37.0427C46.2902 36.975 46.1209 36.9242 45.9471 36.8888C45.7732 36.8534 45.5963 36.8365 45.4163 36.8365C44.9962 36.8365 44.6608 36.9196 44.4069 37.0858C44.153 37.2519 44.0269 37.4735 44.0269 37.7489C44.0269 37.992 44.1546 38.1951 44.4084 38.3582C44.6623 38.5213 44.9824 38.6044 45.367 38.6044C45.5609 38.6044 45.7501 38.5829 45.9348 38.5398C46.1194 38.4967 46.3148 38.429 46.5195 38.3351H46.521Z" fill="#D9D9D9"/>
<path d="M48.6495 35.3919C48.6495 35.3104 48.6956 35.2411 48.7864 35.1842C48.8772 35.1257 48.988 35.098 49.1187 35.098C49.2495 35.098 49.3557 35.1273 49.448 35.1857C49.5388 35.2442 49.585 35.315 49.585 35.3981C49.585 35.4812 49.5403 35.5489 49.4496 35.6042C49.3603 35.6612 49.2495 35.6889 49.1187 35.6889C48.988 35.6889 48.8772 35.6612 48.7864 35.6042C48.6956 35.5473 48.6495 35.4765 48.6495 35.3919ZM48.8018 38.8969V36.532H49.448V38.8969H48.8018Z" fill="#D9D9D9"/>
<path d="M52.1833 38.8968V34.8917H52.8372V38.8968H52.1833Z" fill="#D9D9D9"/>
<path d="M55.4143 35.3919C55.4143 35.3104 55.4605 35.2411 55.5513 35.1842C55.642 35.1257 55.7528 35.098 55.8836 35.098C56.0144 35.098 56.1206 35.1273 56.2129 35.1857C56.3036 35.2442 56.3498 35.315 56.3498 35.3981C56.3498 35.4812 56.3052 35.5489 56.2144 35.6042C56.1252 35.6612 56.0144 35.6889 55.8836 35.6889C55.7528 35.6889 55.642 35.6612 55.5513 35.6042C55.4605 35.5473 55.4143 35.4765 55.4143 35.3919ZM55.5651 38.8969V36.532H56.2113V38.8969H55.5651Z" fill="#D9D9D9"/>
<path d="M59.0132 36.8658H58.327V36.5319H59.0132V35.578H59.6671V36.5319H60.3533V36.8658H59.6671V38.8968H59.0132V36.8658Z" fill="#D9D9D9"/>
<path d="M62.3183 35.3919C62.3183 35.3104 62.3645 35.2411 62.4553 35.1842C62.546 35.1257 62.6568 35.098 62.7876 35.098C62.9184 35.098 63.0245 35.1273 63.1169 35.1857C63.2076 35.2442 63.2538 35.315 63.2538 35.3981C63.2538 35.4812 63.2092 35.5489 63.1184 35.6042C63.0292 35.6612 62.9184 35.6889 62.7876 35.6889C62.6568 35.6889 62.546 35.6612 62.4553 35.6042C62.3645 35.5473 62.3183 35.4765 62.3183 35.3919ZM62.4706 38.8969V36.532H63.1169V38.8969H62.4706Z" fill="#D9D9D9"/>
<path d="M69.1578 37.775H66.1959V37.8104C66.1959 38.0643 66.3097 38.2689 66.539 38.4243C66.7683 38.5797 67.0668 38.6582 67.4345 38.6582C67.6853 38.6582 67.9115 38.6151 68.113 38.5305C68.3146 38.4459 68.4931 38.3166 68.6485 38.1443L69.1347 38.3505C68.947 38.5644 68.7069 38.7259 68.4146 38.8336C68.1238 38.9429 67.7853 38.9967 67.4006 38.9967C66.8313 38.9967 66.3713 38.8782 66.0189 38.6398C65.6666 38.4013 65.4912 38.0905 65.4912 37.7043C65.4912 37.3181 65.6651 37.0303 66.0143 36.7949C66.3636 36.5595 66.8113 36.441 67.3591 36.441C67.9068 36.441 68.35 36.5534 68.6731 36.7765C68.9962 37.0011 69.1578 37.3058 69.1578 37.6935V37.775ZM68.4715 37.4473C68.45 37.2381 68.3392 37.078 68.1423 36.9657C67.9453 36.8534 67.6745 36.7965 67.3314 36.7965C67.0206 36.7965 66.7621 36.8549 66.5544 36.9734C66.3467 37.0919 66.2267 37.2504 66.1944 37.4473H68.4715Z" fill="#D9D9D9"/>
<path d="M71.0824 38.4984L71.6301 38.2661C71.7332 38.3922 71.864 38.4861 72.0225 38.5492C72.181 38.6123 72.3671 38.643 72.5825 38.643C72.798 38.643 72.961 38.6107 73.0918 38.5446C73.2211 38.4784 73.2857 38.3922 73.2857 38.2861C73.2857 38.203 73.2411 38.1338 73.1534 38.0799C73.0641 38.0245 72.9133 37.9737 72.6979 37.9276C72.6764 37.923 72.641 37.9153 72.5918 37.9045C71.6824 37.706 71.227 37.4583 71.227 37.1598C71.227 36.949 71.3501 36.7782 71.5947 36.6459C71.8394 36.5136 72.1594 36.4474 72.5502 36.4474C72.8749 36.4474 73.1518 36.489 73.3842 36.5705C73.6165 36.652 73.7811 36.7674 73.8827 36.9182L73.3642 37.1198C73.2872 37.0105 73.1749 36.9275 73.0272 36.869C72.8795 36.8105 72.7072 36.7813 72.5102 36.7813C72.3133 36.7813 72.1687 36.8151 72.0502 36.8813C71.9317 36.9475 71.8717 37.0321 71.8717 37.1352C71.8717 37.2798 72.1194 37.4014 72.6149 37.4998C72.7072 37.5183 72.781 37.5337 72.8349 37.5445C73.2411 37.6275 73.5242 37.7214 73.6827 37.8276C73.8427 37.9337 73.9212 38.0737 73.9212 38.2476C73.9212 38.4723 73.795 38.6523 73.5426 38.7923C73.2903 38.9308 72.9626 39 72.5564 39C72.2071 39 71.9117 38.9585 71.6671 38.8754C71.424 38.7923 71.2285 38.6677 71.0808 38.5015L71.0824 38.4984Z" fill="#D9D9D9"/>
</svg>
