<svg width="283" height="219" viewBox="0 0 283 219" fill="none" xmlns="http://www.w3.org/2000/svg">
<g clip-path="url(#clip0_17_73)">
<path d="M55.1218 200.454C53.5663 200.454 52.0485 200 50.7192 199.129C48.9092 197.936 47.6742 196.109 47.2405 193.979L19.3732 56.5748C19.081 55.1264 19.2884 53.6685 19.9577 52.4472C20.6553 51.1881 21.7583 50.3361 23.0782 50.071L249.005 1.68519C251.673 1.1361 254.341 3.17151 254.954 6.21041L282.849 143.737C283.726 148.073 280.935 152.343 276.637 153.261L56.8281 200.274C56.2625 200.397 55.6969 200.454 55.1312 200.454H55.1218ZM249.891 3.48392C249.721 3.48392 249.561 3.50285 249.391 3.53125L23.4647 51.936C22.6917 52.0969 22.0317 52.6082 21.6075 53.375C21.155 54.1986 21.023 55.2021 21.221 56.2056L49.0883 193.6C49.4182 195.228 50.3704 196.63 51.7562 197.548C53.142 198.466 54.8013 198.769 56.4228 198.428L276.231 151.415C279.531 150.715 281.661 147.439 280.992 144.116L253.106 6.58909C252.738 4.7809 251.352 3.48392 249.891 3.48392Z" fill="#080717"/>
<path d="M35.2395 59.3395C35.5223 60.7217 34.6267 62.0755 33.2503 62.35C31.8739 62.634 30.5258 61.7346 30.2524 60.3525C29.9696 58.9703 30.8652 57.6165 32.2416 57.342C33.618 57.0579 34.9661 57.9573 35.2395 59.3395Z" fill="black"/>
<path d="M42.5645 57.8434C42.8474 59.2256 41.9518 60.5794 40.5754 60.8539C39.199 61.1379 37.8603 60.2385 37.5775 58.8564C37.2946 57.4742 38.1808 56.1204 39.5572 55.8459C40.9336 55.5618 42.2817 56.4612 42.5551 57.8434H42.5645Z" fill="black"/>
<path d="M49.8896 56.3478C50.1724 57.73 49.2768 59.0838 47.9099 59.3583C46.5335 59.6423 45.1853 58.7524 44.912 57.3608C44.6291 55.9786 45.5247 54.6248 46.9011 54.3503C48.2775 54.0662 49.6162 54.9656 49.899 56.3478H49.8896Z" fill="black"/>
<path d="M250.711 146.54L242.83 141.305L248.043 133.39L249.618 134.441L245.441 140.774L251.748 144.959L250.711 146.54Z" fill="#1D1D1B"/>
<path d="M263.542 143.917L261.968 142.866L266.134 136.533L259.837 132.349L260.874 130.768L268.746 136.003L263.542 143.917Z" fill="#1D1D1B"/>
<path d="M228.066 14.7137L226.218 15.0918L227.384 20.8338L229.231 20.4557L228.066 14.7137Z" fill="#1D1D1B"/>
<path d="M230.4 16.2604L224.682 17.4287L225.058 19.2841L230.776 18.1158L230.4 16.2604Z" fill="#1D1D1B"/>
<path d="M237.607 12.5815L235.288 13.0644L235.759 15.3932L238.079 14.9199L237.607 12.5815Z" fill="#1D1D1B"/>
<path d="M238.371 16.3589L236.052 16.8322L236.523 19.1706L238.852 18.6972L238.371 16.3589Z" fill="#1D1D1B"/>
<path d="M241.406 11.8052L239.078 12.288L239.549 14.6169L241.878 14.1435L241.406 11.8052Z" fill="#1D1D1B"/>
<path d="M242.17 15.5825L239.851 16.0653L240.322 18.3942L242.641 17.9209L242.17 15.5825Z" fill="#1D1D1B"/>
<path d="M180.638 119.975L159.011 134.46L158.304 114.56C158.097 108.795 160.369 103.219 164.536 99.2427L178.583 85.8374L180.647 119.975H180.638Z" fill="#080717"/>
<path d="M211.861 119.975L233.487 134.46L234.195 114.56C234.402 108.795 232.13 103.219 227.963 99.2427L213.916 85.8374L211.852 119.975H211.861Z" fill="#080717"/>
<path d="M179.912 120.06C175.632 104.913 173.463 88.8761 173.463 72.394C173.463 39.0986 182.457 22.5124 196.249 1.6377C210.042 22.5124 219.035 39.0986 219.035 72.394C219.035 88.8761 216.867 104.904 212.587 120.06C207.072 118.716 201.576 118.034 196.249 118.034C190.923 118.034 185.427 118.716 179.912 120.06Z" fill="white"/>
<path d="M196.249 3.27558C209.523 23.4876 218.14 39.9602 218.14 72.3941C218.14 88.488 216.056 104.146 211.955 118.972C206.657 117.75 201.378 117.126 196.249 117.126C191.121 117.126 185.851 117.75 180.543 118.972C176.443 104.146 174.359 88.488 174.359 72.3941C174.359 39.9602 182.966 23.4876 196.249 3.27558ZM196.249 0C181.628 22.0297 172.558 38.5969 172.558 72.3941C172.558 89.7471 174.981 106.22 179.29 121.149C184.748 119.757 190.404 118.943 196.259 118.943C202.113 118.943 207.77 119.757 213.219 121.149C217.527 106.22 219.95 89.7471 219.95 72.3941C219.95 38.5969 210.881 22.0297 196.259 0H196.249Z" fill="#080717"/>
<path d="M196.249 91.0063C193.704 91.0063 191.649 93.0796 191.649 95.6262V134.45H200.859V95.6262C200.859 93.0702 198.795 91.0063 196.259 91.0063H196.249Z" fill="#080717"/>
<path d="M200.505 59.5027C205.217 57.1466 207.134 51.4007 204.788 46.6688C202.442 41.937 196.72 40.011 192.008 42.3672C187.296 44.7233 185.378 50.4692 187.724 55.2011C190.071 59.9329 195.793 61.8588 200.505 59.5027Z" fill="#080717"/>
<path d="M203.546 219C212.521 219 219.799 211.692 219.799 202.679C219.799 193.667 212.521 186.358 203.546 186.358H202.801C199.351 177.327 190.659 170.898 180.449 170.898C167.223 170.898 156.504 181.662 156.504 194.945H153.082C146.464 194.945 141.109 200.331 141.109 206.968C141.109 213.604 146.473 218.991 153.082 218.991H203.546V219Z" fill="#7874E8"/>
<path d="M201.557 219C192.582 219 185.304 211.692 185.304 202.679C185.304 193.667 192.582 186.358 201.557 186.358H202.302C205.752 177.327 214.444 170.898 224.654 170.898C237.881 170.898 248.6 181.662 248.6 194.945H252.022C258.64 194.945 263.994 200.331 263.994 206.968C263.994 213.604 258.63 218.991 252.022 218.991H201.557V219Z" fill="#7874E8"/>
<path d="M202.888 194.256C212.931 191.571 218.904 181.219 216.23 171.134C213.556 161.049 203.247 155.051 193.205 157.736C183.162 160.421 177.189 170.773 179.863 180.858C182.537 190.943 192.846 196.941 202.888 194.256Z" fill="#7874E8"/>
<path d="M196.249 137.565C192.412 137.565 189.301 140.689 189.301 144.552V163.173C189.301 167.026 192.412 170.16 196.249 170.16C200.086 170.16 203.207 167.036 203.207 163.173V144.552C203.207 140.699 200.096 137.565 196.249 137.565Z" fill="#7874E8"/>
<path d="M20.0299 83.2277L108.574 62.5035C113.633 61.3194 118.694 64.4802 119.873 69.5603L139.177 152.733C140.356 157.813 137.209 162.895 132.15 164.079L43.5963 184.805C38.5374 185.989 33.4769 182.829 32.2978 177.748L12.9935 94.576C11.8144 89.4958 14.9618 84.4139 20.0207 83.2299L20.0299 83.2277Z" fill="#5451A1"/>
<path d="M120.567 72.6875L119.841 69.5634C118.662 64.4796 113.6 61.3176 108.537 62.5105L19.9954 83.2337C14.9329 84.4171 11.7842 89.5009 12.972 94.5752L13.698 97.6993L120.567 72.6875Z" fill="#080717"/>
<path d="M106.661 115.574L41.5746 130.807C38.7705 131.464 37.0272 134.278 37.6807 137.094L37.8691 137.906C38.5226 140.721 41.3256 142.472 44.1297 141.816L109.216 126.582C112.02 125.926 113.763 123.111 113.11 120.295L112.921 119.484C112.268 116.668 109.465 114.917 106.661 115.574Z" fill="white"/>
<path d="M89.8194 119.528L107.383 115.417C110.183 114.762 112.982 116.518 113.632 119.32L113.821 120.132C114.473 122.944 112.725 125.754 109.934 126.407L92.3702 130.518C89.5699 131.174 86.7714 129.418 86.1209 126.615L85.9326 125.804C85.2799 122.992 87.0283 120.181 89.8194 119.528Z" fill="#080717"/>
<path d="M78.2407 108.19L61.8803 112.022L62.662 115.387L79.0223 111.555L78.2407 108.19Z" fill="white"/>
<path d="M87.1913 97.2231L49.0171 106.165L49.7988 109.53L87.973 100.588L87.1913 97.2231Z" fill="white"/>
<path d="M103.66 120.024L92.3308 122.678L93.1125 126.043L104.442 123.39L103.66 120.024Z" fill="white"/>
<path d="M22.4676 87.0793L19.3365 87.811L20.1164 91.1766L23.2475 90.4449L22.4676 87.0793Z" fill="white"/>
<path d="M29.1114 85.525L25.9807 86.2583L26.7623 89.6234L29.893 88.8901L29.1114 85.525Z" fill="white"/>
<path d="M35.7493 83.9664L32.6186 84.6997L33.4003 88.0648L36.531 87.3315L35.7493 83.9664Z" fill="white"/>
<path d="M114.835 88.9805C125.727 88.9805 134.557 80.1135 134.557 69.1756C134.557 58.2376 125.727 49.3706 114.835 49.3706C103.943 49.3706 95.1127 58.2376 95.1127 69.1756C95.1127 80.1135 103.943 88.9805 114.835 88.9805Z" fill="#3ECF8E"/>
<path d="M110.574 77.9321L105.162 72.5075L106.501 71.1727L110.564 75.2435L123.63 61.9424L124.969 63.2772L110.574 77.9321Z" fill="white"/>
<path d="M11.1149 150.175H0.942738V160.399H11.1149V150.175Z" fill="#3ECF8E"/>
<path d="M11.1149 168.636H0.942738V178.86H11.1149V168.636Z" fill="#3ECF8E"/>
<path d="M11.1149 197.889H0.942736C0.424231 197.889 0 197.463 0 196.942V186.727C0 186.206 0.424231 185.78 0.942736 185.78H11.1149C11.6334 185.78 12.0576 186.206 12.0576 186.727V196.942C12.0576 197.463 11.6334 197.889 11.1149 197.889ZM1.88547 195.995H10.1721V187.674H1.88547V195.995Z" fill="#080717"/>
<path d="M54.1602 153.915H17.4783V155.808H54.1602V153.915Z" fill="#080717"/>
<path d="M6.66515 157.9L2.81878 154.038L4.15747 152.703L6.66515 155.221L14.6973 147.165L16.0265 148.499L6.66515 157.9Z" fill="#080717"/>
<path d="M45.6944 172.366H17.4783V174.259H45.6944V172.366Z" fill="#080717"/>
<path d="M37.832 190.467H17.4783V192.36H37.832V190.467Z" fill="#080717"/>
<path d="M6.66515 176.351L2.81878 172.489L4.15747 171.154L6.66515 173.672L14.6973 165.616L16.0265 166.951L6.66515 176.351Z" fill="#080717"/>
<path d="M158.305 44.198L154.092 48.4287L155.425 49.7675L159.638 45.5368L158.305 44.198Z" fill="#080717"/>
<path d="M155.418 44.2144L154.085 45.5532L158.298 49.7839L159.631 48.4451L155.418 44.2144Z" fill="#080717"/>
<path d="M237.761 71.7796L230.262 79.3105L231.595 80.6494L239.094 73.1184L237.761 71.7796Z" fill="#080717"/>
<path d="M231.595 71.7823L230.262 73.1211L237.761 80.652L239.094 79.3132L231.595 71.7823Z" fill="#080717"/>
</g>
<defs>
<clipPath id="clip0_17_73">
<rect width="283" height="219" fill="white"/>
</clipPath>
</defs>
</svg>
