<svg width="72" height="62" viewBox="0 0 72 62" fill="none" xmlns="http://www.w3.org/2000/svg">
<path fill-rule="evenodd" clip-rule="evenodd" d="M16.6697 6.41071H24.8608V39.0397H16.6697V6.41071Z" fill="#D9D9D9"/>
<path d="M31.5084 6.46487L36.6871 26.55L41.8454 6.46487H55.222V39.473H46.8887V14.304L40.4238 39.473H32.8826L25.8829 13.4578L25.8897 6.4581L31.5084 6.46487Z" fill="#D9D9D9"/>
<path fill-rule="evenodd" clip-rule="evenodd" d="M21.0901 5.55776L22.9179 2.7755L24.7457 0H21.0901H17.4278L19.2556 2.7755L21.0901 5.55776Z" fill="#D9D9D9"/>
<path d="M4.1664 40.1905V38.7757H5.37815V40.1905H4.1664ZM4.28149 41.1179H5.25629V47.0006H4.28149V41.1179ZM6.54927 42.9322C6.55604 41.7204 6.96898 41.1179 7.78809 41.1179H9.04045V42.9322H8.1401C7.74747 42.9322 7.53762 43.1149 7.52408 43.4805V47.0345H6.54927V42.9322ZM10.2251 41.1179H17.1842C18.0033 41.1179 18.4162 41.7204 18.423 42.9322V47.0345H16.9811V42.4515C16.9811 42.174 16.8525 42.0386 16.5952 42.0386H14.8081V47.0345H13.3662V42.4515C13.3729 42.174 13.2511 42.0386 12.9803 42.0386H11.1931V47.0074H10.2183V41.1179H10.2251ZM24.2718 45.2338V43.995H20.5689V44.6719C20.5892 45.0443 20.7923 45.2338 21.1849 45.2338H24.2718ZM19.6009 42.0318V41.1179H24.0078C24.8269 41.1179 25.2331 41.7204 25.2466 42.9322V47.0345H20.8397C20.0206 47.0345 19.6144 46.432 19.6009 45.2338V43.467H24.2718V42.4515C24.2786 42.174 24.1567 42.0386 23.886 42.0386H19.6009V42.0318ZM22.7893 40.6779C22.6201 40.617 22.4982 40.5696 22.4238 40.529C22.3425 40.4884 22.2681 40.4545 22.1936 40.4275C22.1191 40.4004 22.065 40.3801 22.0244 40.3801H22.0108C21.8822 40.3801 21.7265 40.5019 21.5369 40.7456L21.124 40.3936C21.2323 40.1905 21.3542 40.0348 21.4896 39.9333C21.625 39.8317 21.7739 39.7844 21.9296 39.7844H21.9431C21.9905 39.7844 22.0514 39.7979 22.1259 39.8317C22.2004 39.8588 22.2816 39.8927 22.3696 39.9265C22.4576 39.9604 22.5388 39.9942 22.6133 40.0213C22.6878 40.0484 22.7555 40.0687 22.8096 40.0822H22.8367C22.9856 40.0822 23.1142 39.9671 23.2226 39.7302L23.5881 40.1431C23.561 40.2447 23.5136 40.3259 23.4595 40.3936C23.4053 40.4613 23.3444 40.5222 23.2699 40.5628C23.1955 40.6102 23.1142 40.6373 23.033 40.6508C22.9585 40.6712 22.8773 40.6779 22.7893 40.6779ZM27.3993 42.0318V44.6719C27.4196 45.0443 27.6227 45.2338 28.0154 45.2338H31.0955V42.4448C31.1023 42.1672 30.9804 42.0318 30.7096 42.0318H27.3993ZM27.6633 47.0277C26.8442 47.0277 26.4381 46.4252 26.4245 45.227V41.1112H30.8315C31.6506 41.1112 32.0568 41.7137 32.0703 42.9254V47.0277H27.6633ZM34.2298 43.406H38.9007V45.2338C38.8939 46.432 38.481 47.0345 37.6619 47.0345H33.255V45.2338H37.3099C37.7025 45.2338 37.9124 45.0443 37.9259 44.6719V44.171H33.2685L33.255 42.9322C33.2617 41.7204 33.6747 41.1179 34.4938 41.1179H38.9007V42.0318H34.6089C34.3516 42.0318 34.223 42.1672 34.223 42.4448V43.406H34.2298ZM43.0301 41.1179H49.9892C50.8083 41.1179 51.2212 41.7204 51.228 42.9322V47.0345H49.7861V42.4515C49.7861 42.174 49.6575 42.0386 49.4002 42.0386H47.6131V47.0345H46.1712V42.4515C46.1779 42.174 46.0561 42.0386 45.7853 42.0386H43.9982V47.0074H43.0233V41.1179H43.0301ZM53.6447 47.0277C52.8256 47.0277 52.4194 46.4252 52.4059 45.227V41.1112H53.3807V44.6652C53.401 45.0375 53.6041 45.227 53.9967 45.227H56.8399V41.1112H57.8147V47.021H53.6447V47.0277ZM58.9994 42.9322C59.0061 41.7204 59.4191 41.1179 60.2382 41.1179H61.4905V42.9322H60.5902C60.1976 42.9322 59.9877 43.1149 59.9742 43.4805V47.0345H58.9994V42.9322ZM63.6432 44.6719C63.6636 45.0443 63.8666 45.2338 64.2593 45.2338H67.3394V41.1179H68.3142V47.5896C68.3074 48.7878 67.8945 49.3903 67.0754 49.3903H64.5301V48.0025H66.7301C67.0754 48.0025 67.2785 47.8062 67.3462 47.4136V47.0277H63.914C63.0949 47.0277 62.6888 46.4252 62.6752 45.227V41.1112H63.65V44.6719H63.6432Z" fill="#D9D9D9"/>
<path fill-rule="evenodd" clip-rule="evenodd" d="M0.964417 53.4046C29.7687 50.4328 52.697 51.9086 70.8189 58.6036L70.9611 61C55.7703 54.745 38.9887 50.3854 0.964417 53.4046Z" fill="#D9D9D9" stroke="white" stroke-width="0.22" stroke-miterlimit="22.93"/>
<path d="M4.69443 50.2297L4.71474 49.9521L4.74181 49.4106L4.75535 49.0247V48.7472C4.85013 48.7472 4.92459 48.7539 4.98552 48.7539C5.03967 48.7539 5.11414 48.7539 5.21568 48.7472C5.31045 48.7472 5.39169 48.7404 5.45938 48.7404C5.55415 48.7404 5.62862 48.7472 5.67601 48.7607C5.72339 48.7742 5.76401 48.7946 5.80463 48.8216C5.84524 48.8487 5.87232 48.8758 5.8994 48.9164C5.92648 48.9503 5.94002 48.9909 5.95355 49.0383C5.96709 49.0856 5.97386 49.1263 5.97386 49.1737C5.97386 49.2684 5.95356 49.3564 5.90617 49.4377C5.85878 49.5189 5.79109 49.5798 5.70985 49.6137C5.62185 49.6543 5.52708 49.6746 5.42553 49.6746C5.38492 49.6746 5.3443 49.6678 5.29014 49.6611C5.28337 49.6272 5.2766 49.5798 5.2563 49.5121C5.24276 49.4444 5.22922 49.397 5.21568 49.3632C5.24953 49.37 5.28337 49.37 5.31722 49.37C5.39169 49.37 5.44584 49.3497 5.47969 49.3158C5.51354 49.282 5.53385 49.2413 5.53385 49.1872C5.53385 49.1601 5.52708 49.1398 5.52031 49.1195C5.51354 49.0992 5.5 49.0856 5.47969 49.0721C5.45938 49.0586 5.44584 49.0518 5.42553 49.0518C5.40523 49.045 5.37815 49.045 5.35107 49.045H5.26984L5.18183 49.0518C5.17506 49.194 5.16829 49.3429 5.16152 49.5189C5.15475 49.8303 5.14798 50.0131 5.14798 50.074V50.2162H4.93136C4.88397 50.2297 4.80951 50.2297 4.69443 50.2297ZM6.09571 50.2297C6.10925 50.1011 6.12279 49.986 6.12956 49.8844C6.13633 49.7829 6.1431 49.6678 6.14987 49.5324C6.15664 49.397 6.16341 49.2549 6.16341 49.106C6.16341 48.957 6.17018 48.8419 6.17018 48.7539C6.25818 48.7539 6.33265 48.7607 6.3868 48.7607C6.44096 48.7607 6.51542 48.7607 6.59666 48.7539C6.67789 48.7539 6.75913 48.7472 6.84036 48.7472C6.93513 48.7472 7.01637 48.7539 7.08406 48.7607C7.13822 48.7675 7.1856 48.7742 7.23299 48.7946C7.28038 48.8081 7.31422 48.8284 7.34807 48.8555C7.37515 48.8758 7.40223 48.9029 7.42254 48.9299C7.44285 48.957 7.45638 48.9909 7.46992 49.0315C7.48346 49.0721 7.48346 49.1127 7.48346 49.1533C7.48346 49.2007 7.47669 49.2481 7.46315 49.2887C7.44962 49.3294 7.42931 49.37 7.40223 49.4106C7.37515 49.4444 7.3413 49.4783 7.30069 49.5054C7.26007 49.5324 7.20591 49.5595 7.13145 49.5866L7.1856 49.722C7.19914 49.7626 7.21945 49.7964 7.23976 49.8371L7.38192 50.1552C7.38869 50.1688 7.40223 50.1958 7.41577 50.2365H6.92159C6.90806 50.1958 6.88775 50.1281 6.86067 50.0266C6.84713 49.986 6.84036 49.9521 6.82682 49.9251C6.80651 49.8709 6.7862 49.8032 6.75236 49.7084L6.64404 49.4038C6.68466 49.4106 6.71851 49.4174 6.75913 49.4174C6.81328 49.4174 6.86067 49.4106 6.90129 49.397C6.9419 49.3835 6.97575 49.3564 6.99606 49.3226C7.01637 49.2887 7.02991 49.2549 7.02991 49.221C7.02991 49.1872 7.02314 49.1601 7.00283 49.1398C6.98929 49.1195 6.96221 49.0992 6.92159 49.0856C6.88775 49.0721 6.83359 49.0653 6.75913 49.0653H6.58312C6.57635 49.2143 6.56281 49.3903 6.55604 49.6069C6.54927 49.8168 6.5425 50.0266 6.5425 50.2297H6.30557C6.28526 50.2297 6.20403 50.2297 6.09571 50.2297ZM8.54627 48.7269C8.66136 48.7269 8.76967 48.7404 8.87798 48.7742C8.98629 48.8081 9.08107 48.8555 9.15553 48.9232C9.23676 48.9909 9.29769 49.0721 9.33154 49.1601C9.37215 49.2481 9.39246 49.3497 9.39246 49.4647C9.39246 49.5866 9.37215 49.6949 9.32477 49.7964C9.28415 49.898 9.21646 49.986 9.13522 50.0537C9.05399 50.1214 8.95244 50.1755 8.84413 50.2094C8.72905 50.2432 8.61397 50.2568 8.48535 50.2568C8.3635 50.2568 8.24842 50.2432 8.13334 50.2094C8.01825 50.1755 7.92348 50.1282 7.84225 50.0537C7.76101 49.9792 7.70009 49.9048 7.66624 49.8168C7.63239 49.7288 7.61208 49.634 7.61208 49.5257C7.61208 49.37 7.64593 49.2278 7.7204 49.1127C7.79486 48.9909 7.90317 48.9029 8.04533 48.8352C8.20103 48.7607 8.3635 48.7269 8.54627 48.7269ZM8.52597 49.0518C8.44473 49.0518 8.37027 49.0721 8.30257 49.1127C8.23488 49.1533 8.18749 49.2075 8.14687 49.282C8.11303 49.3564 8.09272 49.4309 8.09272 49.5121C8.09272 49.5866 8.10626 49.6611 8.1401 49.722C8.17395 49.7829 8.22134 49.8371 8.28903 49.8709C8.35673 49.9048 8.42442 49.9251 8.49889 49.9251C8.58012 49.9251 8.65459 49.9048 8.71551 49.8641C8.78321 49.8235 8.83059 49.7694 8.87121 49.6949C8.90506 49.6204 8.92537 49.546 8.92537 49.4647C8.92537 49.3903 8.91183 49.3158 8.87798 49.2481C8.84413 49.1804 8.79675 49.133 8.73582 49.0992C8.6749 49.0721 8.60043 49.0518 8.52597 49.0518ZM9.56847 50.2297C9.58201 50.0672 9.59555 49.9318 9.60232 49.8371C9.60909 49.6881 9.62263 49.4986 9.6294 49.2684C9.63616 49.0924 9.63617 48.9638 9.63617 48.8826V48.7539C9.7174 48.7539 9.79186 48.7607 9.85279 48.7607C9.91371 48.7607 9.98818 48.7607 10.083 48.7539C10.1777 48.7539 10.2657 48.7472 10.3537 48.7472C10.4485 48.7472 10.5365 48.7539 10.6042 48.7675C10.6787 48.781 10.7464 48.8013 10.8073 48.8419C10.8682 48.8758 10.9224 48.9232 10.963 48.9841C11.0036 49.045 11.0375 49.1127 11.0578 49.1872C11.0781 49.2684 11.0916 49.3429 11.0916 49.4309C11.0916 49.5121 11.0848 49.5934 11.0645 49.6678C11.0442 49.7423 11.0239 49.81 10.9901 49.8709C10.9562 49.9318 10.9224 49.986 10.8818 50.0266C10.8411 50.0672 10.7937 50.1078 10.7396 50.1417C10.699 50.162 10.6584 50.1823 10.6177 50.1958C10.5771 50.2094 10.523 50.2162 10.4553 50.2297C10.374 50.2365 10.286 50.2432 10.1913 50.2432H9.75125C9.73094 50.2229 9.66324 50.2297 9.56847 50.2297ZM10.0356 49.9048C10.0762 49.9115 10.1168 49.9115 10.1574 49.9115C10.2319 49.9115 10.2996 49.9048 10.3537 49.8912C10.4079 49.8777 10.462 49.8506 10.5027 49.81C10.5433 49.7694 10.5771 49.7152 10.5974 49.6475C10.6177 49.5798 10.6313 49.5121 10.6313 49.4444C10.6313 49.3564 10.6177 49.2887 10.5839 49.2278C10.55 49.1669 10.5094 49.1263 10.462 49.106C10.4079 49.0856 10.3402 49.0721 10.2522 49.0721C10.198 49.0721 10.1371 49.0721 10.0694 49.0789L10.0356 49.9048ZM11.3488 48.7539H11.8159L11.7821 49.2143C11.7753 49.3023 11.7686 49.3835 11.7686 49.458C11.7686 49.5324 11.7618 49.5866 11.7618 49.6137C11.7618 49.6678 11.7686 49.7152 11.7753 49.7491C11.7821 49.7829 11.7956 49.8168 11.8159 49.8438C11.8363 49.8709 11.8633 49.8912 11.9039 49.9048C11.9378 49.9183 11.9784 49.9251 12.019 49.9251C12.0529 49.9251 12.0867 49.9183 12.1138 49.9115C12.1409 49.9048 12.1612 49.8912 12.1747 49.8777C12.1883 49.8641 12.2086 49.8506 12.2153 49.8303C12.2289 49.81 12.2424 49.7829 12.256 49.7558C12.2695 49.7287 12.2763 49.6881 12.283 49.6407C12.2898 49.5934 12.2966 49.485 12.3101 49.3158C12.3169 49.1736 12.3237 49.045 12.3304 48.9232C12.3372 48.8081 12.3372 48.7539 12.344 48.7539H12.8178L12.7637 49.5189V49.5527C12.7637 49.7017 12.7501 49.81 12.7366 49.8709C12.7231 49.9318 12.696 49.986 12.6621 50.0334C12.6283 50.0808 12.5741 50.1214 12.5064 50.1552C12.4387 50.1891 12.3575 50.2162 12.2695 50.2297C12.1815 50.2432 12.0935 50.25 12.0055 50.25C11.9243 50.25 11.8498 50.2432 11.7753 50.2297C11.7076 50.2162 11.6467 50.2026 11.5858 50.1823C11.5316 50.162 11.4842 50.1349 11.4436 50.1078C11.403 50.0808 11.3759 50.0537 11.3556 50.0266C11.3353 49.9995 11.3218 49.9657 11.3082 49.9251C11.2947 49.8777 11.2879 49.8303 11.2879 49.7829V49.7017C11.2879 49.6678 11.2947 49.6137 11.2947 49.5527L11.3082 49.3767C11.3082 49.3293 11.315 49.2617 11.3218 49.1737L11.3488 48.7539ZM13.3323 50.2297C13.3662 49.8777 13.3865 49.4918 13.4 49.0721L12.9397 49.0856L12.9465 48.9638C12.9465 48.9029 12.9532 48.8284 12.9532 48.7539H14.3342L14.3274 48.8623C14.3274 48.9164 14.3207 48.9638 14.3207 49.0044V49.0856C14.165 49.0789 14.0363 49.0721 13.9416 49.0721H13.8671C13.8536 49.2007 13.8468 49.3158 13.84 49.4241C13.8333 49.5798 13.8265 49.7287 13.8197 49.8777C13.8129 50.0266 13.8129 50.1417 13.8129 50.2297H13.5828C13.5489 50.2297 13.4677 50.2297 13.3323 50.2297ZM15.3022 48.7269C15.4173 48.7269 15.5256 48.7404 15.6339 48.7742C15.7423 48.8081 15.837 48.8555 15.9115 48.9232C15.9927 48.9909 16.0537 49.0721 16.0875 49.1601C16.1281 49.2481 16.1484 49.3497 16.1484 49.4647C16.1484 49.5866 16.1281 49.6949 16.0807 49.7964C16.0401 49.898 15.9724 49.986 15.8912 50.0537C15.81 50.1214 15.7084 50.1755 15.6001 50.2094C15.485 50.2432 15.3699 50.2568 15.2413 50.2568C15.1195 50.2568 15.0044 50.2432 14.8893 50.2094C14.7742 50.1755 14.6794 50.1282 14.5982 50.0537C14.517 49.9792 14.4561 49.9048 14.4222 49.8168C14.3884 49.7288 14.368 49.634 14.368 49.5257C14.368 49.37 14.4019 49.2278 14.4764 49.1127C14.5508 48.9909 14.6591 48.9029 14.8013 48.8352C14.957 48.7607 15.1195 48.7269 15.3022 48.7269ZM15.2819 49.0518C15.2007 49.0518 15.1262 49.0721 15.0585 49.1127C14.9908 49.1533 14.9367 49.2075 14.9028 49.282C14.869 49.3564 14.8487 49.4309 14.8487 49.5121C14.8487 49.5866 14.8622 49.6611 14.8961 49.722C14.9299 49.7829 14.9773 49.8371 15.045 49.8709C15.1127 49.9048 15.1804 49.9251 15.2549 49.9251C15.3361 49.9251 15.4106 49.9048 15.4715 49.8641C15.5392 49.8235 15.5866 49.7694 15.6272 49.6949C15.661 49.6204 15.6813 49.546 15.6813 49.4647C15.6813 49.3903 15.6678 49.3158 15.6339 49.2481C15.6001 49.1804 15.5527 49.133 15.4918 49.0992C15.4309 49.0721 15.3564 49.0518 15.2819 49.0518ZM16.3109 50.2094C16.3041 50.0537 16.2906 49.9318 16.277 49.8438C16.3583 49.8777 16.4327 49.9048 16.4937 49.9183C16.5546 49.9318 16.6088 49.9386 16.6561 49.9386C16.7171 49.9386 16.7712 49.9318 16.8051 49.9115C16.8457 49.8912 16.8592 49.8641 16.8592 49.8303C16.8592 49.8168 16.8592 49.8032 16.8525 49.7964C16.8525 49.7829 16.8389 49.7761 16.8321 49.7558C16.8186 49.7423 16.8051 49.7287 16.7915 49.7084L16.5884 49.5324C16.5411 49.4918 16.5072 49.4647 16.4869 49.4444C16.4463 49.4106 16.4192 49.3767 16.3989 49.3429C16.3786 49.309 16.3651 49.282 16.3515 49.2481C16.3447 49.2143 16.338 49.1804 16.338 49.1466C16.338 49.106 16.3447 49.0586 16.3583 49.018C16.3718 48.9773 16.3989 48.9367 16.426 48.8961C16.4598 48.8623 16.5004 48.8284 16.5478 48.8013C16.602 48.7743 16.6561 48.7539 16.7103 48.7472C16.7712 48.7404 16.8254 48.7336 16.8931 48.7336C17.0149 48.7336 17.1503 48.7472 17.2925 48.7742C17.2925 48.8216 17.2992 48.869 17.2992 48.9096C17.2992 48.9503 17.306 49.0247 17.3196 49.1263C17.2519 49.0992 17.1909 49.0789 17.1368 49.0721C17.0826 49.0586 17.0352 49.0586 16.9946 49.0586C16.9405 49.0586 16.8931 49.0721 16.8525 49.0924C16.8118 49.1127 16.7983 49.1398 16.7983 49.1669C16.7983 49.1804 16.7983 49.194 16.8051 49.2075C16.8118 49.221 16.8186 49.2346 16.8389 49.2549C16.8525 49.2752 16.8728 49.2955 16.8998 49.3158C16.9269 49.3361 16.9675 49.37 17.0217 49.4106L17.1029 49.4715C17.1232 49.4918 17.1503 49.5121 17.1774 49.5392C17.2045 49.5663 17.2248 49.5934 17.2451 49.6204C17.2654 49.6475 17.2789 49.6678 17.2925 49.6949C17.306 49.7152 17.3128 49.7355 17.3128 49.7626C17.3195 49.7829 17.3196 49.81 17.3196 49.8303C17.3196 49.898 17.306 49.9589 17.2722 50.0131C17.2383 50.074 17.1977 50.1214 17.1435 50.1552C17.0894 50.1958 17.0217 50.2162 16.954 50.2365C16.8863 50.25 16.8118 50.2568 16.7374 50.2568C16.6358 50.2568 16.4869 50.2432 16.3109 50.2094ZM18.098 50.2297C18.1184 50.0469 18.1319 49.8912 18.1387 49.7626C18.1454 49.6407 18.1522 49.4715 18.1657 49.2617C18.1725 49.0518 18.1793 48.9164 18.1793 48.8487V48.7539H19.3842V48.7878C19.3842 48.7946 19.3842 48.8284 19.3775 48.8826L19.3707 48.9976V49.0721C19.2285 49.0653 19.1135 49.0653 19.0187 49.0653H18.8088C18.775 49.0653 18.7141 49.0653 18.6396 49.0721L18.6261 49.3226H18.9239C18.9645 49.3226 19.0729 49.3226 19.2489 49.3158C19.2421 49.4106 19.2353 49.5189 19.2285 49.6475H18.9442C18.8427 49.6475 18.7344 49.6475 18.6125 49.6543L18.599 49.9183H18.951L19.1744 49.9115C19.2082 49.9115 19.2624 49.9115 19.3436 49.9048C19.3369 50.0131 19.3301 50.1214 19.3233 50.2365H18.2741L18.098 50.2297ZM20.1018 50.2094C20.095 50.0537 20.0815 49.9318 20.068 49.8438C20.1492 49.8777 20.2237 49.9048 20.2846 49.9183C20.3455 49.9318 20.3997 49.9386 20.4471 49.9386C20.508 49.9386 20.5621 49.9318 20.596 49.9115C20.6366 49.8912 20.6501 49.8641 20.6501 49.8303C20.6501 49.8168 20.6501 49.8032 20.6434 49.7964C20.6366 49.7829 20.6298 49.7761 20.6231 49.7558C20.6095 49.7423 20.596 49.7287 20.5824 49.7084L20.3794 49.5324C20.332 49.4918 20.2981 49.4647 20.2778 49.4444C20.2372 49.4106 20.2101 49.3767 20.1898 49.3429C20.1695 49.309 20.156 49.282 20.1424 49.2481C20.1357 49.2143 20.1289 49.1804 20.1289 49.1466C20.1289 49.106 20.1357 49.0586 20.1492 49.018C20.1627 48.9773 20.1898 48.9367 20.2169 48.8961C20.2507 48.8623 20.2914 48.8284 20.3387 48.8013C20.3929 48.7743 20.4471 48.7539 20.5012 48.7472C20.5621 48.7404 20.6231 48.7336 20.684 48.7336C20.8058 48.7336 20.9412 48.7472 21.0834 48.7742C21.0834 48.8216 21.0902 48.869 21.0902 48.9096C21.0902 48.9503 21.0969 49.0247 21.1105 49.1263C21.0428 49.0992 20.9819 49.0789 20.9277 49.0721C20.8735 49.0586 20.8262 49.0586 20.7855 49.0586C20.7314 49.0586 20.684 49.0721 20.6434 49.0924C20.6028 49.1127 20.5892 49.1398 20.5892 49.1669C20.5892 49.1804 20.5892 49.194 20.596 49.2075C20.6028 49.221 20.6095 49.2346 20.6298 49.2549C20.6434 49.2752 20.6637 49.2955 20.6908 49.3158C20.7178 49.3361 20.7585 49.37 20.8126 49.4106L20.8871 49.4715C20.9074 49.4918 20.9345 49.5121 20.9615 49.5392C20.9886 49.5663 21.0089 49.5934 21.0292 49.6204C21.0495 49.6475 21.0631 49.6678 21.0766 49.6949C21.0902 49.7152 21.0969 49.7355 21.0969 49.7626C21.1037 49.7829 21.1037 49.81 21.1037 49.8303C21.1037 49.898 21.0902 49.9589 21.0563 50.0131C21.0225 50.074 20.9819 50.1214 20.9277 50.1552C20.8735 50.1958 20.8058 50.2162 20.7381 50.2365C20.6705 50.25 20.596 50.2568 20.5215 50.2568C20.4268 50.2568 20.2778 50.2432 20.1018 50.2094ZM21.3339 50.2297C21.3542 50.0469 21.3677 49.8912 21.3745 49.7626C21.3813 49.6407 21.388 49.4715 21.4016 49.2617C21.4083 49.0518 21.4151 48.9164 21.4151 48.8487V48.7539H22.6201V48.7878C22.6201 48.7946 22.6201 48.8284 22.6133 48.8826L22.6065 48.9976V49.0721C22.4644 49.0653 22.3493 49.0653 22.2545 49.0653H22.0447C22.0108 49.0653 21.9499 49.0653 21.8754 49.0721L21.8619 49.3226H22.1597C22.2004 49.3226 22.3087 49.3226 22.4847 49.3158C22.4779 49.4106 22.4711 49.5189 22.4644 49.6475H22.1801C22.0785 49.6475 21.9702 49.6475 21.8483 49.6543L21.8348 49.9183H22.1868L22.4102 49.9115C22.4441 49.9115 22.4982 49.9115 22.5795 49.9048C22.5727 50.0131 22.5659 50.1214 22.5591 50.2365H21.5099L21.3339 50.2297ZM22.7961 50.2297C22.8096 50.1011 22.8232 49.986 22.8299 49.8844C22.8367 49.7829 22.8435 49.6678 22.8502 49.5324C22.857 49.397 22.8638 49.2549 22.8638 49.106C22.8638 48.957 22.8705 48.8419 22.8705 48.7539C22.9585 48.7539 23.033 48.7607 23.0872 48.7607C23.1413 48.7607 23.2158 48.7607 23.297 48.7539C23.3783 48.7539 23.4595 48.7472 23.5407 48.7472C23.6355 48.7472 23.7167 48.7539 23.7844 48.7607C23.8386 48.7675 23.886 48.7742 23.9334 48.7946C23.9807 48.8081 24.0146 48.8284 24.0484 48.8555C24.0755 48.8758 24.1026 48.9029 24.1229 48.9299C24.1432 48.957 24.1567 48.9909 24.1703 49.0315C24.1838 49.0721 24.1838 49.1127 24.1838 49.1533C24.1838 49.2007 24.1771 49.2481 24.1635 49.2887C24.15 49.3294 24.1297 49.37 24.1026 49.4106C24.0755 49.4444 24.0417 49.4783 24.001 49.5054C23.9604 49.5324 23.9063 49.5595 23.8318 49.5866L23.886 49.722C23.8995 49.7626 23.9198 49.7964 23.9401 49.8371L24.0823 50.1552C24.0891 50.1688 24.1026 50.1958 24.1161 50.2365H23.622C23.6084 50.1958 23.5881 50.1281 23.561 50.0266C23.5475 49.986 23.5407 49.9521 23.5272 49.9251C23.5069 49.8709 23.4866 49.8032 23.4527 49.7084L23.3444 49.4038C23.385 49.4106 23.4189 49.4174 23.4595 49.4174C23.5136 49.4174 23.561 49.4106 23.6016 49.397C23.6423 49.3835 23.6761 49.3564 23.6964 49.3226C23.7167 49.2887 23.7303 49.2549 23.7303 49.221C23.7303 49.1872 23.7235 49.1601 23.7032 49.1398C23.6897 49.1195 23.6626 49.0992 23.622 49.0856C23.5881 49.0721 23.534 49.0653 23.4595 49.0653H23.2835C23.2767 49.2143 23.2632 49.3903 23.2564 49.6069C23.2496 49.8168 23.2429 50.0266 23.2429 50.2297H23.0059C22.9789 50.2297 22.9044 50.2297 22.7961 50.2297ZM24.7389 50.2297L24.6983 50.1011L24.4343 49.3429L24.2244 48.7607H24.7118C24.7254 48.8216 24.7389 48.8758 24.7525 48.9096C24.766 48.9503 24.7931 49.0315 24.8269 49.1466L24.9826 49.6611C24.9962 49.7152 25.0165 49.7829 25.0436 49.8709L25.0909 49.7491L25.47 48.9232C25.4768 48.9096 25.4836 48.8893 25.4903 48.869C25.4971 48.8487 25.5106 48.8149 25.531 48.7675H26.0184C25.9439 48.9029 25.8627 49.0653 25.7679 49.2481L25.3956 49.986C25.3617 50.0605 25.3211 50.1417 25.2737 50.2432H25.0165C24.9623 50.2297 24.8743 50.2297 24.7389 50.2297ZM26.0184 50.2297C26.059 49.6543 26.0793 49.2075 26.0793 48.8961V48.7539H26.5599C26.5464 48.9164 26.5396 49.0721 26.5261 49.2143C26.5193 49.4174 26.5125 49.6069 26.5058 49.7829C26.499 49.9589 26.499 50.1078 26.499 50.2297H26.0184ZM28.0492 49.8709C28.0424 49.9115 28.0289 49.9725 28.0154 50.0469C28.0018 50.1214 27.9951 50.1823 27.9883 50.2229C27.8326 50.2432 27.6972 50.2568 27.5753 50.2568C27.4603 50.2568 27.352 50.2432 27.2504 50.2162C27.1489 50.1891 27.0609 50.1417 26.9729 50.074C26.8916 50.0063 26.8307 49.9318 26.7901 49.8371C26.7562 49.7491 26.7359 49.6475 26.7359 49.5324C26.7359 49.4038 26.763 49.282 26.8104 49.1804C26.8578 49.0789 26.9255 48.9909 27.0202 48.9232C27.1083 48.8555 27.2098 48.8013 27.3181 48.7742C27.4264 48.7472 27.5415 48.7269 27.6566 48.7269C27.7649 48.7269 27.8935 48.7404 28.0492 48.7675V48.8555C28.0492 48.8961 28.056 48.9367 28.056 48.9841L28.0627 49.106C27.9815 49.0856 27.9071 49.0721 27.8597 49.0653C27.8055 49.0586 27.7581 49.0518 27.7175 49.0518C27.6227 49.0518 27.5347 49.0721 27.4535 49.1127C27.379 49.1533 27.3181 49.2075 27.2707 49.282C27.2233 49.3564 27.203 49.4377 27.203 49.5257C27.203 49.6069 27.2233 49.6746 27.2572 49.7355C27.2978 49.7964 27.3452 49.8371 27.4061 49.8709C27.467 49.9048 27.5483 49.9183 27.643 49.9183C27.6972 49.9183 27.7514 49.9115 27.8123 49.9048C27.8867 49.9115 27.9612 49.8912 28.0492 49.8709ZM27.7852 50.3177C27.7446 50.3922 27.7175 50.4463 27.704 50.4802L27.6363 50.6156H27.203C27.3113 50.4734 27.3858 50.3719 27.4264 50.3109C27.4738 50.3177 27.5077 50.3177 27.5347 50.3177H27.6363C27.6634 50.3245 27.7107 50.3177 27.7852 50.3177ZM29.1526 48.7269C29.2677 48.7269 29.376 48.7404 29.4843 48.7742C29.5927 48.8081 29.6874 48.8555 29.7619 48.9232C29.8431 48.9909 29.9041 49.0721 29.9379 49.1601C29.9785 49.2481 29.9988 49.3497 29.9988 49.4647C29.9988 49.5866 29.9785 49.6949 29.9311 49.7964C29.8905 49.898 29.8228 49.986 29.7416 50.0537C29.6604 50.1214 29.5588 50.1755 29.4505 50.2094C29.3354 50.2432 29.2203 50.2568 29.0917 50.2568C28.9699 50.2568 28.8548 50.2432 28.7397 50.2094C28.6314 50.1755 28.5298 50.1282 28.4486 50.0537C28.3674 49.9792 28.3065 49.9048 28.2726 49.8168C28.2388 49.7288 28.2185 49.634 28.2185 49.5257C28.2185 49.37 28.2523 49.2278 28.3268 49.1127C28.4012 48.9909 28.5095 48.9029 28.6517 48.8352C28.8074 48.7607 28.9699 48.7269 29.1526 48.7269ZM29.1323 49.0518C29.0511 49.0518 28.9766 49.0721 28.9089 49.1127C28.8412 49.1533 28.7939 49.2075 28.7532 49.282C28.7194 49.3564 28.6991 49.4309 28.6991 49.5121C28.6991 49.5866 28.7126 49.6611 28.7465 49.722C28.7803 49.7829 28.8277 49.8371 28.8954 49.8709C28.9631 49.9048 29.0308 49.9251 29.1053 49.9251C29.1865 49.9251 29.261 49.9048 29.3219 49.8641C29.3896 49.8235 29.437 49.7694 29.4776 49.6949C29.5114 49.6204 29.5317 49.546 29.5317 49.4647C29.5317 49.3903 29.5182 49.3158 29.4843 49.2481C29.4505 49.1804 29.4031 49.133 29.3422 49.0992C29.2813 49.0721 29.2068 49.0518 29.1323 49.0518ZM30.1613 50.2094C30.1545 50.0537 30.141 49.9318 30.1274 49.8438C30.2087 49.8777 30.2831 49.9048 30.3441 49.9183C30.405 49.9318 30.4592 49.9386 30.5065 49.9386C30.5675 49.9386 30.6216 49.9318 30.6555 49.9115C30.6961 49.8912 30.7096 49.8641 30.7096 49.8303C30.7096 49.8168 30.7096 49.8032 30.7029 49.7964C30.7029 49.7829 30.6893 49.7761 30.6825 49.7558C30.669 49.7423 30.6555 49.7287 30.6419 49.7084L30.4388 49.5324C30.3915 49.4918 30.3576 49.4647 30.3373 49.4444C30.2967 49.4106 30.2696 49.3767 30.2493 49.3429C30.229 49.309 30.2155 49.282 30.2019 49.2481C30.1951 49.2143 30.1884 49.1804 30.1884 49.1466C30.1884 49.106 30.1951 49.0586 30.2087 49.018C30.2222 48.9773 30.2493 48.9367 30.2764 48.8961C30.3102 48.8623 30.3508 48.8284 30.3982 48.8013C30.4524 48.7743 30.5065 48.7539 30.5607 48.7472C30.6216 48.7404 30.6758 48.7336 30.7435 48.7336C30.8653 48.7336 31.0007 48.7472 31.1429 48.7742C31.1429 48.8216 31.1496 48.869 31.1496 48.9096C31.1496 48.9503 31.1564 49.0247 31.17 49.1263C31.1023 49.0992 31.0413 49.0789 30.9872 49.0721C30.933 49.0586 30.8856 49.0586 30.845 49.0586C30.7909 49.0586 30.7435 49.0721 30.7029 49.0924C30.6622 49.1127 30.6487 49.1398 30.6487 49.1669C30.6487 49.1804 30.6487 49.194 30.6555 49.2075C30.6622 49.221 30.669 49.2346 30.6893 49.2549C30.7029 49.2752 30.7232 49.2955 30.7502 49.3158C30.7773 49.3361 30.8179 49.37 30.8721 49.4106L30.9533 49.4715C30.9736 49.4918 31.0007 49.5121 31.0278 49.5392C31.0549 49.5663 31.0752 49.5934 31.0955 49.6204C31.1158 49.6475 31.1293 49.6678 31.1429 49.6949C31.1564 49.7152 31.1632 49.7355 31.1632 49.7626C31.17 49.7829 31.17 49.81 31.17 49.8303C31.17 49.898 31.1564 49.9589 31.1226 50.0131C31.0887 50.074 31.0481 50.1214 30.9939 50.1552C30.9398 50.1958 30.8721 50.2162 30.8044 50.2365C30.7367 50.25 30.6622 50.2568 30.5878 50.2568C30.4862 50.2568 30.3373 50.2432 30.1613 50.2094ZM31.9552 50.2297L31.9755 49.9521L32.0026 49.4106L32.0161 49.0247V48.7472C32.1109 48.7472 32.1854 48.7539 32.2463 48.7539C32.3005 48.7539 32.3749 48.7539 32.4765 48.7472C32.5712 48.7472 32.6525 48.7404 32.7202 48.7404C32.8149 48.7404 32.8894 48.7472 32.9368 48.7607C32.9842 48.7742 33.0248 48.7946 33.0654 48.8216C33.106 48.8487 33.1331 48.8758 33.1602 48.9164C33.1873 48.9503 33.2008 48.9909 33.2143 49.0383C33.2279 49.0856 33.2347 49.1263 33.2347 49.1737C33.2347 49.2684 33.2143 49.3564 33.167 49.4377C33.1196 49.5189 33.0519 49.5798 32.9706 49.6137C32.8826 49.6543 32.7879 49.6746 32.6863 49.6746C32.6457 49.6746 32.6051 49.6678 32.5509 49.6611C32.5442 49.6272 32.5374 49.5798 32.5171 49.5121C32.5035 49.4444 32.49 49.397 32.4765 49.3632C32.5103 49.37 32.5442 49.37 32.578 49.37C32.6525 49.37 32.7066 49.3497 32.7405 49.3158C32.7743 49.282 32.7946 49.2413 32.7946 49.1872C32.7946 49.1601 32.7879 49.1398 32.7811 49.1195C32.7743 49.0992 32.7608 49.0856 32.7405 49.0721C32.7202 49.0586 32.7066 49.0518 32.6863 49.0518C32.666 49.045 32.6389 49.045 32.6119 49.045H32.5306L32.4426 49.0518C32.4359 49.194 32.4291 49.3429 32.4223 49.5189C32.4155 49.8303 32.4088 50.0131 32.4088 50.074V50.2162H32.1921C32.1515 50.2297 32.0771 50.2297 31.9552 50.2297ZM33.167 50.2297L33.255 50.074L33.8168 49.018L33.8778 48.9029C33.8981 48.869 33.9184 48.8216 33.9522 48.7539H34.5141L34.6698 49.2075L34.988 50.074L35.0489 50.2297H34.5547C34.5209 50.1078 34.4802 49.9725 34.4193 49.81H33.871C33.8101 49.9386 33.7424 50.074 33.6747 50.2297H33.167ZM34.0064 49.4986H34.3449C34.2636 49.2413 34.2162 49.106 34.2095 49.0789C34.1621 49.1872 34.1215 49.2684 34.0876 49.3361L34.0064 49.4986ZM62.005 49.0518C61.9238 49.0518 61.8493 49.0721 61.7816 49.1127C61.714 49.1533 61.6666 49.2075 61.6259 49.282C61.5921 49.3564 61.5718 49.4309 61.5718 49.5121C61.5718 49.5866 61.5853 49.6611 61.6192 49.722C61.653 49.7829 61.7004 49.8371 61.7681 49.8709C61.8358 49.9048 61.9035 49.9251 61.978 49.9251C62.0592 49.9251 62.1337 49.9048 62.1946 49.8641C62.2623 49.8235 62.3097 49.7694 62.3503 49.6949C62.3841 49.6204 62.4044 49.546 62.4044 49.4647C62.4044 49.3903 62.3909 49.3158 62.3571 49.2481C62.3232 49.1804 62.2758 49.133 62.2149 49.0992C62.154 49.0721 62.0863 49.0518 62.005 49.0518ZM62.0253 48.7269C62.1404 48.7269 62.2487 48.7404 62.3571 48.7742C62.4654 48.8081 62.5601 48.8555 62.6346 48.9232C62.7158 48.9909 62.7768 49.0721 62.8106 49.1601C62.8512 49.2481 62.8715 49.3497 62.8715 49.4647C62.8715 49.5866 62.8512 49.6949 62.8038 49.7964C62.7632 49.898 62.6955 49.986 62.6143 50.0537C62.5331 50.1214 62.4315 50.1755 62.3232 50.2094C62.2081 50.2432 62.093 50.2568 61.9644 50.2568C61.8426 50.2568 61.7275 50.2432 61.6124 50.2094C61.4973 50.1755 61.4026 50.1282 61.3213 50.0537C61.2401 49.9792 61.1792 49.9048 61.1453 49.8168C61.1115 49.7288 61.0912 49.634 61.0912 49.5257C61.0912 49.37 61.125 49.2278 61.1995 49.1127C61.2739 48.9909 61.3822 48.9029 61.5244 48.8352C61.6801 48.7607 61.8426 48.7269 62.0253 48.7269ZM59.8456 48.605C59.8456 48.517 59.8659 48.4493 59.8862 48.4087C59.9133 48.3613 59.9539 48.341 60.008 48.341C60.0216 48.341 60.0419 48.341 60.0554 48.3478C60.069 48.3545 60.0825 48.3545 60.096 48.3613C60.1096 48.3681 60.1299 48.3749 60.157 48.3952C60.1908 48.4155 60.2111 48.4222 60.2179 48.429C60.2247 48.4358 60.2382 48.4358 60.245 48.4358H60.2653C60.272 48.4358 60.2856 48.4358 60.2924 48.429C60.2991 48.429 60.3059 48.4155 60.3127 48.4087C60.3194 48.3952 60.3194 48.3816 60.3262 48.3545H60.509C60.509 48.4358 60.4954 48.5035 60.4616 48.5509C60.4345 48.5982 60.3871 48.6186 60.333 48.6186C60.3194 48.6186 60.2991 48.6186 60.2856 48.6118C60.272 48.605 60.2585 48.605 60.2382 48.5915C60.2247 48.5847 60.1976 48.5712 60.1705 48.5509C60.1367 48.5305 60.1163 48.517 60.1028 48.517C60.0893 48.5102 60.0757 48.5102 60.069 48.5102C60.0554 48.5102 60.0487 48.5102 60.0351 48.5238C60.0283 48.5305 60.0216 48.5373 60.0148 48.5441C60.0148 48.5509 60.008 48.5644 60.008 48.5915H59.92C59.9133 48.605 59.8862 48.605 59.8456 48.605ZM59.9742 49.4986H60.3127C60.2314 49.2413 60.184 49.106 60.1773 49.0789C60.1299 49.1872 60.0893 49.2684 60.0554 49.3361L59.9742 49.4986ZM59.1348 50.2297L59.2228 50.074L59.7846 49.0247L59.8456 48.9096C59.8659 48.8758 59.8862 48.8284 59.92 48.7607H60.4819L60.6376 49.2143L60.9558 50.0808L61.0167 50.2365H60.5225C60.4887 50.1146 60.4481 49.9792 60.3871 49.8168H59.8456C59.7846 49.9454 59.7169 50.0808 59.6493 50.2365H59.4056C59.3446 50.2297 59.2566 50.2297 59.1348 50.2297ZM58.8572 50.3177C58.8166 50.3922 58.7895 50.4463 58.776 50.4802L58.7083 50.6156H58.275C58.3834 50.4734 58.4578 50.3719 58.4984 50.3109C58.5458 50.3177 58.5797 50.3177 58.6067 50.3177H58.7083C58.7354 50.3245 58.7895 50.3177 58.8572 50.3177ZM59.1212 49.8709C59.1145 49.9115 59.1009 49.9725 59.0874 50.0469C59.0738 50.1214 59.0671 50.1823 59.0603 50.2229C58.9046 50.2432 58.7692 50.2568 58.6474 50.2568C58.5323 50.2568 58.424 50.2432 58.3224 50.2162C58.2209 50.1891 58.1329 50.1417 58.0449 50.074C57.9636 50.0063 57.9027 49.9318 57.8621 49.8371C57.8283 49.7491 57.8079 49.6475 57.8079 49.5324C57.8079 49.4038 57.835 49.282 57.8824 49.1804C57.9298 49.0789 57.9975 48.9909 58.0923 48.9232C58.1803 48.8555 58.2818 48.8013 58.3901 48.7742C58.4984 48.7472 58.6135 48.7269 58.7286 48.7269C58.8369 48.7269 58.9655 48.7404 59.1212 48.7675V48.8555C59.1212 48.8961 59.128 48.9367 59.128 48.9841L59.1348 49.106C59.0535 49.0856 58.9791 49.0721 58.9317 49.0653C58.8775 49.0586 58.8301 49.0518 58.7895 49.0518C58.6948 49.0518 58.6068 49.0721 58.5255 49.1127C58.451 49.1533 58.3901 49.2075 58.3427 49.282C58.2954 49.3564 58.275 49.4377 58.275 49.5257C58.275 49.6069 58.2953 49.6814 58.3292 49.7355C58.3698 49.7964 58.4172 49.8371 58.4781 49.8709C58.5391 49.9048 58.6203 49.9183 58.7151 49.9183C58.7692 49.9183 58.8234 49.9115 58.8843 49.9048C58.9588 49.9115 59.0332 49.8912 59.1212 49.8709ZM56.19 48.7539H56.6571L56.6233 49.2143C56.6165 49.3023 56.6097 49.3835 56.6097 49.458C56.6097 49.5324 56.603 49.5866 56.603 49.6137C56.603 49.6678 56.6097 49.7152 56.6165 49.7491C56.6233 49.7829 56.6368 49.8168 56.6571 49.8438C56.6774 49.8709 56.7045 49.8912 56.7451 49.9048C56.779 49.9183 56.8196 49.9251 56.8602 49.9251C56.8941 49.9251 56.9279 49.9183 56.955 49.9115C56.9821 49.9048 57.0024 49.8912 57.0159 49.8777C57.0295 49.8641 57.0498 49.8506 57.0565 49.8303C57.0701 49.81 57.0836 49.7829 57.0971 49.7558C57.1107 49.7287 57.1175 49.6881 57.1242 49.6407C57.131 49.5934 57.1378 49.485 57.1513 49.3158C57.1581 49.1736 57.1648 49.045 57.1716 48.9232C57.1784 48.8081 57.1784 48.7539 57.1852 48.7539H57.659L57.6049 49.5189V49.5527C57.6049 49.7017 57.5913 49.81 57.5778 49.8709C57.5642 49.9318 57.5372 49.986 57.5033 50.0334C57.4695 50.0808 57.4153 50.1214 57.3476 50.1552C57.2799 50.1891 57.1987 50.2162 57.1107 50.2297C57.0227 50.2432 56.9347 50.25 56.8467 50.25C56.7654 50.25 56.691 50.2432 56.6165 50.2297C56.5488 50.2162 56.4879 50.2026 56.427 50.1823C56.3728 50.162 56.3254 50.1349 56.2848 50.1078C56.2442 50.0808 56.2171 50.0537 56.1968 50.0266C56.1765 49.9995 56.163 49.9657 56.1494 49.9251C56.1359 49.8777 56.1291 49.8303 56.1291 49.7829V49.7017C56.1291 49.6678 56.1359 49.6137 56.1359 49.5527L56.1494 49.3767C56.1494 49.3293 56.1562 49.2617 56.163 49.1737L56.19 48.7539ZM54.5721 50.2297C54.5857 50.1011 54.5992 49.986 54.606 49.8844C54.6127 49.7829 54.6195 49.6678 54.6263 49.5324C54.633 49.397 54.6398 49.2549 54.6398 49.106C54.6398 48.957 54.6466 48.8419 54.6466 48.7539H54.8632C54.9241 48.7539 54.9918 48.7539 55.0731 48.7472C55.1543 48.7472 55.2355 48.7404 55.3168 48.7404C55.4115 48.7404 55.4928 48.7472 55.5605 48.7539C55.6146 48.7607 55.662 48.7675 55.7094 48.7878C55.7568 48.8013 55.7906 48.8216 55.8245 48.8487C55.8516 48.869 55.8786 48.8961 55.8989 48.9232C55.9193 48.9503 55.9328 48.9841 55.9463 49.0247C55.9599 49.0653 55.9599 49.106 55.9599 49.1466C55.9599 49.194 55.9531 49.2413 55.9396 49.282C55.926 49.3226 55.9057 49.3632 55.8786 49.4038C55.8516 49.4444 55.8177 49.4715 55.7771 49.4986C55.7365 49.5257 55.6823 49.5527 55.6079 49.5798L55.662 49.7152C55.6756 49.7558 55.6959 49.7897 55.7162 49.8303L55.8583 50.1485C55.8651 50.162 55.8786 50.1891 55.8922 50.2297H55.398C55.3845 50.1891 55.3642 50.1214 55.3371 50.0198C55.3235 49.9792 55.3168 49.9454 55.3032 49.9183C55.2829 49.8641 55.2626 49.7964 55.2288 49.7017L55.1205 49.397C55.1611 49.4038 55.1949 49.4106 55.2355 49.4106C55.2897 49.4106 55.3371 49.4038 55.3777 49.3903C55.4183 49.3767 55.4522 49.3497 55.4725 49.3158C55.4928 49.282 55.5063 49.2481 55.5063 49.2143C55.5063 49.1804 55.4995 49.1533 55.4792 49.133C55.4657 49.1127 55.4386 49.0924 55.398 49.0789C55.3642 49.0653 55.31 49.0586 55.2355 49.0586H55.0595C55.0528 49.2075 55.0392 49.3835 55.0324 49.6001C55.0257 49.81 55.0189 50.0198 55.0189 50.2229H54.782C54.7549 50.2297 54.6804 50.2297 54.5721 50.2297ZM53.4958 50.2297C53.5296 49.8777 53.5567 49.4918 53.5635 49.0721L53.1031 49.0856L53.1099 48.9638C53.1099 48.9029 53.1167 48.8284 53.1167 48.7539H54.4977L54.4909 48.8623C54.4909 48.9164 54.4841 48.9638 54.4841 49.0044V49.0856C54.3284 49.0789 54.1998 49.0721 54.105 49.0721H54.0306C54.017 49.2007 54.0103 49.3158 54.0035 49.4241C53.9967 49.5798 53.9899 49.7287 53.9832 49.8777C53.9764 50.0266 53.9764 50.1417 53.9764 50.2297H53.7462C53.7124 50.2297 53.6312 50.2297 53.4958 50.2297ZM51.932 50.2094C51.9252 50.0537 51.9117 49.9318 51.8982 49.8438C51.9794 49.8777 52.0539 49.9048 52.1148 49.9183C52.1757 49.9318 52.2299 49.9386 52.2773 49.9386C52.3382 49.9386 52.3923 49.9318 52.4262 49.9115C52.4668 49.8912 52.4803 49.8641 52.4803 49.8303C52.4803 49.8168 52.4803 49.8032 52.4736 49.7964C52.4736 49.7829 52.46 49.7761 52.4533 49.7558C52.4397 49.7423 52.4262 49.7287 52.4127 49.7084L52.2096 49.5324C52.1622 49.4918 52.1283 49.4647 52.108 49.4444C52.0674 49.4106 52.0403 49.3767 52.02 49.3429C51.9997 49.309 51.9862 49.282 51.9726 49.2481C51.9659 49.2143 51.9591 49.1804 51.9591 49.1466C51.9591 49.106 51.9659 49.0586 51.9794 49.018C51.9929 48.9773 52.02 48.9367 52.0471 48.9029C52.0809 48.869 52.1216 48.8352 52.1689 48.8081C52.2231 48.781 52.2773 48.7607 52.3314 48.7539C52.3923 48.7472 52.4465 48.7404 52.5142 48.7404C52.636 48.7404 52.7714 48.7539 52.9136 48.781C52.9136 48.8284 52.9204 48.8758 52.9204 48.9164C52.9204 48.957 52.9271 49.0315 52.9407 49.133C52.873 49.106 52.8121 49.0856 52.7579 49.0789C52.7037 49.0653 52.6564 49.0653 52.6157 49.0653C52.5616 49.0653 52.5142 49.0789 52.4736 49.0992C52.433 49.1195 52.4194 49.1466 52.4194 49.1804C52.4194 49.194 52.4194 49.2075 52.4262 49.221C52.433 49.2346 52.4397 49.2481 52.46 49.2684C52.4736 49.2887 52.4939 49.309 52.521 49.3293C52.548 49.3497 52.5887 49.3835 52.6428 49.4241L52.7241 49.485C52.7444 49.5054 52.7714 49.5257 52.7985 49.5527C52.8256 49.5798 52.8459 49.6069 52.8662 49.634C52.8865 49.6611 52.9001 49.6814 52.9136 49.7084C52.9271 49.7287 52.9339 49.7491 52.9339 49.7761C52.9407 49.7964 52.9407 49.8235 52.9407 49.8438C52.9407 49.9115 52.9271 49.9725 52.8933 50.0266C52.8594 50.0875 52.8188 50.1349 52.7647 50.1688C52.7105 50.2094 52.6428 50.2297 52.5751 50.25C52.5074 50.2635 52.433 50.2703 52.3585 50.2703C52.257 50.2568 52.108 50.2432 51.932 50.2094ZM50.1313 50.2297L50.1516 49.9995L50.1923 49.2278L50.2058 48.9164V48.7539H50.7609L51.2212 49.5934L51.2821 49.7152C51.2889 49.5934 51.2957 49.4241 51.3092 49.2075C51.316 48.9909 51.3228 48.8352 51.3228 48.7539H51.7492L51.7222 49.0789L51.6748 49.9725L51.668 50.2297H51.1264C51.0858 50.162 51.0588 50.1078 51.0452 50.074L50.8557 49.7694C50.7947 49.6678 50.7406 49.5731 50.6932 49.4783C50.6594 49.4174 50.6255 49.3564 50.5917 49.2887L50.5714 49.8032L50.5578 50.2365H50.3547C50.3141 50.2297 50.2396 50.2297 50.1313 50.2297ZM49.0821 49.0518C49.0008 49.0518 48.9264 49.0721 48.8587 49.1127C48.791 49.1533 48.7436 49.2075 48.703 49.282C48.6691 49.3564 48.6488 49.4309 48.6488 49.5121C48.6488 49.5866 48.6623 49.6611 48.6962 49.722C48.73 49.7829 48.7774 49.8371 48.8451 49.8709C48.9128 49.9048 48.9805 49.9251 49.055 49.9251C49.1362 49.9251 49.2107 49.9048 49.2716 49.8641C49.3393 49.8235 49.3867 49.7694 49.4273 49.6949C49.4612 49.6204 49.4815 49.546 49.4815 49.4647C49.4815 49.3903 49.4679 49.3158 49.4341 49.2481C49.4002 49.1804 49.3528 49.133 49.2919 49.0992C49.231 49.0721 49.1633 49.0518 49.0821 49.0518ZM49.1024 48.7269C49.2174 48.7269 49.3258 48.7404 49.4341 48.7742C49.5424 48.8081 49.6372 48.8555 49.7116 48.9232C49.7929 48.9909 49.8538 49.0721 49.8876 49.1601C49.9282 49.2481 49.9486 49.3497 49.9486 49.4647C49.9486 49.5866 49.9282 49.6949 49.8809 49.7964C49.8402 49.898 49.7725 49.986 49.6913 50.0537C49.6101 50.1214 49.5085 50.1755 49.4002 50.2094C49.2851 50.2432 49.1701 50.2568 49.0414 50.2568C48.9196 50.2568 48.8045 50.2432 48.6894 50.2094C48.5743 50.1755 48.4796 50.1282 48.3983 50.0537C48.3171 49.9792 48.2562 49.9048 48.2223 49.8168C48.1885 49.7288 48.1682 49.634 48.1682 49.5257C48.1682 49.37 48.202 49.2278 48.2765 49.1127C48.351 48.9909 48.4593 48.9029 48.6014 48.8352C48.7639 48.7607 48.9264 48.7269 49.1024 48.7269ZM48.0057 49.8709C47.9989 49.9115 47.9854 49.9725 47.9719 50.0469C47.9583 50.1214 47.9515 50.1823 47.9448 50.2229C47.7891 50.2432 47.6537 50.2568 47.5318 50.2568C47.4168 50.2568 47.3084 50.2432 47.2069 50.2162C47.1054 50.1891 47.0174 50.1417 46.9294 50.074C46.8481 50.0063 46.7872 49.9318 46.7466 49.8371C46.7127 49.7491 46.6924 49.6475 46.6924 49.5324C46.6924 49.4038 46.7195 49.282 46.7669 49.1804C46.8143 49.0789 46.882 48.9909 46.9767 48.9232C47.0647 48.8555 47.1663 48.8013 47.2746 48.7742C47.3829 48.7472 47.498 48.7269 47.6131 48.7269C47.7214 48.7269 47.85 48.7404 48.0057 48.7675V48.8555C48.0057 48.8961 48.0125 48.9367 48.0125 48.9841L48.0192 49.106C47.938 49.0856 47.8635 49.0721 47.8162 49.0653C47.762 49.0586 47.7146 49.0518 47.674 49.0518C47.5792 49.0518 47.4912 49.0721 47.41 49.1127C47.3355 49.1533 47.2746 49.2075 47.2272 49.282C47.1798 49.3564 47.1595 49.4377 47.1595 49.5257C47.1595 49.6069 47.1798 49.6814 47.2137 49.7355C47.2543 49.7964 47.3017 49.8371 47.3626 49.8709C47.4235 49.9048 47.5048 49.9183 47.5995 49.9183C47.6537 49.9183 47.7078 49.9115 47.7688 49.9048C47.8365 49.9115 47.9109 49.8912 48.0057 49.8709ZM45.0136 49.4986H45.3521C45.2708 49.2413 45.2234 49.106 45.2167 49.0789C45.1693 49.1872 45.1287 49.2684 45.0948 49.3361L45.0136 49.4986ZM44.1809 50.2297L44.2689 50.074L44.8308 49.0247L44.8917 48.9096C44.912 48.8758 44.9324 48.8284 44.9662 48.7607H45.5281L45.6838 49.2143L46.0019 50.0808L46.0629 50.2365H45.5687C45.5348 50.1146 45.4942 49.9792 45.4333 49.8168H44.8917C44.8308 49.9454 44.7631 50.0808 44.6954 50.2365H44.4517C44.3908 50.2297 44.3028 50.2297 44.1809 50.2297ZM42.7187 48.7539H43.1858L43.152 49.2143C43.1452 49.3023 43.1384 49.3835 43.1384 49.458C43.1384 49.5324 43.1317 49.5866 43.1317 49.6137C43.1317 49.6678 43.1384 49.7152 43.1452 49.7491C43.152 49.7829 43.1655 49.8168 43.1858 49.8438C43.2061 49.8709 43.2332 49.8912 43.2738 49.9048C43.3077 49.9183 43.3483 49.9251 43.3889 49.9251C43.4228 49.9251 43.4566 49.9183 43.4837 49.9115C43.5108 49.9048 43.5311 49.8912 43.5446 49.8777C43.5581 49.8641 43.5785 49.8506 43.5852 49.8303C43.5988 49.81 43.6123 49.7829 43.6258 49.7558C43.6394 49.7287 43.6461 49.6881 43.6529 49.6407C43.6597 49.5934 43.6665 49.485 43.68 49.3158C43.6868 49.1736 43.6935 49.045 43.7003 48.9232C43.7071 48.8081 43.7071 48.7539 43.7138 48.7539H44.1877L44.1335 49.5189V49.5527C44.1335 49.7017 44.12 49.81 44.1065 49.8709C44.0929 49.9318 44.0659 49.986 44.032 50.0334C43.9982 50.0808 43.944 50.1214 43.8763 50.1552C43.8086 50.1891 43.7274 50.2162 43.6394 50.2297C43.5514 50.2432 43.4634 50.25 43.3754 50.25C43.2941 50.25 43.2197 50.2432 43.1452 50.2297C43.0775 50.2162 43.0166 50.2026 42.9557 50.1823C42.9015 50.162 42.8541 50.1349 42.8135 50.1078C42.7729 50.0808 42.7458 50.0537 42.7255 50.0266C42.7052 49.9995 42.6916 49.9657 42.6781 49.9251C42.6646 49.8777 42.6578 49.8303 42.6578 49.7829V49.7017C42.6578 49.6678 42.6646 49.6137 42.6646 49.5527L42.6781 49.3767C42.6781 49.3293 42.6849 49.2617 42.6916 49.1737L42.7187 48.7539ZM41.4122 50.2094C41.4054 50.0537 41.3919 49.9318 41.3784 49.8438C41.4596 49.8777 41.5341 49.9048 41.595 49.9183C41.6559 49.9318 41.7101 49.9386 41.7575 49.9386C41.8184 49.9386 41.8725 49.9318 41.9064 49.9115C41.947 49.8912 41.9605 49.8641 41.9605 49.8303C41.9605 49.8168 41.9605 49.8032 41.9538 49.7964C41.9538 49.7829 41.9402 49.7761 41.9335 49.7558C41.9199 49.7423 41.9064 49.7287 41.8928 49.7084L41.6898 49.5324C41.6424 49.4918 41.6085 49.4647 41.5882 49.4444C41.5476 49.4106 41.5205 49.3767 41.5002 49.3429C41.4799 49.309 41.4664 49.282 41.4528 49.2481C41.4461 49.2143 41.4393 49.1804 41.4393 49.1466C41.4393 49.106 41.4461 49.0586 41.4596 49.018C41.4731 48.9773 41.5002 48.9367 41.5273 48.9029C41.5611 48.869 41.6018 48.8352 41.6491 48.8081C41.7033 48.781 41.7575 48.7607 41.8116 48.7539C41.8725 48.7472 41.9267 48.7404 41.9944 48.7404C42.1162 48.7404 42.2516 48.7539 42.3938 48.781C42.3938 48.8284 42.4006 48.8758 42.4006 48.9164C42.4006 48.957 42.4073 49.0315 42.4209 49.133C42.3532 49.106 42.2922 49.0856 42.2381 49.0789C42.1839 49.0653 42.1365 49.0653 42.0959 49.0653C42.0418 49.0653 41.9944 49.0789 41.9538 49.0992C41.9132 49.1195 41.8996 49.1466 41.8996 49.1804C41.8996 49.194 41.8996 49.2075 41.9064 49.221C41.9132 49.2346 41.9199 49.2481 41.9402 49.2684C41.9605 49.2887 41.9741 49.309 42.0012 49.3293C42.0282 49.3497 42.0689 49.3835 42.123 49.4241L42.2042 49.485C42.2245 49.5054 42.2516 49.5257 42.2787 49.5527C42.3058 49.5798 42.3261 49.6069 42.3464 49.634C42.3667 49.6611 42.3802 49.6814 42.3938 49.7084C42.4073 49.7287 42.4141 49.7491 42.4141 49.7761C42.4209 49.7964 42.4209 49.8235 42.4209 49.8438C42.4209 49.9115 42.4073 49.9725 42.3735 50.0266C42.3396 50.0875 42.299 50.1349 42.2449 50.1688C42.1907 50.2094 42.123 50.2297 42.0553 50.25C41.9876 50.2635 41.9132 50.2703 41.8387 50.2703C41.7371 50.2568 41.595 50.2432 41.4122 50.2094ZM39.7131 49.4986H40.0515C39.9703 49.2413 39.9229 49.106 39.9161 49.0789C39.8688 49.1872 39.8281 49.2684 39.7943 49.3361L39.7131 49.4986ZM38.8804 50.2297L38.9684 50.074L39.5303 49.0247L39.5912 48.9096C39.6115 48.8758 39.6318 48.8284 39.6657 48.7607H40.2275L40.3832 49.2143L40.7014 50.0808L40.7623 50.2365H40.2682C40.2343 50.1146 40.1937 49.9792 40.1328 49.8168H39.5912C39.5303 49.9454 39.4626 50.0808 39.3949 50.2365H39.1512C39.0903 50.2297 39.0023 50.2297 38.8804 50.2297ZM37.3573 49.4986H37.6958C37.6145 49.2413 37.5671 49.106 37.5604 49.0789C37.513 49.1872 37.4724 49.2684 37.4385 49.3361L37.3573 49.4986ZM36.5246 50.2297L36.6126 50.074L37.1745 49.0247L37.2354 48.9096C37.2557 48.8758 37.276 48.8284 37.3099 48.7607H37.8718L38.0275 49.2143L38.3456 50.0808L38.4066 50.2365H37.9124C37.8785 50.1146 37.8379 49.9792 37.777 49.8168H37.2354C37.1745 49.9454 37.1068 50.0808 37.0391 50.2365H36.7954C36.7345 50.2297 36.6465 50.2297 36.5246 50.2297ZM35.164 50.2297C35.1775 50.1011 35.191 49.986 35.1978 49.8844C35.2046 49.7829 35.2113 49.6678 35.2181 49.5324C35.2249 49.397 35.2317 49.2549 35.2317 49.106C35.2317 48.957 35.2384 48.8419 35.2384 48.7539H35.455C35.516 48.7539 35.5837 48.7539 35.6649 48.7472C35.7461 48.7472 35.8274 48.7404 35.9086 48.7404C36.0034 48.7404 36.0846 48.7472 36.1523 48.7539C36.2065 48.7607 36.2538 48.7675 36.3012 48.7878C36.3486 48.8013 36.3825 48.8216 36.4163 48.8487C36.4434 48.869 36.4705 48.8961 36.4908 48.9232C36.5111 48.9503 36.5246 48.9841 36.5382 49.0247C36.5517 49.0653 36.5517 49.106 36.5517 49.1466C36.5517 49.194 36.5449 49.2413 36.5314 49.282C36.5179 49.3226 36.4975 49.3632 36.4705 49.4038C36.4434 49.4444 36.4095 49.4715 36.3689 49.4986C36.3283 49.5257 36.2742 49.5527 36.1997 49.5798L36.2539 49.7152C36.2674 49.7558 36.2877 49.7897 36.308 49.8303L36.4502 50.1485C36.4569 50.162 36.4705 50.1891 36.484 50.2297H35.9898C35.9763 50.1891 35.956 50.1214 35.9289 50.0198C35.9154 49.9792 35.9086 49.9454 35.8951 49.9183C35.8748 49.8641 35.8544 49.7964 35.8206 49.7017L35.7123 49.397C35.7529 49.4038 35.7868 49.4106 35.8274 49.4106C35.8815 49.4106 35.9289 49.4038 35.9695 49.3903C36.0101 49.3767 36.044 49.3497 36.0643 49.3158C36.0846 49.282 36.0981 49.2481 36.0981 49.2143C36.0981 49.1804 36.0914 49.1533 36.0711 49.133C36.0575 49.1127 36.0305 49.0924 35.9898 49.0789C35.956 49.0653 35.9018 49.0586 35.8274 49.0586H35.6514C35.6446 49.2075 35.6311 49.3835 35.6243 49.6001C35.6175 49.81 35.6107 50.0198 35.6107 50.2229H35.3738C35.3467 50.2297 35.2723 50.2297 35.164 50.2297Z" fill="#D9D9D9"/>
</svg>
