<svg width="106" height="13" viewBox="0 0 106 13" fill="none" xmlns="http://www.w3.org/2000/svg">
<path d="M96.599 6.66781C95.6987 6.10575 93.8256 5.00086 94.9065 2.40389C95.5191 0.948212 96.5273 0.264853 99.1045 0.264853H105.576C105.898 0.264853 106.027 0.45591 105.936 0.771307L105.811 1.17566C105.396 2.47263 105.035 3.00132 103.449 3.00132H98.5801C98.1502 3.00132 97.8792 3.1944 97.8792 3.52799C97.8792 3.78981 98.0599 3.93033 98.4202 4.15879L102.024 6.40397C103.268 7.17527 104.709 8.24681 103.719 10.6679C103.017 12.3702 101.954 12.7907 99.7887 12.7907H92.6886C92.3283 12.7907 92.239 12.5977 92.348 12.2307L92.4549 11.8789C92.8692 10.5274 93.3002 10.0553 94.8151 10.0553H100.041C100.476 10.0553 100.745 9.87838 100.745 9.5458C100.745 9.28196 100.565 9.14246 100.203 8.91501L96.599 6.66781ZM7.31524 3.31672C7.29655 3.10544 7.24152 3.00132 7.00789 3.00132C6.79399 3.00132 6.70262 3.08826 6.64759 3.31672L4.5761 10.9671C4.21579 12.3177 3.72777 12.7907 2.21491 12.7907H1.34997C0.988629 12.7907 0.899337 12.5977 1.00732 12.2307L3.63847 2.82543C4.14207 0.999766 5.00804 0.15871 7.53225 0.15871C9.26108 0.15871 10.0544 0.580249 10.1997 2.79005L10.6493 9.73787C10.667 9.94914 10.7033 10.0553 10.938 10.0553C11.154 10.0553 11.2433 9.96633 11.2973 9.73787L13.3168 2.08748C13.6782 0.734915 14.1454 0.264853 15.6604 0.264853H16.543C16.9022 0.264853 16.9926 0.45591 16.8846 0.824883L14.2908 10.2302C13.7862 12.0538 12.9378 12.8959 10.4313 12.8959C8.66612 12.8959 7.83752 12.4754 7.71188 10.2645L7.31524 3.31672ZM44.6217 6.66781C43.7215 6.10575 41.8473 5.00086 42.9282 2.40389C43.5408 0.948212 44.5501 0.264853 47.1283 0.264853H53.5972C53.9211 0.264853 54.0488 0.45591 53.9585 0.771307L53.8318 1.17566C53.4175 2.47263 53.0551 3.00132 51.4696 3.00132H46.6039C46.172 3.00132 45.902 3.1944 45.902 3.52799C45.902 3.78981 46.0827 3.93033 46.443 4.15879L50.0471 6.40397C51.291 7.17527 52.7322 8.24681 51.7416 10.6679C51.0387 12.3702 49.9744 12.7907 47.8115 12.7907H40.7103C40.35 12.7907 40.2618 12.5977 40.3687 12.2307L40.4757 11.8789C40.891 10.5274 41.324 10.0553 42.8379 10.0553H48.0638C48.4968 10.0553 48.7678 9.87838 48.7678 9.5458C48.7678 9.28196 48.5882 9.14246 48.2258 8.91501L44.6217 6.66781ZM42.0093 0.264853C42.3696 0.264853 42.4599 0.473095 42.3509 0.824883L42.2439 1.17566C41.8286 2.52722 41.3956 3.00132 39.8817 3.00132H39.4145C37.5932 3.00132 37.1976 3.63313 36.7106 5.4042L35.178 10.9671C34.7991 12.3348 34.3308 12.7907 32.8169 12.7907H31.736C31.3736 12.7907 31.2864 12.5977 31.3943 12.2307L33.7908 3.56135C33.8988 3.1944 33.8074 3.00132 33.4482 3.00132H29.7724C29.4121 3.00132 29.3208 2.80824 29.4288 2.43927L29.5357 2.08748C29.951 0.734915 30.3653 0.264853 31.8792 0.264853H42.0093ZM65.0781 10.9671C64.7001 12.3177 64.2308 12.7907 62.7169 12.7907H61.636C61.2746 12.7907 61.1864 12.5977 61.2933 12.2307L62.4116 8.17504C62.5186 7.80809 62.4282 7.61501 62.0669 7.61501H59.3651C57.5449 7.61501 57.113 8.24681 56.6437 10.0189L56.3924 10.9671C56.03 12.3348 55.544 12.7907 54.0312 12.7907H52.9482C52.5889 12.7907 52.4976 12.5977 52.6066 12.2307L55.4163 2.08748C55.7964 0.734915 56.247 0.264853 57.7599 0.264853H58.8418C59.2 0.264853 59.2904 0.45591 59.1865 0.824883L58.1949 4.40443C58.0849 4.77341 58.1773 4.96548 58.5365 4.96548H61.256C63.0772 4.96548 63.4925 4.33468 63.9598 2.56159L64.0865 2.08748C64.4478 0.719751 64.9338 0.264853 66.4487 0.264853H67.5275C67.892 0.264853 67.9802 0.45591 67.8712 0.824883L65.0781 10.9671ZM93.5359 0.264853C93.8972 0.264853 93.9865 0.45591 93.8785 0.824883L93.8069 1.08873C93.4268 2.45747 92.9772 2.91338 91.4644 2.91338H87.7513C86.5624 2.91338 86.2187 3.28134 85.929 4.33468L85.876 4.52675C85.768 4.89572 85.8584 5.0888 86.2187 5.0888H91.3387C91.698 5.0888 91.7883 5.28087 91.6803 5.64984L91.6056 5.91369C91.2287 7.28142 90.778 7.73733 89.2641 7.73733H86.3983C85.2094 7.73733 84.8294 8.10731 84.5615 9.15863L84.4535 9.58017C84.3621 9.94914 84.4359 10.1422 84.793 10.1422H91.4093C91.7697 10.1422 91.861 10.3343 91.751 10.7043L91.6803 10.9671C91.3003 12.3348 90.8507 12.7907 89.3358 12.7907H80.8484C80.486 12.7907 80.3978 12.5977 80.5057 12.2307L82.8472 3.70187C83.5512 1.15848 84.5958 0.264853 87.2819 0.264853H93.5359ZM28.5088 0.264853C28.8701 0.264853 28.9594 0.45591 28.8525 0.824883L28.7808 1.08873C28.4018 2.45747 27.9512 2.91338 26.4383 2.91338H22.7242C21.5363 2.91338 21.1926 3.28134 20.903 4.33468L20.85 4.52675C20.742 4.89572 20.8323 5.0888 21.1926 5.0888H26.3106C26.6709 5.0888 26.7613 5.28087 26.6543 5.64984L26.5816 5.91369C26.2037 7.28142 25.753 7.73733 24.2381 7.73733H21.3723C20.1823 7.73733 19.8044 8.10731 19.5365 9.15863L19.4275 9.58017C19.3371 9.94914 19.4088 10.1422 19.768 10.1422H26.3833C26.7436 10.1422 26.834 10.3343 26.726 10.7043L26.6543 10.9671C26.2743 12.3348 25.8236 12.7907 24.3108 12.7907H15.8213C15.461 12.7907 15.3717 12.5977 15.4807 12.2307L17.8222 3.70187C18.5252 1.15848 19.5687 0.264853 22.2549 0.264853H28.5088ZM77.1342 6.47574C77.8559 3.94852 77.9099 2.73748 74.8821 2.73748C72.8085 2.73748 72.1627 3.29852 71.2427 6.52729C70.52 9.05451 70.4484 10.2645 73.4409 10.2645C75.638 10.2645 76.233 9.61454 77.1342 6.47574ZM67.8172 6.26446C69.1494 1.07154 71.6747 0 75.2777 0C81.082 0 81.6043 2.77387 80.5774 6.73857C79.3148 11.5979 77.1342 13 73.0255 13C67.6916 13 66.6989 10.6335 67.8172 6.26446Z" fill="#D9D9D9"/>
</svg>
