<svg width="237" height="184" viewBox="0 0 237 184" fill="none" xmlns="http://www.w3.org/2000/svg">
<g clip-path="url(#clip0_17_211)">
<path d="M53.6595 182.691L92.0386 111.07C102.63 99.8805 121.459 94.9206 139.036 98.6901L204.641 112.768C214.202 114.824 222.528 119.291 228.207 125.426L237.008 182.691C237.008 182.691 53.6674 180.905 53.6674 182.691H53.6595Z" fill="#5451A1"/>
<path d="M36.5176 35.4968V18.1967C36.5176 15.5302 34.3551 13.3638 31.6935 13.3638H12.5554C9.89382 13.3638 7.73128 15.5302 7.73128 18.1967V26.4103C7.73128 29.0767 9.89382 31.2432 12.5554 31.2432H29.8795C31.0518 31.2432 32.1846 31.6717 33.0718 32.4494L36.5255 35.4968H36.5176Z" fill="black"/>
<path d="M106.345 69.9624H104.943C104.61 69.9624 104.261 69.7084 104.158 69.3989L103.897 68.764C103.754 68.4704 103.818 68.0419 104.047 67.8117L105.046 66.8198C105.275 66.5896 105.275 66.2087 105.046 65.9786L103.509 64.439C103.279 64.2089 102.899 64.2089 102.669 64.439L101.671 65.4389C101.441 65.6691 101.014 65.7405 100.72 65.5897L100.087 65.3278C99.7778 65.2247 99.5243 64.8755 99.5243 64.5501V63.1455C99.5243 62.8201 99.255 62.5503 98.9302 62.5503H96.7518C96.4271 62.5503 96.1657 62.8201 96.1657 63.1455V64.5501C96.1657 64.8755 95.9122 65.2326 95.6032 65.3278L94.9695 65.5897C94.6764 65.7405 94.2487 65.6691 94.019 65.4389L93.0209 64.439C92.7911 64.2089 92.4109 64.2089 92.1812 64.439L90.6445 65.9786C90.4147 66.2087 90.4147 66.5817 90.6445 66.8198L91.6346 67.8117C91.8643 68.0419 91.9356 68.4704 91.793 68.764L91.5316 69.3989C91.4287 69.7084 91.0801 69.9624 90.7474 69.9624H89.3374C89.0126 69.9624 88.7433 70.2322 88.7433 70.5575V72.732C88.7433 73.0573 89.0126 73.3271 89.3374 73.3271H90.7474C91.0722 73.3271 91.4287 73.5811 91.5316 73.8906L91.793 74.5255C91.9356 74.8191 91.8723 75.2476 91.6346 75.4777L90.6445 76.4697C90.4147 76.6999 90.4147 77.0808 90.6445 77.3109L92.1812 78.8505C92.4109 79.0806 92.7911 79.0806 93.0209 78.8505L94.019 77.8506C94.2487 77.6204 94.6764 77.549 94.9695 77.6918L95.6032 77.9537C95.9122 78.0569 96.1657 78.4061 96.1657 78.7394V80.144C96.1657 80.4694 96.4271 80.7392 96.7518 80.7392H98.9302C99.255 80.7392 99.5243 80.4694 99.5243 80.144V78.7394C99.5243 78.414 99.7778 78.0569 100.087 77.9537L100.72 77.6918C101.014 77.549 101.441 77.6204 101.671 77.8506L102.669 78.8505C102.899 79.0806 103.279 79.0806 103.509 78.8505L105.046 77.3109C105.275 77.0808 105.275 76.6999 105.046 76.4697L104.047 75.4777C103.818 75.2476 103.754 74.8191 103.897 74.5255L104.158 73.8906C104.261 73.5811 104.61 73.3271 104.943 73.3271H106.345C106.669 73.3271 106.939 73.0573 106.939 72.732V70.5575C106.939 70.2322 106.669 69.9624 106.345 69.9624ZM97.845 74.5175C96.2607 74.5175 94.9775 73.2319 94.9775 71.6527C94.9775 70.0735 96.2607 68.7799 97.845 68.7799C99.4293 68.7799 100.705 70.0655 100.705 71.6527C100.705 73.2398 99.4213 74.5175 97.845 74.5175Z" fill="#1D1D1B"/>
<path d="M28.5645 4.38848C25.4039 5.05509 23.2255 7.45964 21.8155 9.80865C21.5383 9.64199 21.2214 9.47534 20.8412 9.31663C3.1844 1.81727 22.4255 24.0931 22.4255 24.0931C28.5724 15.824 35.2423 2.98384 28.5724 4.38848H28.5645Z" fill="white"/>
<path d="M22.4254 24.8866C22.1957 24.8866 21.9739 24.7835 21.8234 24.6089C21.7997 24.5771 19.0351 21.3711 16.5795 17.8317C11.8821 11.0624 12.3098 8.94356 13.0386 7.93571C14.1001 6.47552 16.6824 6.67392 21.158 8.57852C21.2927 8.63407 21.4194 8.69755 21.5462 8.7531C23.4235 5.90414 25.7366 4.17413 28.414 3.60275C30.3627 3.19009 31.2736 3.89638 31.6935 4.55505C34.062 8.26108 26.2673 20.2521 23.0671 24.5533C22.9245 24.7438 22.7027 24.8628 22.4571 24.8708C22.4492 24.8708 22.4413 24.8708 22.4254 24.8708V24.8866ZM15.3516 8.56264C14.615 8.56264 14.3773 8.78485 14.3139 8.87214C13.2366 10.3482 17.5617 17.0937 22.37 22.8154C27.8358 15.2605 31.5271 7.2691 30.3468 5.42006C30.125 5.07088 29.5785 4.98359 28.7309 5.16611C26.3069 5.674 24.2078 7.38021 22.4967 10.2212C22.267 10.5942 21.7838 10.7133 21.4115 10.491C21.158 10.3403 20.8649 10.1895 20.5322 10.0466C17.7677 8.87214 16.2151 8.57058 15.3516 8.57058V8.56264Z" fill="#080717"/>
<path d="M18.8925 89.3575L12.9911 87.929L7.19262 95.1347L7.49363 84.6118L1.0377 82.1756L8.68976 79.7234L8.38083 72.7954L13.0861 78.7314L19.4153 75.2158L15.1378 83.3104L18.8925 89.3575Z" fill="#7874E8"/>
<path d="M156.226 85.6989L169.755 88.8653C185.305 92.5078 200.997 82.7388 204.633 67.1608L205.885 61.7883C210.44 42.282 198.233 22.5932 178.762 18.0381L176.029 23.0615C163.822 20.2046 151.504 27.8706 148.653 40.0917L142.997 64.3436C140.779 73.8587 146.736 83.4689 156.234 85.691L156.226 85.6989Z" fill="#080717"/>
<path d="M171.808 87.4403C189.787 86.5279 203.669 72.0735 202.814 55.1555C201.958 38.2375 186.689 25.2625 168.71 26.175C150.73 27.0875 136.849 41.5419 137.704 58.4598C138.56 75.3778 153.828 88.3528 171.808 87.4403Z" fill="#080717"/>
<path d="M178.683 60.7966C180.212 50.4403 175.387 39.7508 166.42 35.1797C160.828 32.3308 154.744 32.4339 149.548 34.8941C152.408 35.029 160.416 35.8702 162.246 41.0602C164.48 47.4009 165.335 59.6776 178.683 60.8045V60.7966Z" fill="#080717"/>
<path d="M158.239 46.5559C163.797 40.7217 163.581 31.4788 157.757 25.9114C151.934 20.3439 142.708 20.5601 137.15 26.3943C131.593 32.2285 131.809 41.4714 137.632 47.0388C143.456 52.6063 152.682 52.3901 158.239 46.5559Z" fill="#080717"/>
<path d="M183.38 23.7759C198.28 29.323 207.224 44.9804 204.11 60.8917C200.11 62.3837 195.587 62.7566 191.04 61.6932C179.237 58.9316 171.791 47.5675 174.421 36.3145C175.673 30.9578 178.984 26.5931 183.38 23.7838V23.7759Z" fill="#080717"/>
<path d="M182.432 44.454C189.246 40.159 191.293 31.1441 187.006 24.3185C182.719 17.493 173.72 15.4415 166.907 19.7365C160.094 24.0314 158.046 33.0464 162.334 39.8719C166.621 46.6975 175.619 48.749 182.432 44.454Z" fill="#080717"/>
<path d="M143.757 25.6009C141.872 33.6796 146.878 41.7582 154.942 43.647C163.006 45.5357 171.07 40.5202 172.956 32.4416C174.841 24.3629 169.835 16.2842 161.771 14.3955C153.707 12.5068 145.643 17.5222 143.757 25.6009Z" fill="#080717"/>
<path d="M196.403 38.4488C196.276 38.4488 196.141 38.4171 196.023 38.3536C195.642 38.1393 195.5 37.6632 195.706 37.2743C198.209 32.7033 203.968 32.8461 204.205 32.8541C204.641 32.8699 204.982 33.235 204.974 33.6715C204.958 34.1 204.609 34.4412 204.182 34.4412C204.182 34.4412 204.166 34.4412 204.158 34.4412C204.118 34.4412 199.12 34.3381 197.092 38.0441C196.949 38.306 196.68 38.4568 196.395 38.4568L196.403 38.4488Z" fill="#080717"/>
<path d="M195.912 37.9728C195.587 37.9728 195.278 37.7665 195.167 37.4411C195.025 37.0284 195.238 36.5761 195.65 36.4253C199.619 35.0207 200.324 30.0687 200.332 30.0211C200.387 29.5846 200.783 29.2831 201.219 29.3386C201.655 29.3942 201.956 29.791 201.9 30.2274C201.869 30.4734 201.076 36.1872 196.173 37.9252C196.086 37.9569 195.999 37.9728 195.912 37.9728Z" fill="#080717"/>
<path d="M133.357 50.0194L135.527 45.1785C140.676 33.6954 153.635 29.7116 164.329 36.338C173.954 40.671 179.079 50.9082 177.376 60.8677C181.542 61.8755 184.545 65.7244 184.347 70.1684C184.172 74.0491 181.606 77.2393 178.136 78.4138L186.089 109.252L159.877 122.727C153.168 126.179 145.041 122.156 143.702 114.72L142.886 98.6263C140.945 98.3168 139.012 97.7772 137.135 96.928C125.728 91.7936 120.635 78.3582 125.76 66.9306L129.34 58.9551C127.21 57.7013 126.291 55.0348 127.313 52.7096C128.342 50.3606 130.972 49.2417 133.349 50.0194H133.357Z" fill="white"/>
<path d="M154.76 124.767C152.946 124.767 151.132 124.346 149.437 123.505C145.991 121.799 143.615 118.64 142.934 114.855C142.934 114.823 142.926 114.791 142.926 114.752L142.141 99.2928C140.272 98.9437 138.49 98.3961 136.826 97.6501C131.115 95.0789 126.742 90.4285 124.524 84.5639C122.298 78.6994 122.488 72.319 125.055 66.5972L128.358 59.2328C126.291 57.6456 125.53 54.8205 126.6 52.3842C127.685 49.9082 130.323 48.575 132.913 49.0829L134.814 44.8531C137.396 39.0837 141.951 34.9492 147.631 33.2112C153.287 31.4733 159.355 32.3303 164.709 35.6317C174.223 39.9408 179.72 49.9955 178.271 60.2883C182.493 61.6453 185.345 65.7005 185.139 70.2001C184.964 74.0728 182.612 77.4138 179.087 78.8978L186.866 109.046C186.961 109.403 186.794 109.784 186.462 109.951L160.25 123.426C158.507 124.322 156.638 124.767 154.76 124.767ZM144.494 114.625C145.096 117.894 147.156 120.616 150.134 122.085C153.128 123.569 156.55 123.537 159.521 122.013L185.17 108.824L177.376 78.6041C177.273 78.1994 177.495 77.7867 177.891 77.6518C181.178 76.5408 183.404 73.5887 183.562 70.1287C183.745 66.1449 181.067 62.5658 177.201 61.6373C176.797 61.5421 176.536 61.1453 176.607 60.7327C178.295 50.8922 173.114 41.1629 164.02 37.068C163.989 37.0522 163.957 37.0363 163.925 37.0204C158.951 33.9413 153.334 33.1319 148.098 34.7349C142.862 36.3459 138.664 40.1709 136.264 45.5118L134.093 50.3526C133.927 50.7256 133.515 50.9081 133.127 50.7811C131.091 50.1225 128.913 51.0906 128.057 53.0349C127.217 54.9554 127.946 57.2092 129.768 58.2726C130.117 58.4789 130.259 58.9154 130.093 59.2804L126.512 67.2559C124.12 72.5888 123.938 78.5406 126.013 84.0084C128.089 89.4762 132.16 93.8092 137.484 96.2058C139.203 96.9756 141.064 97.5311 143.029 97.8406C143.401 97.8961 143.678 98.2136 143.694 98.5865L144.502 114.625H144.494Z" fill="#080717"/>
<path d="M175.411 79.8502C175.261 79.8502 175.102 79.8502 174.952 79.8423C174.516 79.8185 174.175 79.4534 174.199 79.017C174.215 78.5805 174.587 78.2472 175.023 78.2631C177.257 78.3583 179.38 77.5885 181.02 76.0886C182.667 74.5808 183.626 72.5334 183.729 70.3034C183.752 69.8669 184.117 69.5257 184.552 69.5495C184.988 69.5733 185.329 69.9384 185.305 70.3748C185.186 73.0254 184.038 75.4696 182.081 77.2631C180.235 78.9455 177.883 79.8581 175.403 79.8581L175.411 79.8502Z" fill="#080717"/>
<path d="M173.708 72.97C173.661 72.97 173.621 72.97 173.573 72.9621C173.146 72.8906 172.853 72.478 172.924 72.0494C173.653 67.7562 177.645 66.8753 177.811 66.8435C178.239 66.7562 178.659 67.0261 178.746 67.4546C178.833 67.8831 178.564 68.3037 178.136 68.391C178.002 68.4228 175.031 69.1132 174.484 72.3113C174.421 72.7002 174.08 72.97 173.708 72.97Z" fill="#080717"/>
<path d="M136.604 65.3833C134.442 65.3833 133.063 64.0898 133.04 64.066C132.723 63.7644 132.715 63.2565 133.024 62.947C133.325 62.6296 133.832 62.6216 134.141 62.9232C134.268 63.0343 136.818 65.3436 140.494 61.955C140.819 61.6614 141.318 61.6773 141.611 62.0026C141.904 62.328 141.888 62.828 141.563 63.1216C139.686 64.8516 137.983 65.3754 136.596 65.3754L136.604 65.3833Z" fill="#080717"/>
<path d="M143.108 44.9724C142.577 45.5596 143.464 47.242 145.096 48.7181C146.728 50.1941 148.486 50.9163 149.017 50.3211C149.548 49.7259 148.661 48.0515 147.029 46.5754C145.397 45.0993 143.639 44.3772 143.108 44.9724Z" fill="#080717"/>
<path d="M171.165 39.5996C180.433 42.0994 186.691 51.0034 185.701 60.7327C183.38 61.8517 180.679 62.3278 177.891 61.939C170.635 60.939 165.525 54.5269 166.476 47.6227C166.927 44.3373 168.678 41.528 171.165 39.5996Z" fill="#080717"/>
<path d="M145.516 99.6263C144.494 99.6263 143.464 99.5549 142.434 99.42C141.999 99.3645 141.698 98.9597 141.753 98.5312C141.809 98.0947 142.213 97.7932 142.64 97.8487C152.154 99.1343 161.557 93.9046 165.494 85.1197C165.676 84.7229 166.143 84.5403 166.539 84.7229C166.935 84.9054 167.118 85.3736 166.935 85.7704C163.133 94.2379 154.602 99.6343 145.508 99.6343L145.516 99.6263Z" fill="#080717"/>
<path d="M161.287 91.5396C161.992 90.8492 162.65 90.135 163.268 89.397C160.313 99.5628 152.384 106.943 142.894 109.625L142.403 99.8405C149.326 99.412 156.036 96.6582 161.287 91.5396Z" fill="#080717"/>
<path d="M144.201 56.8522C139.203 56.8522 137.135 53.3843 137.111 53.3446C136.889 52.9637 137.024 52.4796 137.404 52.2574C137.777 52.0431 138.26 52.1701 138.482 52.5431C138.577 52.7097 140.937 56.5586 147.251 54.8207C147.663 54.7016 148.106 54.9556 148.225 55.3762C148.344 55.7968 148.09 56.2332 147.671 56.3523C146.387 56.7094 145.231 56.8522 144.201 56.8522Z" fill="#080717"/>
<path d="M174.168 99.1101L160.78 87.2064C159.307 85.8969 157.049 86.016 155.727 87.4841L155.552 87.6746C153.936 89.4681 153.295 91.9361 153.849 94.2851L154.871 98.6577L174.168 99.1101Z" fill="white"/>
<path d="M174.168 99.9039C173.977 99.9039 173.795 99.8404 173.645 99.7055L160.258 87.8017C159.117 86.7859 157.35 86.8812 156.321 88.016L156.154 88.2064C154.713 89.8015 154.142 92.0077 154.633 94.1028L155.655 98.4833C155.758 98.9119 155.489 99.3404 155.061 99.4356C154.633 99.5388 154.206 99.269 154.111 98.8405L153.089 94.4678C152.479 91.8649 153.192 89.127 154.982 87.143L155.148 86.9526C156.756 85.175 159.521 85.0162 161.311 86.6113L174.698 98.5151C175.023 98.8087 175.055 99.3087 174.762 99.634C174.603 99.8086 174.389 99.9039 174.168 99.9039Z" fill="#080717"/>
<path d="M188.949 182.699L174.16 99.1106L140.264 89.7146L132.184 87.5481C129.103 86.7228 126.314 89.6114 127.241 92.6667C127.606 93.8809 128.517 94.857 129.705 95.3014L138.109 98.4599L133.563 116.903C133 119.196 133.182 121.609 134.085 123.791L136.169 128.806C137.396 131.751 139.828 134.02 142.846 135.028L152.154 138.139L144.217 182.707H188.933L188.949 182.699Z" fill="white"/>
<path d="M188.949 183.492C188.569 183.492 188.236 183.222 188.173 182.834L173.47 99.7376L140.05 90.4765L131.978 88.31C130.814 88.0005 129.618 88.3259 128.778 89.1988C127.938 90.0638 127.645 91.278 127.994 92.4367C128.287 93.4048 129.031 94.1984 129.982 94.5555L138.387 97.714C138.767 97.8568 138.973 98.2536 138.878 98.6504L134.331 117.093C133.808 119.204 133.982 121.474 134.822 123.482L136.905 128.497C138.046 131.227 140.304 133.338 143.108 134.266L152.415 137.377C152.788 137.504 153.01 137.885 152.946 138.266L145.009 182.834C144.93 183.262 144.518 183.548 144.09 183.476C143.662 183.397 143.369 182.984 143.448 182.556L151.259 138.663L142.593 135.774C139.353 134.695 136.747 132.267 135.432 129.108L133.349 124.093C132.382 121.775 132.184 119.149 132.786 116.712L137.167 98.9599L129.42 96.0554C128.01 95.5237 126.909 94.3492 126.473 92.9049C125.95 91.1907 126.386 89.3972 127.629 88.1037C128.873 86.8181 130.647 86.3261 132.382 86.7863L140.462 88.9528L174.366 98.3488C174.659 98.4282 174.88 98.6742 174.936 98.9758L189.725 182.564C189.804 182.992 189.511 183.405 189.084 183.484C189.036 183.492 188.988 183.5 188.941 183.5L188.949 183.492Z" fill="#080717"/>
<path d="M148.558 137.48C148.455 137.48 148.352 137.457 148.249 137.417C147.845 137.25 147.655 136.782 147.829 136.377C148.471 134.854 148.502 133.417 147.924 132.092C146.546 128.941 142.205 127.331 142.157 127.315C141.745 127.164 141.531 126.712 141.682 126.299C141.832 125.886 142.284 125.672 142.696 125.823C142.902 125.894 147.718 127.672 149.374 131.449C150.134 133.187 150.11 135.052 149.294 136.996C149.168 137.298 148.875 137.48 148.566 137.48H148.558Z" fill="#080717"/>
<path d="M144.637 115.8C144.542 115.8 144.447 115.784 144.351 115.744C141.848 114.76 136.311 113.308 135.21 115.062C134.98 115.435 134.489 115.546 134.117 115.316C133.745 115.085 133.634 114.593 133.864 114.22C135.955 110.872 144.011 113.903 144.922 114.26C145.326 114.419 145.532 114.879 145.373 115.292C145.254 115.601 144.953 115.8 144.637 115.8Z" fill="#080717"/>
<path d="M145.722 108.213C145.627 108.213 145.532 108.197 145.437 108.157C142.926 107.173 137.396 105.721 136.295 107.475C136.066 107.848 135.575 107.959 135.202 107.729C134.83 107.499 134.719 107.007 134.949 106.634C137.04 103.285 145.096 106.316 146.007 106.673C146.411 106.832 146.617 107.292 146.459 107.705C146.34 108.014 146.039 108.213 145.722 108.213Z" fill="#080717"/>
<path d="M148.019 100.896C147.924 100.896 147.829 100.88 147.734 100.84C145.223 99.8563 139.694 98.404 138.593 100.158C138.363 100.531 137.872 100.642 137.499 100.412C137.127 100.182 137.016 99.6896 137.246 99.3166C139.337 95.9677 147.393 98.9992 148.304 99.3563C148.708 99.515 148.914 99.9753 148.756 100.388C148.637 100.697 148.336 100.896 148.019 100.896Z" fill="#080717"/>
<path d="M19.3836 184H105.608L83.531 101.46C82.2636 96.706 77.0593 93.0793 72.5678 93.8173L4.76075 104.92C1.16444 105.507 -0.744614 108.753 0.277245 112.562L19.3836 184Z" fill="#080717"/>
<path d="M166.246 184H54.0555V174.636H157.968C162.539 174.636 166.246 178.35 166.246 182.929V184Z" fill="#080717"/>
<path d="M39.7099 145.21C41.2784 149.852 45.0569 152.765 48.1462 151.717C51.2355 150.67 52.4633 146.059 50.8949 141.416C49.3265 136.774 45.548 133.862 42.4586 134.909C39.3693 135.957 38.1415 140.567 39.7099 145.21Z" fill="white"/>
<path d="M73.7877 14.6972C73.2808 14.6972 72.7659 14.5861 72.2906 14.3639C71.4192 13.9671 70.7618 13.2449 70.4291 12.3482C70.0964 11.4514 70.136 10.4753 70.532 9.60237C70.9281 8.72943 71.649 8.07076 72.5441 7.73745C74.3977 7.05497 76.4652 7.99933 77.1464 9.85632C77.8356 11.7133 76.885 13.7845 75.0314 14.467C74.6274 14.6178 74.2076 14.6892 73.7877 14.6892V14.6972ZM73.7877 9.10241C73.558 9.10241 73.3204 9.14209 73.0986 9.22939C72.5995 9.41191 72.2035 9.78489 71.9737 10.269C71.7519 10.7531 71.7282 11.3006 71.9183 11.8006C72.1005 12.3005 72.4728 12.6973 72.956 12.9275C73.4392 13.1497 73.9778 13.1735 74.4848 12.983C75.5146 12.6021 76.0453 11.4435 75.6651 10.4118C75.3641 9.60237 74.6036 9.10241 73.7877 9.10241Z" fill="black"/>
<path d="M68.4962 25.9023L67.7041 23.7597L67.8388 23.4581C69.328 20.2124 73.1461 18.768 76.4018 20.1806L80.608 11.0227C81.3764 9.34821 82.7468 8.07848 84.4658 7.44361C86.1847 6.80875 88.0541 6.88017 89.7256 7.64201L89.0602 9.08633C87.7769 8.49114 86.3431 8.43559 85.0123 8.92761C83.6895 9.41963 82.628 10.3957 82.0418 11.6813L77.1781 22.2757L75.8631 21.6725C73.4709 20.5774 70.6509 21.5376 69.423 23.8311L69.9855 25.3468L68.5042 25.8944L68.4962 25.9023Z" fill="black"/>
<path d="M74.8096 30.1881C73.8432 30.1881 72.8768 29.9818 71.9737 29.5612C70.3261 28.7993 69.0666 27.4423 68.4408 25.7361L63.9731 13.6419C62.674 10.1184 64.4722 6.1981 67.9893 4.88869L80.0615 0.412883C83.5786 -0.888592 87.4917 0.91284 88.7908 4.43635L93.2585 16.5305C94.5576 20.054 92.7595 23.9743 89.2424 25.2838L77.1702 29.7596C76.4018 30.0452 75.6017 30.1881 74.8096 30.1881ZM82.4062 1.58738C81.8042 1.58738 81.1942 1.69055 80.6001 1.91275L68.5279 6.38856C65.8347 7.38847 64.4484 10.3961 65.4465 13.1023L69.9142 25.1965C70.3974 26.5059 71.3638 27.5455 72.6233 28.1248C73.8907 28.7041 75.3007 28.7596 76.6077 28.2756L88.6799 23.7998C91.3732 22.7998 92.7595 19.7922 91.7614 17.094L87.2937 4.99979C86.5174 2.8968 84.5212 1.58738 82.3983 1.58738H82.4062Z" fill="black"/>
<path d="M130.457 20.8078C130.101 20.3555 121.625 9.89605 107.2 14.1655C107.739 15.8797 107.802 17.5779 107.327 18.8556C106.764 20.3475 105.481 21.0141 103.897 20.6491C102.828 20.4031 101.639 19.1175 101.576 17.4906C101.536 16.4272 101.98 14.5464 105.101 13.2212C104.333 11.6657 103.105 10.1817 101.433 9.28499C96.3874 6.56301 94.2962 9.62623 94.2091 9.75321L92.8783 8.89614C92.91 8.84852 95.8092 4.44414 102.194 7.88829C104.198 8.96756 105.703 10.769 106.622 12.6895C122.179 8.00733 131.614 19.7127 131.709 19.8317L130.465 20.8157L130.457 20.8078ZM105.695 14.6893C104.016 15.4114 103.129 16.3637 103.168 17.4271C103.2 18.3477 103.913 19.0143 104.261 19.1016C105.077 19.2921 105.568 19.0461 105.846 18.2922C106.178 17.4113 106.123 16.086 105.695 14.6893Z" fill="black"/>
<path d="M54.8477 91.7144L42.6012 73.835C42.427 73.6763 42.221 73.5652 41.9913 73.5017L18.5519 67.6371C16.8409 67.2086 15.6606 65.6214 15.7398 63.8597L16.6666 42.7187C16.7141 41.5997 17.2528 40.576 18.1479 39.9014C19.043 39.2269 20.1758 38.9968 21.2689 39.2666L60.1629 48.8054C61.8502 49.2181 63.0463 50.7815 62.9988 52.5273L62.4047 72.6685C62.373 73.835 61.8106 74.8984 60.8679 75.5809C59.9253 76.2634 58.7371 76.4697 57.6202 76.1285L53.8338 75.3508L54.8398 91.7065L54.8477 91.7144ZM20.3817 40.7506C19.9223 40.7506 19.4787 40.9014 19.1064 41.1791C18.5915 41.568 18.2826 42.1552 18.2509 42.798L17.3241 63.9391C17.2765 64.9469 17.9578 65.8595 18.94 66.1055L42.3794 71.9701C42.9102 72.105 43.3934 72.3828 43.7736 72.7716L43.8607 72.8827L52.9149 86.0959L52.1307 73.3986L58.0083 74.6127C58.7133 74.827 59.3946 74.708 59.9411 74.3112C60.4798 73.9144 60.8046 73.3113 60.8204 72.6367L61.4145 52.4956C61.4383 51.4957 60.757 50.5989 59.7906 50.3609L20.8966 40.822C20.7303 40.7823 20.556 40.7585 20.3897 40.7585L20.3817 40.7506Z" fill="black"/>
<path d="M50.0394 67.5499C49.5324 67.5499 48.9066 67.3753 48.1779 66.8753C47.5759 66.4547 47.2828 65.7484 47.3541 64.8913C47.4729 63.4708 48.5819 61.6218 49.9919 60.241C49.374 59.1776 48.471 58.2094 47.2352 57.5428C44.7083 56.1858 42.2844 56.9635 40.6526 57.892C40.708 57.9951 40.7635 58.0904 40.811 58.1935C42.3161 61.1456 42.4745 63.8438 41.2387 65.4072C40.1931 66.7325 38.8386 67.2245 37.5236 66.7483C35.9789 66.1928 34.8858 64.4231 34.9254 62.5265C34.9571 61.0663 36.4701 58.9554 38.4979 57.4158C37.1592 55.4953 35.2581 53.8606 33.3728 53.932C31.3845 54.0193 30.0537 54.67 29.3646 55.9159C32.0737 57.4396 32.2242 59.2093 32.1688 59.8759C32.0579 61.2409 30.9409 62.3201 29.626 62.336C29.325 62.336 28.8418 62.2487 28.3744 61.7726C27.6456 61.0266 27.1704 59.5188 27.2258 58.1142C27.2417 57.6221 27.2971 57.1539 27.3922 56.7254C26.3861 56.3207 25.1029 55.9556 23.5107 55.662L23.7959 54.0986C25.491 54.4081 26.8456 54.797 27.9229 55.2335C28.8576 53.4558 30.6875 52.4559 33.2936 52.3369C35.7888 52.2099 38.1732 54.178 39.805 56.527C42.5775 54.9319 45.4767 54.789 47.9719 56.1381C49.3899 56.9 50.4592 58.0031 51.2118 59.2172C51.5128 59.0109 51.8217 58.8284 52.1227 58.6855C55.4893 57.0825 56.6221 58.9077 56.6696 58.9871L55.3071 59.7965L55.9884 59.3918L55.3309 59.8362C55.3309 59.8362 54.7843 59.1776 52.804 60.1219C52.5109 60.2648 52.2178 60.4394 51.9247 60.6536C52.3683 61.7646 52.5743 62.8995 52.5663 63.9232C52.5505 65.5738 51.9881 66.8118 51.0058 67.3197C50.7444 67.4546 50.4117 67.5578 50.0156 67.5578L50.0394 67.5499ZM50.689 61.8043C49.7146 62.8836 49.0096 64.1692 48.9383 65.0183C48.9146 65.304 48.9621 65.4865 49.0888 65.5738C49.3819 65.7802 49.9364 66.0976 50.3087 65.9071C50.6494 65.7325 50.9979 65.0421 51.0137 63.9073C51.0137 63.2486 50.9108 62.5344 50.689 61.8122V61.8043ZM39.3376 58.7728C37.6266 60.1299 36.5334 61.8123 36.5176 62.5582C36.4938 63.7486 37.1751 64.931 38.0623 65.2485C38.8861 65.5421 39.5673 64.9548 39.9951 64.4152C40.811 63.3756 40.5813 61.2171 39.401 58.9077C39.3772 58.8601 39.3535 58.8204 39.3297 58.7728H39.3376ZM28.8893 57.4475C28.8576 57.6777 28.8339 57.9237 28.8259 58.1776C28.7784 59.5505 29.3804 60.6695 29.6418 60.7568C30.0537 60.7488 30.5528 60.36 30.6082 59.7489C30.6637 59.0744 30.1805 58.2332 28.8972 57.4475H28.8893Z" fill="black"/>
<path d="M209.663 118.887C203.691 118.887 198.827 114.014 198.827 108.031C198.827 102.047 203.691 97.1743 209.663 97.1743C215.636 97.1743 220.5 102.047 220.5 108.031C220.5 114.014 215.636 118.887 209.663 118.887ZM209.663 98.7615C204.562 98.7615 200.411 102.92 200.411 108.031C200.411 113.141 204.562 117.3 209.663 117.3C214.765 117.3 218.915 113.141 218.915 108.031C218.915 102.92 214.765 98.7615 209.663 98.7615Z" fill="black"/>
<path d="M208.214 112.26C208.158 112.26 208.111 112.26 208.063 112.244C206.313 111.951 204.435 108.8 204.079 108.173L205.457 107.388C206.289 108.84 207.588 110.459 208.261 110.665C209.156 110.316 212 106.562 214.147 103.182L215.485 104.031C212.016 109.491 209.576 112.252 208.222 112.252L208.214 112.26Z" fill="black"/>
<path d="M40.5892 38.9727L39.0208 38.7664C39.0208 38.7664 39.0604 38.4648 39.1713 37.9331L40.7239 38.2505C40.6288 38.7029 40.5971 38.9568 40.5971 38.9727H40.5892Z" fill="#080717"/>
<path d="M41.0882 36.727L39.5594 36.3064C39.6941 35.8223 39.8525 35.2906 40.0505 34.7113L41.5477 35.2192C41.3655 35.7668 41.2071 36.2747 41.0882 36.727ZM42.0943 33.7352L40.6288 33.14C40.8268 32.648 41.0486 32.1322 41.2942 31.6084L42.728 32.2829C42.4982 32.7829 42.2844 33.267 42.0943 33.7352ZM43.4409 30.8783L42.0467 30.1165C42.3081 29.6403 42.5854 29.1562 42.8943 28.6721L44.233 29.5133C43.9479 29.9736 43.6865 30.426 43.4409 30.8704V30.8783ZM45.1123 28.2119L43.829 27.2834C44.1617 26.8231 44.5024 26.3787 44.8509 25.9581L46.0708 26.9739C45.746 27.3707 45.4212 27.7913 45.1123 28.2198V28.2119ZM47.1085 25.7994L45.9599 24.7042C46.348 24.2995 46.7441 23.9027 47.156 23.5297L48.2254 24.7042C47.8452 25.0534 47.465 25.4185 47.1085 25.7994ZM49.4136 23.6884L48.4314 22.4425C48.867 22.0933 49.3265 21.76 49.7859 21.4505L50.6731 22.7679C50.2454 23.0615 49.8176 23.371 49.4136 23.6884ZM52.0039 21.9346L51.2118 20.5617C51.6871 20.284 52.1861 20.0221 52.6931 19.7761L53.3822 21.2045C52.9069 21.4347 52.4475 21.6807 52.0039 21.9346ZM54.816 20.5697L54.2298 19.0936C54.7368 18.8873 55.2675 18.6968 55.7983 18.5222L56.2894 20.03C55.7903 20.1967 55.2913 20.3713 54.816 20.5617V20.5697ZM57.7944 19.5936L57.3984 18.054C57.9291 17.9191 58.4678 17.7921 59.0223 17.689L59.3233 19.2444C58.8005 19.3476 58.2856 19.4587 57.7865 19.5856L57.7944 19.5936Z" fill="#080717"/>
<path d="M60.9075 18.9903L60.6937 17.419C60.963 17.3793 61.2244 17.3475 61.5016 17.3237L61.6759 18.903C61.4145 18.9347 61.161 18.9664 60.9075 18.9982V18.9903Z" fill="#080717"/>
<path d="M20.1758 83.3023L19.7322 81.7786C19.7322 81.7786 20.0253 81.6913 20.5481 81.5723L20.8887 83.1197C20.4372 83.215 20.1916 83.2943 20.1758 83.2943V83.3023Z" fill="#080717"/>
<path d="M45.7619 92.4682C45.4529 92.0238 45.144 91.6032 44.8271 91.2064L46.0708 90.2224C46.4114 90.6509 46.7362 91.0953 47.061 91.5635L45.7619 92.4682ZM43.8211 90.0002C43.4726 89.6113 43.1082 89.2304 42.7359 88.8654L43.8449 87.7306C44.2409 88.1194 44.6291 88.5241 45.0014 88.9368L43.8211 90.0002ZM41.5714 87.8099C41.1754 87.4766 40.7635 87.1512 40.3436 86.8417L41.2783 85.5641C41.7299 85.8974 42.1735 86.2465 42.5933 86.6037L41.5714 87.8099ZM39.0524 85.9688C38.6168 85.691 38.1573 85.4292 37.6979 85.1911L38.4346 83.7864C38.9257 84.0483 39.4168 84.334 39.8921 84.6276L39.0524 85.9767V85.9688ZM36.2879 84.5086C35.8205 84.3023 35.3294 84.1039 34.8383 83.9293L35.369 82.4374C35.8997 82.6278 36.4225 82.8341 36.9295 83.0564L36.2958 84.5086H36.2879ZM33.3411 83.4531C32.8421 83.3103 32.3272 83.1833 31.8202 83.0802L32.145 81.5247C32.6916 81.6358 33.2381 81.7707 33.7689 81.9215L33.3411 83.4531ZM22.4254 82.8421L22.1878 81.2708C22.6789 81.1994 23.2334 81.1279 23.8434 81.0724L23.986 82.6516C23.4077 82.7072 22.8849 82.7707 22.4254 82.8421ZM30.2755 82.8103C29.7448 82.731 29.222 82.6754 28.715 82.6357L28.8418 81.0565C29.3804 81.1041 29.9349 81.1597 30.4973 81.247L30.2676 82.8183L30.2755 82.8103ZM25.5623 82.5564L25.5069 80.9692C26.0376 80.9534 26.5921 80.9454 27.1783 80.9613L27.1387 82.5485C26.5921 82.5326 26.0614 82.5485 25.5623 82.5564Z" fill="#080717"/>
<path d="M47.0372 94.468C46.9105 94.2458 46.7758 94.0236 46.6411 93.8093L47.9878 92.9761C48.1303 93.2062 48.265 93.4363 48.4076 93.6744L47.0372 94.468Z" fill="#080717"/>
<path d="M62.1987 91.119L60.6699 90.7142C60.6699 90.7142 60.7491 90.4206 60.9155 89.9048L62.4126 90.4127C62.27 90.8491 62.1987 91.1031 62.1908 91.119H62.1987Z" fill="#080717"/>
<path d="M62.9671 88.9526L61.5016 88.3415C61.6918 87.8812 61.9215 87.3654 62.1908 86.8178L63.6167 87.5162C63.3632 88.04 63.1493 88.524 62.9671 88.9526ZM64.3454 86.1036L62.9592 85.3338C63.2206 84.8656 63.4978 84.3895 63.8068 83.8975L65.1455 84.7466C64.8524 85.2148 64.5831 85.6671 64.3375 86.1036H64.3454ZM66.0327 83.4451L64.7494 82.5166C65.0663 82.0722 65.4069 81.6357 65.7634 81.1913L66.9912 82.1913C66.6505 82.6119 66.3337 83.0245 66.0327 83.4451ZM68.021 81.0088L66.8644 79.9295C67.2447 79.5169 67.6407 79.1201 68.0447 78.7392L69.1299 79.8978C68.7576 80.2549 68.3853 80.6279 68.021 81.0168V81.0088ZM70.3023 78.8582L69.2963 77.6282C69.7241 77.271 70.1756 76.9298 70.6271 76.6124L71.538 77.9059C71.1103 78.2075 70.6984 78.5249 70.2944 78.8582H70.3023ZM72.853 77.0488L72.0371 75.6918C72.5124 75.4061 73.0114 75.1284 73.5026 74.8744L74.2234 76.287C73.764 76.5251 73.3045 76.779 72.8609 77.0488H72.853ZM75.6334 75.6283L75.0155 74.1681C75.5304 73.9539 76.0532 73.7555 76.584 73.573L77.0909 75.0728C76.5998 75.2395 76.1087 75.4299 75.6255 75.6283H75.6334ZM78.596 74.6284L78.192 73.0968C78.7307 72.954 79.2772 72.8349 79.8238 72.7238L80.1248 74.2792C79.6099 74.3745 79.103 74.4935 78.596 74.6284ZM81.6695 74.0332L81.4715 72.4619C82.0101 72.3905 82.5646 72.3429 83.127 72.3032L83.23 73.8904C82.6993 73.9301 82.1765 73.9777 81.6616 74.0412L81.6695 74.0332Z" fill="#080717"/>
<path d="M85.6064 73.8269C85.345 73.8269 85.0915 73.8269 84.8301 73.8269L84.8143 72.2397C85.0836 72.2397 85.353 72.2397 85.6302 72.2397L85.6064 73.8269Z" fill="#080717"/>
<path d="M210.123 69.4065C209.766 69.1208 209.552 68.9701 209.537 68.9621L210.44 67.6606C210.44 67.6606 210.685 67.8352 211.113 68.1765L210.123 69.4145V69.4065Z" fill="#080717"/>
<path d="M219.929 95.1424L218.409 94.698C218.559 94.1822 218.694 93.6743 218.805 93.1743L220.349 93.5314C220.223 94.0631 220.088 94.6028 219.921 95.1503L219.929 95.1424ZM220.682 91.8887L219.121 91.6268C219.209 91.111 219.272 90.5872 219.327 90.0714L220.904 90.2222C220.848 90.7698 220.777 91.3332 220.69 91.8887H220.682ZM220.999 88.5477L219.415 88.508C219.415 88.3096 219.422 88.1113 219.422 87.9129C219.422 87.5875 219.422 87.2621 219.399 86.9447L220.983 86.8733C220.999 87.2145 221.007 87.5637 221.007 87.9129C221.007 88.1271 221.007 88.3335 220.999 88.5477ZM219.272 85.3813C219.209 84.8655 219.129 84.3497 219.034 83.8338L220.587 83.5323C220.69 84.0799 220.777 84.6433 220.848 85.1909L219.272 85.3734V85.3813ZM218.686 82.3102C218.551 81.8023 218.393 81.3023 218.226 80.8103L219.723 80.2865C219.906 80.8103 220.072 81.3499 220.215 81.8896L218.686 82.3022V82.3102ZM217.664 79.3501C217.458 78.874 217.236 78.3899 216.998 77.9296L218.409 77.2154C218.662 77.7153 218.9 78.2232 219.113 78.7311L217.656 79.3501H217.664ZM216.246 76.5408C215.977 76.0805 215.691 75.6361 215.406 75.2076L216.721 74.3188C217.022 74.7711 217.323 75.2393 217.616 75.7314L216.254 76.5408H216.246ZM214.487 73.9299C214.155 73.4935 213.822 73.0887 213.497 72.6999L214.701 71.6682C215.05 72.073 215.398 72.5015 215.755 72.9618L214.495 73.922L214.487 73.9299ZM212.436 71.5333C212.032 71.1127 211.652 70.7477 211.311 70.4302L212.388 69.2637C212.753 69.6049 213.157 69.9938 213.576 70.4302L212.436 71.5333Z" fill="#080717"/>
<path d="M219.121 97.5074L217.64 96.936C217.735 96.69 217.822 96.4519 217.909 96.2139L219.399 96.7456C219.312 96.9995 219.216 97.2535 219.114 97.5074H219.121Z" fill="#080717"/>
</g>
<defs>
<clipPath id="clip0_17_211">
<rect width="237" height="184" fill="white"/>
</clipPath>
</defs>
</svg>
